%TF.GenerationSoftware,KiCad,Pcbnew,8.0.6*%
%TF.CreationDate,2025-03-17T22:04:28-06:00*%
%TF.ProjectId,Eli-Neopixel,456c692d-4e65-46f7-9069-78656c2e6b69,rev?*%
%TF.SameCoordinates,Original*%
%TF.FileFunction,Legend,Top*%
%TF.FilePolarity,Positive*%
%FSLAX46Y46*%
G04 Gerber Fmt 4.6, Leading zero omitted, Abs format (unit mm)*
G04 Created by KiCad (PCBNEW 8.0.6) date 2025-03-17 22:04:28*
%MOMM*%
%LPD*%
G01*
G04 APERTURE LIST*
%ADD10C,0.150000*%
%ADD11C,0.300000*%
%ADD12C,0.120000*%
%ADD13C,0.127000*%
%ADD14C,0.100000*%
%ADD15C,0.200000*%
G04 APERTURE END LIST*
D10*
X166860588Y-67417438D02*
X166765350Y-67369819D01*
X166765350Y-67369819D02*
X166622493Y-67369819D01*
X166622493Y-67369819D02*
X166479636Y-67417438D01*
X166479636Y-67417438D02*
X166384398Y-67512676D01*
X166384398Y-67512676D02*
X166336779Y-67607914D01*
X166336779Y-67607914D02*
X166289160Y-67798390D01*
X166289160Y-67798390D02*
X166289160Y-67941247D01*
X166289160Y-67941247D02*
X166336779Y-68131723D01*
X166336779Y-68131723D02*
X166384398Y-68226961D01*
X166384398Y-68226961D02*
X166479636Y-68322200D01*
X166479636Y-68322200D02*
X166622493Y-68369819D01*
X166622493Y-68369819D02*
X166717731Y-68369819D01*
X166717731Y-68369819D02*
X166860588Y-68322200D01*
X166860588Y-68322200D02*
X166908207Y-68274580D01*
X166908207Y-68274580D02*
X166908207Y-67941247D01*
X166908207Y-67941247D02*
X166717731Y-67941247D01*
X167336779Y-68369819D02*
X167336779Y-67369819D01*
X167336779Y-67369819D02*
X167908207Y-68369819D01*
X167908207Y-68369819D02*
X167908207Y-67369819D01*
X168384398Y-68369819D02*
X168384398Y-67369819D01*
X168384398Y-67369819D02*
X168622493Y-67369819D01*
X168622493Y-67369819D02*
X168765350Y-67417438D01*
X168765350Y-67417438D02*
X168860588Y-67512676D01*
X168860588Y-67512676D02*
X168908207Y-67607914D01*
X168908207Y-67607914D02*
X168955826Y-67798390D01*
X168955826Y-67798390D02*
X168955826Y-67941247D01*
X168955826Y-67941247D02*
X168908207Y-68131723D01*
X168908207Y-68131723D02*
X168860588Y-68226961D01*
X168860588Y-68226961D02*
X168765350Y-68322200D01*
X168765350Y-68322200D02*
X168622493Y-68369819D01*
X168622493Y-68369819D02*
X168384398Y-68369819D01*
D11*
X122911653Y-80970996D02*
X122411653Y-80256710D01*
X122054510Y-80970996D02*
X122054510Y-79470996D01*
X122054510Y-79470996D02*
X122625939Y-79470996D01*
X122625939Y-79470996D02*
X122768796Y-79542425D01*
X122768796Y-79542425D02*
X122840225Y-79613853D01*
X122840225Y-79613853D02*
X122911653Y-79756710D01*
X122911653Y-79756710D02*
X122911653Y-79970996D01*
X122911653Y-79970996D02*
X122840225Y-80113853D01*
X122840225Y-80113853D02*
X122768796Y-80185282D01*
X122768796Y-80185282D02*
X122625939Y-80256710D01*
X122625939Y-80256710D02*
X122054510Y-80256710D01*
X124340225Y-79542425D02*
X124197368Y-79470996D01*
X124197368Y-79470996D02*
X123983082Y-79470996D01*
X123983082Y-79470996D02*
X123768796Y-79542425D01*
X123768796Y-79542425D02*
X123625939Y-79685282D01*
X123625939Y-79685282D02*
X123554510Y-79828139D01*
X123554510Y-79828139D02*
X123483082Y-80113853D01*
X123483082Y-80113853D02*
X123483082Y-80328139D01*
X123483082Y-80328139D02*
X123554510Y-80613853D01*
X123554510Y-80613853D02*
X123625939Y-80756710D01*
X123625939Y-80756710D02*
X123768796Y-80899568D01*
X123768796Y-80899568D02*
X123983082Y-80970996D01*
X123983082Y-80970996D02*
X124125939Y-80970996D01*
X124125939Y-80970996D02*
X124340225Y-80899568D01*
X124340225Y-80899568D02*
X124411653Y-80828139D01*
X124411653Y-80828139D02*
X124411653Y-80328139D01*
X124411653Y-80328139D02*
X124125939Y-80328139D01*
X125554510Y-80185282D02*
X125768796Y-80256710D01*
X125768796Y-80256710D02*
X125840225Y-80328139D01*
X125840225Y-80328139D02*
X125911653Y-80470996D01*
X125911653Y-80470996D02*
X125911653Y-80685282D01*
X125911653Y-80685282D02*
X125840225Y-80828139D01*
X125840225Y-80828139D02*
X125768796Y-80899568D01*
X125768796Y-80899568D02*
X125625939Y-80970996D01*
X125625939Y-80970996D02*
X125054510Y-80970996D01*
X125054510Y-80970996D02*
X125054510Y-79470996D01*
X125054510Y-79470996D02*
X125554510Y-79470996D01*
X125554510Y-79470996D02*
X125697368Y-79542425D01*
X125697368Y-79542425D02*
X125768796Y-79613853D01*
X125768796Y-79613853D02*
X125840225Y-79756710D01*
X125840225Y-79756710D02*
X125840225Y-79899568D01*
X125840225Y-79899568D02*
X125768796Y-80042425D01*
X125768796Y-80042425D02*
X125697368Y-80113853D01*
X125697368Y-80113853D02*
X125554510Y-80185282D01*
X125554510Y-80185282D02*
X125054510Y-80185282D01*
X127697367Y-80970996D02*
X127697367Y-79470996D01*
X127697367Y-79470996D02*
X128054510Y-79470996D01*
X128054510Y-79470996D02*
X128268796Y-79542425D01*
X128268796Y-79542425D02*
X128411653Y-79685282D01*
X128411653Y-79685282D02*
X128483082Y-79828139D01*
X128483082Y-79828139D02*
X128554510Y-80113853D01*
X128554510Y-80113853D02*
X128554510Y-80328139D01*
X128554510Y-80328139D02*
X128483082Y-80613853D01*
X128483082Y-80613853D02*
X128411653Y-80756710D01*
X128411653Y-80756710D02*
X128268796Y-80899568D01*
X128268796Y-80899568D02*
X128054510Y-80970996D01*
X128054510Y-80970996D02*
X127697367Y-80970996D01*
X129768796Y-80899568D02*
X129625939Y-80970996D01*
X129625939Y-80970996D02*
X129340225Y-80970996D01*
X129340225Y-80970996D02*
X129197367Y-80899568D01*
X129197367Y-80899568D02*
X129125939Y-80756710D01*
X129125939Y-80756710D02*
X129125939Y-80185282D01*
X129125939Y-80185282D02*
X129197367Y-80042425D01*
X129197367Y-80042425D02*
X129340225Y-79970996D01*
X129340225Y-79970996D02*
X129625939Y-79970996D01*
X129625939Y-79970996D02*
X129768796Y-80042425D01*
X129768796Y-80042425D02*
X129840225Y-80185282D01*
X129840225Y-80185282D02*
X129840225Y-80328139D01*
X129840225Y-80328139D02*
X129125939Y-80470996D01*
X130411653Y-80899568D02*
X130554510Y-80970996D01*
X130554510Y-80970996D02*
X130840224Y-80970996D01*
X130840224Y-80970996D02*
X130983081Y-80899568D01*
X130983081Y-80899568D02*
X131054510Y-80756710D01*
X131054510Y-80756710D02*
X131054510Y-80685282D01*
X131054510Y-80685282D02*
X130983081Y-80542425D01*
X130983081Y-80542425D02*
X130840224Y-80470996D01*
X130840224Y-80470996D02*
X130625939Y-80470996D01*
X130625939Y-80470996D02*
X130483081Y-80399568D01*
X130483081Y-80399568D02*
X130411653Y-80256710D01*
X130411653Y-80256710D02*
X130411653Y-80185282D01*
X130411653Y-80185282D02*
X130483081Y-80042425D01*
X130483081Y-80042425D02*
X130625939Y-79970996D01*
X130625939Y-79970996D02*
X130840224Y-79970996D01*
X130840224Y-79970996D02*
X130983081Y-80042425D01*
X131697367Y-80970996D02*
X131697367Y-79470996D01*
X131840225Y-80399568D02*
X132268796Y-80970996D01*
X132268796Y-79970996D02*
X131697367Y-80542425D01*
X134768796Y-80970996D02*
X134054510Y-80970996D01*
X134054510Y-80970996D02*
X134054510Y-79470996D01*
X135268796Y-80970996D02*
X135268796Y-79970996D01*
X135268796Y-79470996D02*
X135197368Y-79542425D01*
X135197368Y-79542425D02*
X135268796Y-79613853D01*
X135268796Y-79613853D02*
X135340225Y-79542425D01*
X135340225Y-79542425D02*
X135268796Y-79470996D01*
X135268796Y-79470996D02*
X135268796Y-79613853D01*
X136625940Y-79970996D02*
X136625940Y-81185282D01*
X136625940Y-81185282D02*
X136554511Y-81328139D01*
X136554511Y-81328139D02*
X136483082Y-81399568D01*
X136483082Y-81399568D02*
X136340225Y-81470996D01*
X136340225Y-81470996D02*
X136125940Y-81470996D01*
X136125940Y-81470996D02*
X135983082Y-81399568D01*
X136625940Y-80899568D02*
X136483082Y-80970996D01*
X136483082Y-80970996D02*
X136197368Y-80970996D01*
X136197368Y-80970996D02*
X136054511Y-80899568D01*
X136054511Y-80899568D02*
X135983082Y-80828139D01*
X135983082Y-80828139D02*
X135911654Y-80685282D01*
X135911654Y-80685282D02*
X135911654Y-80256710D01*
X135911654Y-80256710D02*
X135983082Y-80113853D01*
X135983082Y-80113853D02*
X136054511Y-80042425D01*
X136054511Y-80042425D02*
X136197368Y-79970996D01*
X136197368Y-79970996D02*
X136483082Y-79970996D01*
X136483082Y-79970996D02*
X136625940Y-80042425D01*
X137340225Y-80970996D02*
X137340225Y-79470996D01*
X137983083Y-80970996D02*
X137983083Y-80185282D01*
X137983083Y-80185282D02*
X137911654Y-80042425D01*
X137911654Y-80042425D02*
X137768797Y-79970996D01*
X137768797Y-79970996D02*
X137554511Y-79970996D01*
X137554511Y-79970996D02*
X137411654Y-80042425D01*
X137411654Y-80042425D02*
X137340225Y-80113853D01*
X138483083Y-79970996D02*
X139054511Y-79970996D01*
X138697368Y-79470996D02*
X138697368Y-80756710D01*
X138697368Y-80756710D02*
X138768797Y-80899568D01*
X138768797Y-80899568D02*
X138911654Y-80970996D01*
X138911654Y-80970996D02*
X139054511Y-80970996D01*
X141554511Y-80828139D02*
X141483083Y-80899568D01*
X141483083Y-80899568D02*
X141268797Y-80970996D01*
X141268797Y-80970996D02*
X141125940Y-80970996D01*
X141125940Y-80970996D02*
X140911654Y-80899568D01*
X140911654Y-80899568D02*
X140768797Y-80756710D01*
X140768797Y-80756710D02*
X140697368Y-80613853D01*
X140697368Y-80613853D02*
X140625940Y-80328139D01*
X140625940Y-80328139D02*
X140625940Y-80113853D01*
X140625940Y-80113853D02*
X140697368Y-79828139D01*
X140697368Y-79828139D02*
X140768797Y-79685282D01*
X140768797Y-79685282D02*
X140911654Y-79542425D01*
X140911654Y-79542425D02*
X141125940Y-79470996D01*
X141125940Y-79470996D02*
X141268797Y-79470996D01*
X141268797Y-79470996D02*
X141483083Y-79542425D01*
X141483083Y-79542425D02*
X141554511Y-79613853D01*
X142411654Y-80970996D02*
X142268797Y-80899568D01*
X142268797Y-80899568D02*
X142197368Y-80828139D01*
X142197368Y-80828139D02*
X142125940Y-80685282D01*
X142125940Y-80685282D02*
X142125940Y-80256710D01*
X142125940Y-80256710D02*
X142197368Y-80113853D01*
X142197368Y-80113853D02*
X142268797Y-80042425D01*
X142268797Y-80042425D02*
X142411654Y-79970996D01*
X142411654Y-79970996D02*
X142625940Y-79970996D01*
X142625940Y-79970996D02*
X142768797Y-80042425D01*
X142768797Y-80042425D02*
X142840226Y-80113853D01*
X142840226Y-80113853D02*
X142911654Y-80256710D01*
X142911654Y-80256710D02*
X142911654Y-80685282D01*
X142911654Y-80685282D02*
X142840226Y-80828139D01*
X142840226Y-80828139D02*
X142768797Y-80899568D01*
X142768797Y-80899568D02*
X142625940Y-80970996D01*
X142625940Y-80970996D02*
X142411654Y-80970996D01*
X143554511Y-79970996D02*
X143554511Y-80970996D01*
X143554511Y-80113853D02*
X143625940Y-80042425D01*
X143625940Y-80042425D02*
X143768797Y-79970996D01*
X143768797Y-79970996D02*
X143983083Y-79970996D01*
X143983083Y-79970996D02*
X144125940Y-80042425D01*
X144125940Y-80042425D02*
X144197369Y-80185282D01*
X144197369Y-80185282D02*
X144197369Y-80970996D01*
X144697369Y-79970996D02*
X145268797Y-79970996D01*
X144911654Y-79470996D02*
X144911654Y-80756710D01*
X144911654Y-80756710D02*
X144983083Y-80899568D01*
X144983083Y-80899568D02*
X145125940Y-80970996D01*
X145125940Y-80970996D02*
X145268797Y-80970996D01*
X145768797Y-80970996D02*
X145768797Y-79970996D01*
X145768797Y-80256710D02*
X145840226Y-80113853D01*
X145840226Y-80113853D02*
X145911655Y-80042425D01*
X145911655Y-80042425D02*
X146054512Y-79970996D01*
X146054512Y-79970996D02*
X146197369Y-79970996D01*
X146911654Y-80970996D02*
X146768797Y-80899568D01*
X146768797Y-80899568D02*
X146697368Y-80828139D01*
X146697368Y-80828139D02*
X146625940Y-80685282D01*
X146625940Y-80685282D02*
X146625940Y-80256710D01*
X146625940Y-80256710D02*
X146697368Y-80113853D01*
X146697368Y-80113853D02*
X146768797Y-80042425D01*
X146768797Y-80042425D02*
X146911654Y-79970996D01*
X146911654Y-79970996D02*
X147125940Y-79970996D01*
X147125940Y-79970996D02*
X147268797Y-80042425D01*
X147268797Y-80042425D02*
X147340226Y-80113853D01*
X147340226Y-80113853D02*
X147411654Y-80256710D01*
X147411654Y-80256710D02*
X147411654Y-80685282D01*
X147411654Y-80685282D02*
X147340226Y-80828139D01*
X147340226Y-80828139D02*
X147268797Y-80899568D01*
X147268797Y-80899568D02*
X147125940Y-80970996D01*
X147125940Y-80970996D02*
X146911654Y-80970996D01*
X148268797Y-80970996D02*
X148125940Y-80899568D01*
X148125940Y-80899568D02*
X148054511Y-80756710D01*
X148054511Y-80756710D02*
X148054511Y-79470996D01*
X149054511Y-80970996D02*
X148911654Y-80899568D01*
X148911654Y-80899568D02*
X148840225Y-80756710D01*
X148840225Y-80756710D02*
X148840225Y-79470996D01*
X150197368Y-80899568D02*
X150054511Y-80970996D01*
X150054511Y-80970996D02*
X149768797Y-80970996D01*
X149768797Y-80970996D02*
X149625939Y-80899568D01*
X149625939Y-80899568D02*
X149554511Y-80756710D01*
X149554511Y-80756710D02*
X149554511Y-80185282D01*
X149554511Y-80185282D02*
X149625939Y-80042425D01*
X149625939Y-80042425D02*
X149768797Y-79970996D01*
X149768797Y-79970996D02*
X150054511Y-79970996D01*
X150054511Y-79970996D02*
X150197368Y-80042425D01*
X150197368Y-80042425D02*
X150268797Y-80185282D01*
X150268797Y-80185282D02*
X150268797Y-80328139D01*
X150268797Y-80328139D02*
X149554511Y-80470996D01*
X150911653Y-80970996D02*
X150911653Y-79970996D01*
X150911653Y-80256710D02*
X150983082Y-80113853D01*
X150983082Y-80113853D02*
X151054511Y-80042425D01*
X151054511Y-80042425D02*
X151197368Y-79970996D01*
X151197368Y-79970996D02*
X151340225Y-79970996D01*
X122054510Y-83385912D02*
X122054510Y-81885912D01*
X122054510Y-81885912D02*
X122554510Y-82957341D01*
X122554510Y-82957341D02*
X123054510Y-81885912D01*
X123054510Y-81885912D02*
X123054510Y-83385912D01*
X124411654Y-83385912D02*
X124411654Y-82600198D01*
X124411654Y-82600198D02*
X124340225Y-82457341D01*
X124340225Y-82457341D02*
X124197368Y-82385912D01*
X124197368Y-82385912D02*
X123911654Y-82385912D01*
X123911654Y-82385912D02*
X123768796Y-82457341D01*
X124411654Y-83314484D02*
X124268796Y-83385912D01*
X124268796Y-83385912D02*
X123911654Y-83385912D01*
X123911654Y-83385912D02*
X123768796Y-83314484D01*
X123768796Y-83314484D02*
X123697368Y-83171626D01*
X123697368Y-83171626D02*
X123697368Y-83028769D01*
X123697368Y-83028769D02*
X123768796Y-82885912D01*
X123768796Y-82885912D02*
X123911654Y-82814484D01*
X123911654Y-82814484D02*
X124268796Y-82814484D01*
X124268796Y-82814484D02*
X124411654Y-82743055D01*
X125125939Y-83385912D02*
X125125939Y-82385912D01*
X125125939Y-81885912D02*
X125054511Y-81957341D01*
X125054511Y-81957341D02*
X125125939Y-82028769D01*
X125125939Y-82028769D02*
X125197368Y-81957341D01*
X125197368Y-81957341D02*
X125125939Y-81885912D01*
X125125939Y-81885912D02*
X125125939Y-82028769D01*
X125840225Y-82385912D02*
X125840225Y-83385912D01*
X125840225Y-82528769D02*
X125911654Y-82457341D01*
X125911654Y-82457341D02*
X126054511Y-82385912D01*
X126054511Y-82385912D02*
X126268797Y-82385912D01*
X126268797Y-82385912D02*
X126411654Y-82457341D01*
X126411654Y-82457341D02*
X126483083Y-82600198D01*
X126483083Y-82600198D02*
X126483083Y-83385912D01*
X128840225Y-82600198D02*
X129054511Y-82671626D01*
X129054511Y-82671626D02*
X129125940Y-82743055D01*
X129125940Y-82743055D02*
X129197368Y-82885912D01*
X129197368Y-82885912D02*
X129197368Y-83100198D01*
X129197368Y-83100198D02*
X129125940Y-83243055D01*
X129125940Y-83243055D02*
X129054511Y-83314484D01*
X129054511Y-83314484D02*
X128911654Y-83385912D01*
X128911654Y-83385912D02*
X128340225Y-83385912D01*
X128340225Y-83385912D02*
X128340225Y-81885912D01*
X128340225Y-81885912D02*
X128840225Y-81885912D01*
X128840225Y-81885912D02*
X128983083Y-81957341D01*
X128983083Y-81957341D02*
X129054511Y-82028769D01*
X129054511Y-82028769D02*
X129125940Y-82171626D01*
X129125940Y-82171626D02*
X129125940Y-82314484D01*
X129125940Y-82314484D02*
X129054511Y-82457341D01*
X129054511Y-82457341D02*
X128983083Y-82528769D01*
X128983083Y-82528769D02*
X128840225Y-82600198D01*
X128840225Y-82600198D02*
X128340225Y-82600198D01*
X130054511Y-83385912D02*
X129911654Y-83314484D01*
X129911654Y-83314484D02*
X129840225Y-83243055D01*
X129840225Y-83243055D02*
X129768797Y-83100198D01*
X129768797Y-83100198D02*
X129768797Y-82671626D01*
X129768797Y-82671626D02*
X129840225Y-82528769D01*
X129840225Y-82528769D02*
X129911654Y-82457341D01*
X129911654Y-82457341D02*
X130054511Y-82385912D01*
X130054511Y-82385912D02*
X130268797Y-82385912D01*
X130268797Y-82385912D02*
X130411654Y-82457341D01*
X130411654Y-82457341D02*
X130483083Y-82528769D01*
X130483083Y-82528769D02*
X130554511Y-82671626D01*
X130554511Y-82671626D02*
X130554511Y-83100198D01*
X130554511Y-83100198D02*
X130483083Y-83243055D01*
X130483083Y-83243055D02*
X130411654Y-83314484D01*
X130411654Y-83314484D02*
X130268797Y-83385912D01*
X130268797Y-83385912D02*
X130054511Y-83385912D01*
X131840226Y-83385912D02*
X131840226Y-82600198D01*
X131840226Y-82600198D02*
X131768797Y-82457341D01*
X131768797Y-82457341D02*
X131625940Y-82385912D01*
X131625940Y-82385912D02*
X131340226Y-82385912D01*
X131340226Y-82385912D02*
X131197368Y-82457341D01*
X131840226Y-83314484D02*
X131697368Y-83385912D01*
X131697368Y-83385912D02*
X131340226Y-83385912D01*
X131340226Y-83385912D02*
X131197368Y-83314484D01*
X131197368Y-83314484D02*
X131125940Y-83171626D01*
X131125940Y-83171626D02*
X131125940Y-83028769D01*
X131125940Y-83028769D02*
X131197368Y-82885912D01*
X131197368Y-82885912D02*
X131340226Y-82814484D01*
X131340226Y-82814484D02*
X131697368Y-82814484D01*
X131697368Y-82814484D02*
X131840226Y-82743055D01*
X132554511Y-83385912D02*
X132554511Y-82385912D01*
X132554511Y-82671626D02*
X132625940Y-82528769D01*
X132625940Y-82528769D02*
X132697369Y-82457341D01*
X132697369Y-82457341D02*
X132840226Y-82385912D01*
X132840226Y-82385912D02*
X132983083Y-82385912D01*
X134125940Y-83385912D02*
X134125940Y-81885912D01*
X134125940Y-83314484D02*
X133983082Y-83385912D01*
X133983082Y-83385912D02*
X133697368Y-83385912D01*
X133697368Y-83385912D02*
X133554511Y-83314484D01*
X133554511Y-83314484D02*
X133483082Y-83243055D01*
X133483082Y-83243055D02*
X133411654Y-83100198D01*
X133411654Y-83100198D02*
X133411654Y-82671626D01*
X133411654Y-82671626D02*
X133483082Y-82528769D01*
X133483082Y-82528769D02*
X133554511Y-82457341D01*
X133554511Y-82457341D02*
X133697368Y-82385912D01*
X133697368Y-82385912D02*
X133983082Y-82385912D01*
X133983082Y-82385912D02*
X134125940Y-82457341D01*
X123197367Y-85229400D02*
X124340225Y-85229400D01*
X126197367Y-85800828D02*
X126197367Y-84300828D01*
X126197367Y-84300828D02*
X127054510Y-85800828D01*
X127054510Y-85800828D02*
X127054510Y-84300828D01*
X128268796Y-85015114D02*
X127768796Y-85015114D01*
X127768796Y-85800828D02*
X127768796Y-84300828D01*
X127768796Y-84300828D02*
X128483082Y-84300828D01*
X130125939Y-84443685D02*
X130197367Y-84372257D01*
X130197367Y-84372257D02*
X130340225Y-84300828D01*
X130340225Y-84300828D02*
X130697367Y-84300828D01*
X130697367Y-84300828D02*
X130840225Y-84372257D01*
X130840225Y-84372257D02*
X130911653Y-84443685D01*
X130911653Y-84443685D02*
X130983082Y-84586542D01*
X130983082Y-84586542D02*
X130983082Y-84729400D01*
X130983082Y-84729400D02*
X130911653Y-84943685D01*
X130911653Y-84943685D02*
X130054510Y-85800828D01*
X130054510Y-85800828D02*
X130983082Y-85800828D01*
X131911653Y-84300828D02*
X132054510Y-84300828D01*
X132054510Y-84300828D02*
X132197367Y-84372257D01*
X132197367Y-84372257D02*
X132268796Y-84443685D01*
X132268796Y-84443685D02*
X132340224Y-84586542D01*
X132340224Y-84586542D02*
X132411653Y-84872257D01*
X132411653Y-84872257D02*
X132411653Y-85229400D01*
X132411653Y-85229400D02*
X132340224Y-85515114D01*
X132340224Y-85515114D02*
X132268796Y-85657971D01*
X132268796Y-85657971D02*
X132197367Y-85729400D01*
X132197367Y-85729400D02*
X132054510Y-85800828D01*
X132054510Y-85800828D02*
X131911653Y-85800828D01*
X131911653Y-85800828D02*
X131768796Y-85729400D01*
X131768796Y-85729400D02*
X131697367Y-85657971D01*
X131697367Y-85657971D02*
X131625938Y-85515114D01*
X131625938Y-85515114D02*
X131554510Y-85229400D01*
X131554510Y-85229400D02*
X131554510Y-84872257D01*
X131554510Y-84872257D02*
X131625938Y-84586542D01*
X131625938Y-84586542D02*
X131697367Y-84443685D01*
X131697367Y-84443685D02*
X131768796Y-84372257D01*
X131768796Y-84372257D02*
X131911653Y-84300828D01*
X132983081Y-84443685D02*
X133054509Y-84372257D01*
X133054509Y-84372257D02*
X133197367Y-84300828D01*
X133197367Y-84300828D02*
X133554509Y-84300828D01*
X133554509Y-84300828D02*
X133697367Y-84372257D01*
X133697367Y-84372257D02*
X133768795Y-84443685D01*
X133768795Y-84443685D02*
X133840224Y-84586542D01*
X133840224Y-84586542D02*
X133840224Y-84729400D01*
X133840224Y-84729400D02*
X133768795Y-84943685D01*
X133768795Y-84943685D02*
X132911652Y-85800828D01*
X132911652Y-85800828D02*
X133840224Y-85800828D01*
X135197366Y-84300828D02*
X134483080Y-84300828D01*
X134483080Y-84300828D02*
X134411652Y-85015114D01*
X134411652Y-85015114D02*
X134483080Y-84943685D01*
X134483080Y-84943685D02*
X134625938Y-84872257D01*
X134625938Y-84872257D02*
X134983080Y-84872257D01*
X134983080Y-84872257D02*
X135125938Y-84943685D01*
X135125938Y-84943685D02*
X135197366Y-85015114D01*
X135197366Y-85015114D02*
X135268795Y-85157971D01*
X135268795Y-85157971D02*
X135268795Y-85515114D01*
X135268795Y-85515114D02*
X135197366Y-85657971D01*
X135197366Y-85657971D02*
X135125938Y-85729400D01*
X135125938Y-85729400D02*
X134983080Y-85800828D01*
X134983080Y-85800828D02*
X134625938Y-85800828D01*
X134625938Y-85800828D02*
X134483080Y-85729400D01*
X134483080Y-85729400D02*
X134411652Y-85657971D01*
D10*
X159170112Y-78846009D02*
X159312969Y-78893628D01*
X159312969Y-78893628D02*
X159360588Y-78941247D01*
X159360588Y-78941247D02*
X159408207Y-79036485D01*
X159408207Y-79036485D02*
X159408207Y-79179342D01*
X159408207Y-79179342D02*
X159360588Y-79274580D01*
X159360588Y-79274580D02*
X159312969Y-79322200D01*
X159312969Y-79322200D02*
X159217731Y-79369819D01*
X159217731Y-79369819D02*
X158836779Y-79369819D01*
X158836779Y-79369819D02*
X158836779Y-78369819D01*
X158836779Y-78369819D02*
X159170112Y-78369819D01*
X159170112Y-78369819D02*
X159265350Y-78417438D01*
X159265350Y-78417438D02*
X159312969Y-78465057D01*
X159312969Y-78465057D02*
X159360588Y-78560295D01*
X159360588Y-78560295D02*
X159360588Y-78655533D01*
X159360588Y-78655533D02*
X159312969Y-78750771D01*
X159312969Y-78750771D02*
X159265350Y-78798390D01*
X159265350Y-78798390D02*
X159170112Y-78846009D01*
X159170112Y-78846009D02*
X158836779Y-78846009D01*
X160265350Y-78703152D02*
X160265350Y-79369819D01*
X159836779Y-78703152D02*
X159836779Y-79226961D01*
X159836779Y-79226961D02*
X159884398Y-79322200D01*
X159884398Y-79322200D02*
X159979636Y-79369819D01*
X159979636Y-79369819D02*
X160122493Y-79369819D01*
X160122493Y-79369819D02*
X160217731Y-79322200D01*
X160217731Y-79322200D02*
X160265350Y-79274580D01*
X160598684Y-78703152D02*
X160979636Y-78703152D01*
X160741541Y-78369819D02*
X160741541Y-79226961D01*
X160741541Y-79226961D02*
X160789160Y-79322200D01*
X160789160Y-79322200D02*
X160884398Y-79369819D01*
X160884398Y-79369819D02*
X160979636Y-79369819D01*
X161170113Y-78703152D02*
X161551065Y-78703152D01*
X161312970Y-78369819D02*
X161312970Y-79226961D01*
X161312970Y-79226961D02*
X161360589Y-79322200D01*
X161360589Y-79322200D02*
X161455827Y-79369819D01*
X161455827Y-79369819D02*
X161551065Y-79369819D01*
X162027256Y-79369819D02*
X161932018Y-79322200D01*
X161932018Y-79322200D02*
X161884399Y-79274580D01*
X161884399Y-79274580D02*
X161836780Y-79179342D01*
X161836780Y-79179342D02*
X161836780Y-78893628D01*
X161836780Y-78893628D02*
X161884399Y-78798390D01*
X161884399Y-78798390D02*
X161932018Y-78750771D01*
X161932018Y-78750771D02*
X162027256Y-78703152D01*
X162027256Y-78703152D02*
X162170113Y-78703152D01*
X162170113Y-78703152D02*
X162265351Y-78750771D01*
X162265351Y-78750771D02*
X162312970Y-78798390D01*
X162312970Y-78798390D02*
X162360589Y-78893628D01*
X162360589Y-78893628D02*
X162360589Y-79179342D01*
X162360589Y-79179342D02*
X162312970Y-79274580D01*
X162312970Y-79274580D02*
X162265351Y-79322200D01*
X162265351Y-79322200D02*
X162170113Y-79369819D01*
X162170113Y-79369819D02*
X162027256Y-79369819D01*
X162789161Y-78703152D02*
X162789161Y-79369819D01*
X162789161Y-78798390D02*
X162836780Y-78750771D01*
X162836780Y-78750771D02*
X162932018Y-78703152D01*
X162932018Y-78703152D02*
X163074875Y-78703152D01*
X163074875Y-78703152D02*
X163170113Y-78750771D01*
X163170113Y-78750771D02*
X163217732Y-78846009D01*
X163217732Y-78846009D02*
X163217732Y-79369819D01*
X142360588Y-71417438D02*
X142265350Y-71369819D01*
X142265350Y-71369819D02*
X142122493Y-71369819D01*
X142122493Y-71369819D02*
X141979636Y-71417438D01*
X141979636Y-71417438D02*
X141884398Y-71512676D01*
X141884398Y-71512676D02*
X141836779Y-71607914D01*
X141836779Y-71607914D02*
X141789160Y-71798390D01*
X141789160Y-71798390D02*
X141789160Y-71941247D01*
X141789160Y-71941247D02*
X141836779Y-72131723D01*
X141836779Y-72131723D02*
X141884398Y-72226961D01*
X141884398Y-72226961D02*
X141979636Y-72322200D01*
X141979636Y-72322200D02*
X142122493Y-72369819D01*
X142122493Y-72369819D02*
X142217731Y-72369819D01*
X142217731Y-72369819D02*
X142360588Y-72322200D01*
X142360588Y-72322200D02*
X142408207Y-72274580D01*
X142408207Y-72274580D02*
X142408207Y-71941247D01*
X142408207Y-71941247D02*
X142217731Y-71941247D01*
X142836779Y-72369819D02*
X142836779Y-71369819D01*
X142836779Y-71369819D02*
X143408207Y-72369819D01*
X143408207Y-72369819D02*
X143408207Y-71369819D01*
X143884398Y-72369819D02*
X143884398Y-71369819D01*
X143884398Y-71369819D02*
X144122493Y-71369819D01*
X144122493Y-71369819D02*
X144265350Y-71417438D01*
X144265350Y-71417438D02*
X144360588Y-71512676D01*
X144360588Y-71512676D02*
X144408207Y-71607914D01*
X144408207Y-71607914D02*
X144455826Y-71798390D01*
X144455826Y-71798390D02*
X144455826Y-71941247D01*
X144455826Y-71941247D02*
X144408207Y-72131723D01*
X144408207Y-72131723D02*
X144360588Y-72226961D01*
X144360588Y-72226961D02*
X144265350Y-72322200D01*
X144265350Y-72322200D02*
X144122493Y-72369819D01*
X144122493Y-72369819D02*
X143884398Y-72369819D01*
X141846009Y-64829887D02*
X141893628Y-64687030D01*
X141893628Y-64687030D02*
X141941247Y-64639411D01*
X141941247Y-64639411D02*
X142036485Y-64591792D01*
X142036485Y-64591792D02*
X142179342Y-64591792D01*
X142179342Y-64591792D02*
X142274580Y-64639411D01*
X142274580Y-64639411D02*
X142322200Y-64687030D01*
X142322200Y-64687030D02*
X142369819Y-64782268D01*
X142369819Y-64782268D02*
X142369819Y-65163220D01*
X142369819Y-65163220D02*
X141369819Y-65163220D01*
X141369819Y-65163220D02*
X141369819Y-64829887D01*
X141369819Y-64829887D02*
X141417438Y-64734649D01*
X141417438Y-64734649D02*
X141465057Y-64687030D01*
X141465057Y-64687030D02*
X141560295Y-64639411D01*
X141560295Y-64639411D02*
X141655533Y-64639411D01*
X141655533Y-64639411D02*
X141750771Y-64687030D01*
X141750771Y-64687030D02*
X141798390Y-64734649D01*
X141798390Y-64734649D02*
X141846009Y-64829887D01*
X141846009Y-64829887D02*
X141846009Y-65163220D01*
X141703152Y-63734649D02*
X142369819Y-63734649D01*
X141703152Y-64163220D02*
X142226961Y-64163220D01*
X142226961Y-64163220D02*
X142322200Y-64115601D01*
X142322200Y-64115601D02*
X142369819Y-64020363D01*
X142369819Y-64020363D02*
X142369819Y-63877506D01*
X142369819Y-63877506D02*
X142322200Y-63782268D01*
X142322200Y-63782268D02*
X142274580Y-63734649D01*
X141703152Y-63401315D02*
X141703152Y-63020363D01*
X141369819Y-63258458D02*
X142226961Y-63258458D01*
X142226961Y-63258458D02*
X142322200Y-63210839D01*
X142322200Y-63210839D02*
X142369819Y-63115601D01*
X142369819Y-63115601D02*
X142369819Y-63020363D01*
X141703152Y-62829886D02*
X141703152Y-62448934D01*
X141369819Y-62687029D02*
X142226961Y-62687029D01*
X142226961Y-62687029D02*
X142322200Y-62639410D01*
X142322200Y-62639410D02*
X142369819Y-62544172D01*
X142369819Y-62544172D02*
X142369819Y-62448934D01*
X142369819Y-61972743D02*
X142322200Y-62067981D01*
X142322200Y-62067981D02*
X142274580Y-62115600D01*
X142274580Y-62115600D02*
X142179342Y-62163219D01*
X142179342Y-62163219D02*
X141893628Y-62163219D01*
X141893628Y-62163219D02*
X141798390Y-62115600D01*
X141798390Y-62115600D02*
X141750771Y-62067981D01*
X141750771Y-62067981D02*
X141703152Y-61972743D01*
X141703152Y-61972743D02*
X141703152Y-61829886D01*
X141703152Y-61829886D02*
X141750771Y-61734648D01*
X141750771Y-61734648D02*
X141798390Y-61687029D01*
X141798390Y-61687029D02*
X141893628Y-61639410D01*
X141893628Y-61639410D02*
X142179342Y-61639410D01*
X142179342Y-61639410D02*
X142274580Y-61687029D01*
X142274580Y-61687029D02*
X142322200Y-61734648D01*
X142322200Y-61734648D02*
X142369819Y-61829886D01*
X142369819Y-61829886D02*
X142369819Y-61972743D01*
X141703152Y-61210838D02*
X142369819Y-61210838D01*
X141798390Y-61210838D02*
X141750771Y-61163219D01*
X141750771Y-61163219D02*
X141703152Y-61067981D01*
X141703152Y-61067981D02*
X141703152Y-60925124D01*
X141703152Y-60925124D02*
X141750771Y-60829886D01*
X141750771Y-60829886D02*
X141846009Y-60782267D01*
X141846009Y-60782267D02*
X142369819Y-60782267D01*
X158691667Y-86864700D02*
X158834524Y-86912319D01*
X158834524Y-86912319D02*
X159072619Y-86912319D01*
X159072619Y-86912319D02*
X159167857Y-86864700D01*
X159167857Y-86864700D02*
X159215476Y-86817080D01*
X159215476Y-86817080D02*
X159263095Y-86721842D01*
X159263095Y-86721842D02*
X159263095Y-86626604D01*
X159263095Y-86626604D02*
X159215476Y-86531366D01*
X159215476Y-86531366D02*
X159167857Y-86483747D01*
X159167857Y-86483747D02*
X159072619Y-86436128D01*
X159072619Y-86436128D02*
X158882143Y-86388509D01*
X158882143Y-86388509D02*
X158786905Y-86340890D01*
X158786905Y-86340890D02*
X158739286Y-86293271D01*
X158739286Y-86293271D02*
X158691667Y-86198033D01*
X158691667Y-86198033D02*
X158691667Y-86102795D01*
X158691667Y-86102795D02*
X158739286Y-86007557D01*
X158739286Y-86007557D02*
X158786905Y-85959938D01*
X158786905Y-85959938D02*
X158882143Y-85912319D01*
X158882143Y-85912319D02*
X159120238Y-85912319D01*
X159120238Y-85912319D02*
X159263095Y-85959938D01*
X159596429Y-85912319D02*
X159834524Y-86912319D01*
X159834524Y-86912319D02*
X160025000Y-86198033D01*
X160025000Y-86198033D02*
X160215476Y-86912319D01*
X160215476Y-86912319D02*
X160453572Y-85912319D01*
X161358333Y-86912319D02*
X160786905Y-86912319D01*
X161072619Y-86912319D02*
X161072619Y-85912319D01*
X161072619Y-85912319D02*
X160977381Y-86055176D01*
X160977381Y-86055176D02*
X160882143Y-86150414D01*
X160882143Y-86150414D02*
X160786905Y-86198033D01*
X152761905Y-60204819D02*
X152761905Y-59204819D01*
X152761905Y-59204819D02*
X153142857Y-59204819D01*
X153142857Y-59204819D02*
X153238095Y-59252438D01*
X153238095Y-59252438D02*
X153285714Y-59300057D01*
X153285714Y-59300057D02*
X153333333Y-59395295D01*
X153333333Y-59395295D02*
X153333333Y-59538152D01*
X153333333Y-59538152D02*
X153285714Y-59633390D01*
X153285714Y-59633390D02*
X153238095Y-59681009D01*
X153238095Y-59681009D02*
X153142857Y-59728628D01*
X153142857Y-59728628D02*
X152761905Y-59728628D01*
X153666667Y-59204819D02*
X153904762Y-60204819D01*
X153904762Y-60204819D02*
X154095238Y-59490533D01*
X154095238Y-59490533D02*
X154285714Y-60204819D01*
X154285714Y-60204819D02*
X154523810Y-59204819D01*
X155476190Y-60204819D02*
X155142857Y-59728628D01*
X154904762Y-60204819D02*
X154904762Y-59204819D01*
X154904762Y-59204819D02*
X155285714Y-59204819D01*
X155285714Y-59204819D02*
X155380952Y-59252438D01*
X155380952Y-59252438D02*
X155428571Y-59300057D01*
X155428571Y-59300057D02*
X155476190Y-59395295D01*
X155476190Y-59395295D02*
X155476190Y-59538152D01*
X155476190Y-59538152D02*
X155428571Y-59633390D01*
X155428571Y-59633390D02*
X155380952Y-59681009D01*
X155380952Y-59681009D02*
X155285714Y-59728628D01*
X155285714Y-59728628D02*
X154904762Y-59728628D01*
X155666667Y-60300057D02*
X156428571Y-60300057D01*
X156857143Y-59204819D02*
X157047619Y-59204819D01*
X157047619Y-59204819D02*
X157142857Y-59252438D01*
X157142857Y-59252438D02*
X157238095Y-59347676D01*
X157238095Y-59347676D02*
X157285714Y-59538152D01*
X157285714Y-59538152D02*
X157285714Y-59871485D01*
X157285714Y-59871485D02*
X157238095Y-60061961D01*
X157238095Y-60061961D02*
X157142857Y-60157200D01*
X157142857Y-60157200D02*
X157047619Y-60204819D01*
X157047619Y-60204819D02*
X156857143Y-60204819D01*
X156857143Y-60204819D02*
X156761905Y-60157200D01*
X156761905Y-60157200D02*
X156666667Y-60061961D01*
X156666667Y-60061961D02*
X156619048Y-59871485D01*
X156619048Y-59871485D02*
X156619048Y-59538152D01*
X156619048Y-59538152D02*
X156666667Y-59347676D01*
X156666667Y-59347676D02*
X156761905Y-59252438D01*
X156761905Y-59252438D02*
X156857143Y-59204819D01*
X157714286Y-60204819D02*
X157714286Y-59204819D01*
X157714286Y-59204819D02*
X158285714Y-60204819D01*
X158285714Y-60204819D02*
X158285714Y-59204819D01*
X159285714Y-60204819D02*
X158714286Y-60204819D01*
X159000000Y-60204819D02*
X159000000Y-59204819D01*
X159000000Y-59204819D02*
X158904762Y-59347676D01*
X158904762Y-59347676D02*
X158809524Y-59442914D01*
X158809524Y-59442914D02*
X158714286Y-59490533D01*
X124023095Y-44302319D02*
X124023095Y-45111842D01*
X124023095Y-45111842D02*
X124070714Y-45207080D01*
X124070714Y-45207080D02*
X124118333Y-45254700D01*
X124118333Y-45254700D02*
X124213571Y-45302319D01*
X124213571Y-45302319D02*
X124404047Y-45302319D01*
X124404047Y-45302319D02*
X124499285Y-45254700D01*
X124499285Y-45254700D02*
X124546904Y-45207080D01*
X124546904Y-45207080D02*
X124594523Y-45111842D01*
X124594523Y-45111842D02*
X124594523Y-44302319D01*
X125594523Y-45302319D02*
X125023095Y-45302319D01*
X125308809Y-45302319D02*
X125308809Y-44302319D01*
X125308809Y-44302319D02*
X125213571Y-44445176D01*
X125213571Y-44445176D02*
X125118333Y-44540414D01*
X125118333Y-44540414D02*
X125023095Y-44588033D01*
X170929819Y-80488095D02*
X169929819Y-80488095D01*
X169929819Y-80488095D02*
X170929819Y-79916667D01*
X170929819Y-79916667D02*
X169929819Y-79916667D01*
X170882200Y-79059524D02*
X170929819Y-79154762D01*
X170929819Y-79154762D02*
X170929819Y-79345238D01*
X170929819Y-79345238D02*
X170882200Y-79440476D01*
X170882200Y-79440476D02*
X170786961Y-79488095D01*
X170786961Y-79488095D02*
X170406009Y-79488095D01*
X170406009Y-79488095D02*
X170310771Y-79440476D01*
X170310771Y-79440476D02*
X170263152Y-79345238D01*
X170263152Y-79345238D02*
X170263152Y-79154762D01*
X170263152Y-79154762D02*
X170310771Y-79059524D01*
X170310771Y-79059524D02*
X170406009Y-79011905D01*
X170406009Y-79011905D02*
X170501247Y-79011905D01*
X170501247Y-79011905D02*
X170596485Y-79488095D01*
X170929819Y-78440476D02*
X170882200Y-78535714D01*
X170882200Y-78535714D02*
X170834580Y-78583333D01*
X170834580Y-78583333D02*
X170739342Y-78630952D01*
X170739342Y-78630952D02*
X170453628Y-78630952D01*
X170453628Y-78630952D02*
X170358390Y-78583333D01*
X170358390Y-78583333D02*
X170310771Y-78535714D01*
X170310771Y-78535714D02*
X170263152Y-78440476D01*
X170263152Y-78440476D02*
X170263152Y-78297619D01*
X170263152Y-78297619D02*
X170310771Y-78202381D01*
X170310771Y-78202381D02*
X170358390Y-78154762D01*
X170358390Y-78154762D02*
X170453628Y-78107143D01*
X170453628Y-78107143D02*
X170739342Y-78107143D01*
X170739342Y-78107143D02*
X170834580Y-78154762D01*
X170834580Y-78154762D02*
X170882200Y-78202381D01*
X170882200Y-78202381D02*
X170929819Y-78297619D01*
X170929819Y-78297619D02*
X170929819Y-78440476D01*
X170263152Y-77678571D02*
X171263152Y-77678571D01*
X170310771Y-77678571D02*
X170263152Y-77583333D01*
X170263152Y-77583333D02*
X170263152Y-77392857D01*
X170263152Y-77392857D02*
X170310771Y-77297619D01*
X170310771Y-77297619D02*
X170358390Y-77250000D01*
X170358390Y-77250000D02*
X170453628Y-77202381D01*
X170453628Y-77202381D02*
X170739342Y-77202381D01*
X170739342Y-77202381D02*
X170834580Y-77250000D01*
X170834580Y-77250000D02*
X170882200Y-77297619D01*
X170882200Y-77297619D02*
X170929819Y-77392857D01*
X170929819Y-77392857D02*
X170929819Y-77583333D01*
X170929819Y-77583333D02*
X170882200Y-77678571D01*
X170929819Y-76773809D02*
X170263152Y-76773809D01*
X169929819Y-76773809D02*
X169977438Y-76821428D01*
X169977438Y-76821428D02*
X170025057Y-76773809D01*
X170025057Y-76773809D02*
X169977438Y-76726190D01*
X169977438Y-76726190D02*
X169929819Y-76773809D01*
X169929819Y-76773809D02*
X170025057Y-76773809D01*
X170929819Y-76392857D02*
X170263152Y-75869048D01*
X170263152Y-76392857D02*
X170929819Y-75869048D01*
X170882200Y-75107143D02*
X170929819Y-75202381D01*
X170929819Y-75202381D02*
X170929819Y-75392857D01*
X170929819Y-75392857D02*
X170882200Y-75488095D01*
X170882200Y-75488095D02*
X170786961Y-75535714D01*
X170786961Y-75535714D02*
X170406009Y-75535714D01*
X170406009Y-75535714D02*
X170310771Y-75488095D01*
X170310771Y-75488095D02*
X170263152Y-75392857D01*
X170263152Y-75392857D02*
X170263152Y-75202381D01*
X170263152Y-75202381D02*
X170310771Y-75107143D01*
X170310771Y-75107143D02*
X170406009Y-75059524D01*
X170406009Y-75059524D02*
X170501247Y-75059524D01*
X170501247Y-75059524D02*
X170596485Y-75535714D01*
X170929819Y-74488095D02*
X170882200Y-74583333D01*
X170882200Y-74583333D02*
X170786961Y-74630952D01*
X170786961Y-74630952D02*
X169929819Y-74630952D01*
X170929819Y-74107142D02*
X169929819Y-74107142D01*
X170263152Y-73630952D02*
X170929819Y-73630952D01*
X170358390Y-73630952D02*
X170310771Y-73583333D01*
X170310771Y-73583333D02*
X170263152Y-73488095D01*
X170263152Y-73488095D02*
X170263152Y-73345238D01*
X170263152Y-73345238D02*
X170310771Y-73250000D01*
X170310771Y-73250000D02*
X170406009Y-73202381D01*
X170406009Y-73202381D02*
X170929819Y-73202381D01*
X170263152Y-72869047D02*
X170263152Y-72488095D01*
X169929819Y-72726190D02*
X170786961Y-72726190D01*
X170786961Y-72726190D02*
X170882200Y-72678571D01*
X170882200Y-72678571D02*
X170929819Y-72583333D01*
X170929819Y-72583333D02*
X170929819Y-72488095D01*
X170882200Y-71773809D02*
X170929819Y-71869047D01*
X170929819Y-71869047D02*
X170929819Y-72059523D01*
X170929819Y-72059523D02*
X170882200Y-72154761D01*
X170882200Y-72154761D02*
X170786961Y-72202380D01*
X170786961Y-72202380D02*
X170406009Y-72202380D01*
X170406009Y-72202380D02*
X170310771Y-72154761D01*
X170310771Y-72154761D02*
X170263152Y-72059523D01*
X170263152Y-72059523D02*
X170263152Y-71869047D01*
X170263152Y-71869047D02*
X170310771Y-71773809D01*
X170310771Y-71773809D02*
X170406009Y-71726190D01*
X170406009Y-71726190D02*
X170501247Y-71726190D01*
X170501247Y-71726190D02*
X170596485Y-72202380D01*
X170929819Y-71297618D02*
X170263152Y-71297618D01*
X170453628Y-71297618D02*
X170358390Y-71249999D01*
X170358390Y-71249999D02*
X170310771Y-71202380D01*
X170310771Y-71202380D02*
X170263152Y-71107142D01*
X170263152Y-71107142D02*
X170263152Y-71011904D01*
X170263152Y-70821427D02*
X170263152Y-70440475D01*
X170929819Y-70678570D02*
X170072676Y-70678570D01*
X170072676Y-70678570D02*
X169977438Y-70630951D01*
X169977438Y-70630951D02*
X169929819Y-70535713D01*
X169929819Y-70535713D02*
X169929819Y-70440475D01*
X170929819Y-69678570D02*
X170406009Y-69678570D01*
X170406009Y-69678570D02*
X170310771Y-69726189D01*
X170310771Y-69726189D02*
X170263152Y-69821427D01*
X170263152Y-69821427D02*
X170263152Y-70011903D01*
X170263152Y-70011903D02*
X170310771Y-70107141D01*
X170882200Y-69678570D02*
X170929819Y-69773808D01*
X170929819Y-69773808D02*
X170929819Y-70011903D01*
X170929819Y-70011903D02*
X170882200Y-70107141D01*
X170882200Y-70107141D02*
X170786961Y-70154760D01*
X170786961Y-70154760D02*
X170691723Y-70154760D01*
X170691723Y-70154760D02*
X170596485Y-70107141D01*
X170596485Y-70107141D02*
X170548866Y-70011903D01*
X170548866Y-70011903D02*
X170548866Y-69773808D01*
X170548866Y-69773808D02*
X170501247Y-69678570D01*
X170882200Y-68773808D02*
X170929819Y-68869046D01*
X170929819Y-68869046D02*
X170929819Y-69059522D01*
X170929819Y-69059522D02*
X170882200Y-69154760D01*
X170882200Y-69154760D02*
X170834580Y-69202379D01*
X170834580Y-69202379D02*
X170739342Y-69249998D01*
X170739342Y-69249998D02*
X170453628Y-69249998D01*
X170453628Y-69249998D02*
X170358390Y-69202379D01*
X170358390Y-69202379D02*
X170310771Y-69154760D01*
X170310771Y-69154760D02*
X170263152Y-69059522D01*
X170263152Y-69059522D02*
X170263152Y-68869046D01*
X170263152Y-68869046D02*
X170310771Y-68773808D01*
X170882200Y-67964284D02*
X170929819Y-68059522D01*
X170929819Y-68059522D02*
X170929819Y-68249998D01*
X170929819Y-68249998D02*
X170882200Y-68345236D01*
X170882200Y-68345236D02*
X170786961Y-68392855D01*
X170786961Y-68392855D02*
X170406009Y-68392855D01*
X170406009Y-68392855D02*
X170310771Y-68345236D01*
X170310771Y-68345236D02*
X170263152Y-68249998D01*
X170263152Y-68249998D02*
X170263152Y-68059522D01*
X170263152Y-68059522D02*
X170310771Y-67964284D01*
X170310771Y-67964284D02*
X170406009Y-67916665D01*
X170406009Y-67916665D02*
X170501247Y-67916665D01*
X170501247Y-67916665D02*
X170596485Y-68392855D01*
X170929819Y-66964284D02*
X170929819Y-67535712D01*
X170929819Y-67249998D02*
X169929819Y-67249998D01*
X169929819Y-67249998D02*
X170072676Y-67345236D01*
X170072676Y-67345236D02*
X170167914Y-67440474D01*
X170167914Y-67440474D02*
X170215533Y-67535712D01*
X163454819Y-75666666D02*
X162978628Y-75999999D01*
X163454819Y-76238094D02*
X162454819Y-76238094D01*
X162454819Y-76238094D02*
X162454819Y-75857142D01*
X162454819Y-75857142D02*
X162502438Y-75761904D01*
X162502438Y-75761904D02*
X162550057Y-75714285D01*
X162550057Y-75714285D02*
X162645295Y-75666666D01*
X162645295Y-75666666D02*
X162788152Y-75666666D01*
X162788152Y-75666666D02*
X162883390Y-75714285D01*
X162883390Y-75714285D02*
X162931009Y-75761904D01*
X162931009Y-75761904D02*
X162978628Y-75857142D01*
X162978628Y-75857142D02*
X162978628Y-76238094D01*
X163454819Y-74714285D02*
X163454819Y-75285713D01*
X163454819Y-74999999D02*
X162454819Y-74999999D01*
X162454819Y-74999999D02*
X162597676Y-75095237D01*
X162597676Y-75095237D02*
X162692914Y-75190475D01*
X162692914Y-75190475D02*
X162740533Y-75285713D01*
X127738095Y-77454819D02*
X127738095Y-76454819D01*
X127738095Y-76931009D02*
X128309523Y-76931009D01*
X128309523Y-77454819D02*
X128309523Y-76454819D01*
X129309523Y-77454819D02*
X128738095Y-77454819D01*
X129023809Y-77454819D02*
X129023809Y-76454819D01*
X129023809Y-76454819D02*
X128928571Y-76597676D01*
X128928571Y-76597676D02*
X128833333Y-76692914D01*
X128833333Y-76692914D02*
X128738095Y-76740533D01*
X147238095Y-63454819D02*
X147238095Y-62454819D01*
X147238095Y-62931009D02*
X147809523Y-62931009D01*
X147809523Y-63454819D02*
X147809523Y-62454819D01*
X148238095Y-62550057D02*
X148285714Y-62502438D01*
X148285714Y-62502438D02*
X148380952Y-62454819D01*
X148380952Y-62454819D02*
X148619047Y-62454819D01*
X148619047Y-62454819D02*
X148714285Y-62502438D01*
X148714285Y-62502438D02*
X148761904Y-62550057D01*
X148761904Y-62550057D02*
X148809523Y-62645295D01*
X148809523Y-62645295D02*
X148809523Y-62740533D01*
X148809523Y-62740533D02*
X148761904Y-62883390D01*
X148761904Y-62883390D02*
X148190476Y-63454819D01*
X148190476Y-63454819D02*
X148809523Y-63454819D01*
X175238095Y-86954819D02*
X175238095Y-85954819D01*
X175238095Y-86431009D02*
X175809523Y-86431009D01*
X175809523Y-86954819D02*
X175809523Y-85954819D01*
X176190476Y-85954819D02*
X176809523Y-85954819D01*
X176809523Y-85954819D02*
X176476190Y-86335771D01*
X176476190Y-86335771D02*
X176619047Y-86335771D01*
X176619047Y-86335771D02*
X176714285Y-86383390D01*
X176714285Y-86383390D02*
X176761904Y-86431009D01*
X176761904Y-86431009D02*
X176809523Y-86526247D01*
X176809523Y-86526247D02*
X176809523Y-86764342D01*
X176809523Y-86764342D02*
X176761904Y-86859580D01*
X176761904Y-86859580D02*
X176714285Y-86907200D01*
X176714285Y-86907200D02*
X176619047Y-86954819D01*
X176619047Y-86954819D02*
X176333333Y-86954819D01*
X176333333Y-86954819D02*
X176238095Y-86907200D01*
X176238095Y-86907200D02*
X176190476Y-86859580D01*
X156884819Y-81095238D02*
X156408628Y-81428571D01*
X156884819Y-81666666D02*
X155884819Y-81666666D01*
X155884819Y-81666666D02*
X155884819Y-81285714D01*
X155884819Y-81285714D02*
X155932438Y-81190476D01*
X155932438Y-81190476D02*
X155980057Y-81142857D01*
X155980057Y-81142857D02*
X156075295Y-81095238D01*
X156075295Y-81095238D02*
X156218152Y-81095238D01*
X156218152Y-81095238D02*
X156313390Y-81142857D01*
X156313390Y-81142857D02*
X156361009Y-81190476D01*
X156361009Y-81190476D02*
X156408628Y-81285714D01*
X156408628Y-81285714D02*
X156408628Y-81666666D01*
X155884819Y-80809523D02*
X156884819Y-80476190D01*
X156884819Y-80476190D02*
X155884819Y-80142857D01*
X156884819Y-79285714D02*
X156884819Y-79857142D01*
X156884819Y-79571428D02*
X155884819Y-79571428D01*
X155884819Y-79571428D02*
X156027676Y-79666666D01*
X156027676Y-79666666D02*
X156122914Y-79761904D01*
X156122914Y-79761904D02*
X156170533Y-79857142D01*
X172131666Y-63699829D02*
X172131666Y-64414114D01*
X172131666Y-64414114D02*
X172084047Y-64556971D01*
X172084047Y-64556971D02*
X171988809Y-64652210D01*
X171988809Y-64652210D02*
X171845952Y-64699829D01*
X171845952Y-64699829D02*
X171750714Y-64699829D01*
X173131666Y-64699829D02*
X172560238Y-64699829D01*
X172845952Y-64699829D02*
X172845952Y-63699829D01*
X172845952Y-63699829D02*
X172750714Y-63842686D01*
X172750714Y-63842686D02*
X172655476Y-63937924D01*
X172655476Y-63937924D02*
X172560238Y-63985543D01*
X150761904Y-59252438D02*
X150666666Y-59204819D01*
X150666666Y-59204819D02*
X150523809Y-59204819D01*
X150523809Y-59204819D02*
X150380952Y-59252438D01*
X150380952Y-59252438D02*
X150285714Y-59347676D01*
X150285714Y-59347676D02*
X150238095Y-59442914D01*
X150238095Y-59442914D02*
X150190476Y-59633390D01*
X150190476Y-59633390D02*
X150190476Y-59776247D01*
X150190476Y-59776247D02*
X150238095Y-59966723D01*
X150238095Y-59966723D02*
X150285714Y-60061961D01*
X150285714Y-60061961D02*
X150380952Y-60157200D01*
X150380952Y-60157200D02*
X150523809Y-60204819D01*
X150523809Y-60204819D02*
X150619047Y-60204819D01*
X150619047Y-60204819D02*
X150761904Y-60157200D01*
X150761904Y-60157200D02*
X150809523Y-60109580D01*
X150809523Y-60109580D02*
X150809523Y-59776247D01*
X150809523Y-59776247D02*
X150619047Y-59776247D01*
X151238095Y-60204819D02*
X151238095Y-59204819D01*
X151238095Y-59204819D02*
X151809523Y-60204819D01*
X151809523Y-60204819D02*
X151809523Y-59204819D01*
X152285714Y-60204819D02*
X152285714Y-59204819D01*
X152285714Y-59204819D02*
X152523809Y-59204819D01*
X152523809Y-59204819D02*
X152666666Y-59252438D01*
X152666666Y-59252438D02*
X152761904Y-59347676D01*
X152761904Y-59347676D02*
X152809523Y-59442914D01*
X152809523Y-59442914D02*
X152857142Y-59633390D01*
X152857142Y-59633390D02*
X152857142Y-59776247D01*
X152857142Y-59776247D02*
X152809523Y-59966723D01*
X152809523Y-59966723D02*
X152761904Y-60061961D01*
X152761904Y-60061961D02*
X152666666Y-60157200D01*
X152666666Y-60157200D02*
X152523809Y-60204819D01*
X152523809Y-60204819D02*
X152285714Y-60204819D01*
X153809523Y-60204819D02*
X153238095Y-60204819D01*
X153523809Y-60204819D02*
X153523809Y-59204819D01*
X153523809Y-59204819D02*
X153428571Y-59347676D01*
X153428571Y-59347676D02*
X153333333Y-59442914D01*
X153333333Y-59442914D02*
X153238095Y-59490533D01*
X147761905Y-56454819D02*
X147761905Y-55454819D01*
X147761905Y-55454819D02*
X148142857Y-55454819D01*
X148142857Y-55454819D02*
X148238095Y-55502438D01*
X148238095Y-55502438D02*
X148285714Y-55550057D01*
X148285714Y-55550057D02*
X148333333Y-55645295D01*
X148333333Y-55645295D02*
X148333333Y-55788152D01*
X148333333Y-55788152D02*
X148285714Y-55883390D01*
X148285714Y-55883390D02*
X148238095Y-55931009D01*
X148238095Y-55931009D02*
X148142857Y-55978628D01*
X148142857Y-55978628D02*
X147761905Y-55978628D01*
X148714286Y-56407200D02*
X148857143Y-56454819D01*
X148857143Y-56454819D02*
X149095238Y-56454819D01*
X149095238Y-56454819D02*
X149190476Y-56407200D01*
X149190476Y-56407200D02*
X149238095Y-56359580D01*
X149238095Y-56359580D02*
X149285714Y-56264342D01*
X149285714Y-56264342D02*
X149285714Y-56169104D01*
X149285714Y-56169104D02*
X149238095Y-56073866D01*
X149238095Y-56073866D02*
X149190476Y-56026247D01*
X149190476Y-56026247D02*
X149095238Y-55978628D01*
X149095238Y-55978628D02*
X148904762Y-55931009D01*
X148904762Y-55931009D02*
X148809524Y-55883390D01*
X148809524Y-55883390D02*
X148761905Y-55835771D01*
X148761905Y-55835771D02*
X148714286Y-55740533D01*
X148714286Y-55740533D02*
X148714286Y-55645295D01*
X148714286Y-55645295D02*
X148761905Y-55550057D01*
X148761905Y-55550057D02*
X148809524Y-55502438D01*
X148809524Y-55502438D02*
X148904762Y-55454819D01*
X148904762Y-55454819D02*
X149142857Y-55454819D01*
X149142857Y-55454819D02*
X149285714Y-55502438D01*
X149714286Y-55454819D02*
X149714286Y-56264342D01*
X149714286Y-56264342D02*
X149761905Y-56359580D01*
X149761905Y-56359580D02*
X149809524Y-56407200D01*
X149809524Y-56407200D02*
X149904762Y-56454819D01*
X149904762Y-56454819D02*
X150095238Y-56454819D01*
X150095238Y-56454819D02*
X150190476Y-56407200D01*
X150190476Y-56407200D02*
X150238095Y-56359580D01*
X150238095Y-56359580D02*
X150285714Y-56264342D01*
X150285714Y-56264342D02*
X150285714Y-55454819D01*
X151285714Y-56454819D02*
X150714286Y-56454819D01*
X151000000Y-56454819D02*
X151000000Y-55454819D01*
X151000000Y-55454819D02*
X150904762Y-55597676D01*
X150904762Y-55597676D02*
X150809524Y-55692914D01*
X150809524Y-55692914D02*
X150714286Y-55740533D01*
X155023333Y-66534819D02*
X154690000Y-66058628D01*
X154451905Y-66534819D02*
X154451905Y-65534819D01*
X154451905Y-65534819D02*
X154832857Y-65534819D01*
X154832857Y-65534819D02*
X154928095Y-65582438D01*
X154928095Y-65582438D02*
X154975714Y-65630057D01*
X154975714Y-65630057D02*
X155023333Y-65725295D01*
X155023333Y-65725295D02*
X155023333Y-65868152D01*
X155023333Y-65868152D02*
X154975714Y-65963390D01*
X154975714Y-65963390D02*
X154928095Y-66011009D01*
X154928095Y-66011009D02*
X154832857Y-66058628D01*
X154832857Y-66058628D02*
X154451905Y-66058628D01*
X155404286Y-65630057D02*
X155451905Y-65582438D01*
X155451905Y-65582438D02*
X155547143Y-65534819D01*
X155547143Y-65534819D02*
X155785238Y-65534819D01*
X155785238Y-65534819D02*
X155880476Y-65582438D01*
X155880476Y-65582438D02*
X155928095Y-65630057D01*
X155928095Y-65630057D02*
X155975714Y-65725295D01*
X155975714Y-65725295D02*
X155975714Y-65820533D01*
X155975714Y-65820533D02*
X155928095Y-65963390D01*
X155928095Y-65963390D02*
X155356667Y-66534819D01*
X155356667Y-66534819D02*
X155975714Y-66534819D01*
X159634761Y-77110057D02*
X159539523Y-77062438D01*
X159539523Y-77062438D02*
X159444285Y-76967200D01*
X159444285Y-76967200D02*
X159301428Y-76824342D01*
X159301428Y-76824342D02*
X159206190Y-76776723D01*
X159206190Y-76776723D02*
X159110952Y-76776723D01*
X159158571Y-77014819D02*
X159063333Y-76967200D01*
X159063333Y-76967200D02*
X158968095Y-76871961D01*
X158968095Y-76871961D02*
X158920476Y-76681485D01*
X158920476Y-76681485D02*
X158920476Y-76348152D01*
X158920476Y-76348152D02*
X158968095Y-76157676D01*
X158968095Y-76157676D02*
X159063333Y-76062438D01*
X159063333Y-76062438D02*
X159158571Y-76014819D01*
X159158571Y-76014819D02*
X159349047Y-76014819D01*
X159349047Y-76014819D02*
X159444285Y-76062438D01*
X159444285Y-76062438D02*
X159539523Y-76157676D01*
X159539523Y-76157676D02*
X159587142Y-76348152D01*
X159587142Y-76348152D02*
X159587142Y-76681485D01*
X159587142Y-76681485D02*
X159539523Y-76871961D01*
X159539523Y-76871961D02*
X159444285Y-76967200D01*
X159444285Y-76967200D02*
X159349047Y-77014819D01*
X159349047Y-77014819D02*
X159158571Y-77014819D01*
X160539523Y-77014819D02*
X159968095Y-77014819D01*
X160253809Y-77014819D02*
X160253809Y-76014819D01*
X160253809Y-76014819D02*
X160158571Y-76157676D01*
X160158571Y-76157676D02*
X160063333Y-76252914D01*
X160063333Y-76252914D02*
X159968095Y-76300533D01*
D12*
%TO.C,SW1*%
X163885000Y-89037500D02*
X163885000Y-86937500D01*
X163885000Y-84337500D02*
X163885000Y-83827500D01*
X163885000Y-83827500D02*
X163365000Y-83827500D01*
X163365000Y-87167500D02*
X163365000Y-86937500D01*
X163365000Y-87167500D02*
X162825000Y-87167500D01*
X163365000Y-84337500D02*
X163365000Y-83827500D01*
X161725000Y-87167500D02*
X158325000Y-87167500D01*
X157225000Y-87167500D02*
X156685000Y-87167500D01*
X156685000Y-87167500D02*
X156685000Y-86937500D01*
X156685000Y-84337500D02*
X156685000Y-83827500D01*
X156685000Y-83827500D02*
X156165000Y-83827500D01*
X156165000Y-89037500D02*
X156165000Y-86937500D01*
X156165000Y-84337500D02*
X156165000Y-83827500D01*
%TO.C,PWR_ON1*%
X154500000Y-56100000D02*
X154500000Y-58950000D01*
X154500000Y-56100000D02*
X157500000Y-56100000D01*
X154500000Y-58950000D02*
X157500000Y-58950000D01*
X157500000Y-56100000D02*
X157500000Y-58950000D01*
D13*
%TO.C,U1*%
X139500000Y-69850000D02*
X139500000Y-47150000D01*
X139500000Y-69850000D02*
X121500000Y-69850000D01*
X139500000Y-47150000D02*
X135000000Y-47150000D01*
X135000000Y-45850000D02*
X135000000Y-47150000D01*
X135000000Y-45850000D02*
X126000000Y-45850000D01*
X126000000Y-47150000D02*
X121500000Y-47150000D01*
X126000000Y-45850000D02*
X126000000Y-47150000D01*
X121500000Y-69850000D02*
X121500000Y-47150000D01*
D12*
%TO.C,NeopixelInterface1*%
X171475000Y-65880000D02*
X179515000Y-65880000D01*
X171475000Y-81620000D02*
X171475000Y-65880000D01*
X171475000Y-81620000D02*
X179515000Y-81620000D01*
X174347000Y-67013000D02*
X174347000Y-67013000D01*
X174347000Y-72013000D02*
X174347000Y-72013000D01*
X175095000Y-66664000D02*
X175095000Y-65880000D01*
X175095000Y-71664000D02*
X175095000Y-70335000D01*
X175095000Y-76620000D02*
X175095000Y-75335000D01*
X175095000Y-81620000D02*
X175095000Y-80380000D01*
X176095000Y-66664000D02*
X176095000Y-65880000D01*
X176095000Y-71664000D02*
X176095000Y-70335000D01*
X176095000Y-76620000D02*
X176095000Y-75335000D01*
X176095000Y-81620000D02*
X176095000Y-80380000D01*
X176843000Y-69986000D02*
X176843000Y-69986000D01*
X176843000Y-74986000D02*
X176843000Y-74986000D01*
X177395000Y-67830000D02*
X177395000Y-65880000D01*
X177395000Y-72830000D02*
X177395000Y-69169000D01*
X177395000Y-76620000D02*
X177395000Y-74169000D01*
X177395000Y-81620000D02*
X177395000Y-80380000D01*
X177565000Y-81860000D02*
X179755000Y-81860000D01*
X179515000Y-81620000D02*
X179515000Y-65880000D01*
X179755000Y-81860000D02*
X179755000Y-79910000D01*
X173634056Y-68499513D02*
G75*
G02*
X173701000Y-67992000I1960944J-487D01*
G01*
X173634056Y-73499513D02*
G75*
G02*
X173701000Y-72992000I1960944J-487D01*
G01*
X173701527Y-69006319D02*
G75*
G02*
X173635001Y-68499000I1893473J506319D01*
G01*
X173701527Y-74006319D02*
G75*
G02*
X173635001Y-73499000I1893473J506319D01*
G01*
X173719578Y-79072619D02*
G75*
G02*
X173720000Y-77926000I1875422J572619D01*
G01*
X173741080Y-67861288D02*
G75*
G02*
X173818001Y-67671001I1853620J-638612D01*
G01*
X173741080Y-72861288D02*
G75*
G02*
X173818001Y-72671001I1853620J-638612D01*
G01*
X173817741Y-69327306D02*
G75*
G02*
X173741000Y-69137000I1777259J827306D01*
G01*
X173817741Y-74327306D02*
G75*
G02*
X173741000Y-74137000I1777259J827306D01*
G01*
X173864174Y-67579348D02*
G75*
G02*
X173951004Y-67432003I1727326J-918652D01*
G01*
X173864174Y-72579348D02*
G75*
G02*
X173951004Y-72432003I1727326J-918652D01*
G01*
X173950683Y-69566370D02*
G75*
G02*
X173863995Y-69419002I1646417J1067670D01*
G01*
X173950683Y-74566370D02*
G75*
G02*
X173863995Y-74419002I1646417J1067670D01*
G01*
X173969249Y-67403521D02*
G75*
G02*
X174071002Y-67266001I1626651J-1097179D01*
G01*
X173969249Y-72403521D02*
G75*
G02*
X174071002Y-72266001I1626651J-1097179D01*
G01*
X174070623Y-69732548D02*
G75*
G02*
X173969000Y-69595000I1524377J1232548D01*
G01*
X174070623Y-74732548D02*
G75*
G02*
X173969000Y-74595000I1524377J1232548D01*
G01*
X174071659Y-67266072D02*
G75*
G02*
X174185000Y-67138000I1523441J-1234028D01*
G01*
X174071659Y-72266072D02*
G75*
G02*
X174185000Y-72138000I1523441J-1234028D01*
G01*
X174184262Y-69861133D02*
G75*
G02*
X174070999Y-69733000I1410838J1361233D01*
G01*
X174184262Y-74861133D02*
G75*
G02*
X174070999Y-74733000I1410838J1361233D01*
G01*
X174184903Y-67137714D02*
G75*
G02*
X174309000Y-67020000I1409897J-1362086D01*
G01*
X174184903Y-72137714D02*
G75*
G02*
X174309000Y-72020000I1409897J-1362086D01*
G01*
X174307988Y-69978798D02*
G75*
G02*
X174184000Y-69861000I1285412J1477098D01*
G01*
X174307988Y-74978798D02*
G75*
G02*
X174184000Y-74861000I1285412J1477098D01*
G01*
X174308636Y-67020127D02*
G75*
G02*
X174415000Y-66934000I1285964J-1479373D01*
G01*
X174308636Y-72020127D02*
G75*
G02*
X174415000Y-71934000I1285964J-1479373D01*
G01*
X174414305Y-70065174D02*
G75*
G02*
X174308000Y-69979000I1180295J1564674D01*
G01*
X174414305Y-75065174D02*
G75*
G02*
X174308000Y-74979000I1180295J1564674D01*
G01*
X174414916Y-66934063D02*
G75*
G02*
X176775000Y-66934000I1180084J-1565937D01*
G01*
X174414916Y-71934063D02*
G75*
G02*
X176775000Y-71934000I1180084J-1565937D01*
G01*
X175022381Y-76624578D02*
G75*
G02*
X176169000Y-76625000I572619J-1875422D01*
G01*
X176167619Y-80375422D02*
G75*
G02*
X175021000Y-80375000I-572619J1875415D01*
G01*
X176774122Y-70065661D02*
G75*
G02*
X174415000Y-70065000I-1179122J1565661D01*
G01*
X176774122Y-75065661D02*
G75*
G02*
X174415000Y-75065000I-1179122J1565661D01*
G01*
X176774628Y-66933898D02*
G75*
G02*
X176881000Y-67020000I-1183928J-1571402D01*
G01*
X176774628Y-71933898D02*
G75*
G02*
X176881000Y-72020000I-1183928J-1571402D01*
G01*
X176880928Y-67020293D02*
G75*
G02*
X177004999Y-67138001I-1286128J-1479907D01*
G01*
X176880928Y-72020293D02*
G75*
G02*
X177004999Y-72138001I-1286128J-1479907D01*
G01*
X176881294Y-69978875D02*
G75*
G02*
X176775001Y-70065001I-1286894J1479575D01*
G01*
X176881294Y-74978875D02*
G75*
G02*
X176775001Y-75065001I-1286894J1479575D01*
G01*
X177005010Y-69861290D02*
G75*
G02*
X176881000Y-69979001I-1410110J1361390D01*
G01*
X177005010Y-74861290D02*
G75*
G02*
X176881000Y-74979001I-1410110J1361390D01*
G01*
X177005651Y-67137870D02*
G75*
G02*
X177119000Y-67266000I-1412351J-1363630D01*
G01*
X177005651Y-72137870D02*
G75*
G02*
X177119000Y-72266000I-1412351J-1363630D01*
G01*
X177118253Y-69732931D02*
G75*
G02*
X177005000Y-69861000I-1523153J1232831D01*
G01*
X177118253Y-74732931D02*
G75*
G02*
X177005000Y-74861000I-1523153J1232831D01*
G01*
X177118294Y-67266543D02*
G75*
G02*
X177220002Y-67403999I-1521894J-1232457D01*
G01*
X177118294Y-72266543D02*
G75*
G02*
X177220002Y-72403999I-1521894J-1232457D01*
G01*
X177220664Y-69595483D02*
G75*
G02*
X177119000Y-69733000I-1625664J1095483D01*
G01*
X177220664Y-74595483D02*
G75*
G02*
X177119000Y-74733000I-1625664J1095483D01*
G01*
X177239143Y-67431638D02*
G75*
G02*
X177326000Y-67579000I-1644143J-1068362D01*
G01*
X177239143Y-72431638D02*
G75*
G02*
X177326000Y-72579000I-1644143J-1068362D01*
G01*
X177325739Y-69419656D02*
G75*
G02*
X177239000Y-69567000I-1734139J921656D01*
G01*
X177325739Y-74419656D02*
G75*
G02*
X177239000Y-74567000I-1734139J921656D01*
G01*
X177372050Y-67670705D02*
G75*
G02*
X177449001Y-67861000I-1778250J-829795D01*
G01*
X177372050Y-72670705D02*
G75*
G02*
X177449001Y-72861000I-1778250J-829795D01*
G01*
X177448815Y-69137717D02*
G75*
G02*
X177372000Y-69328000I-1853815J637717D01*
G01*
X177448815Y-74137717D02*
G75*
G02*
X177372000Y-74328000I-1853815J637717D01*
G01*
X177469357Y-77926951D02*
G75*
G02*
X177555000Y-78500000I-1874357J-573049D01*
G01*
X177488215Y-67992715D02*
G75*
G02*
X177555000Y-68500000I-1893215J-507285D01*
G01*
X177488215Y-72992715D02*
G75*
G02*
X177555000Y-73500000I-1893215J-507285D01*
G01*
X177555607Y-78466500D02*
G75*
G02*
X177470000Y-79074000I-1960607J-33500D01*
G01*
X177555685Y-68499521D02*
G75*
G02*
X177488997Y-69006999I-1960585J-479D01*
G01*
X177555685Y-73499521D02*
G75*
G02*
X177488997Y-74006999I-1960585J-479D01*
G01*
%TO.C,R1*%
X164080000Y-73580000D02*
X164080000Y-77420000D01*
X164080000Y-77420000D02*
X165920000Y-77420000D01*
X165000000Y-72630000D02*
X165000000Y-73580000D01*
X165000000Y-78370000D02*
X165000000Y-77420000D01*
X165920000Y-73580000D02*
X164080000Y-73580000D01*
X165920000Y-77420000D02*
X165920000Y-73580000D01*
D14*
%TO.C,RV1*%
X137380000Y-75420000D02*
X137380000Y-88120000D01*
X137380000Y-75420000D02*
X152620000Y-75420000D01*
X152620000Y-88120000D02*
X152620000Y-75420000D01*
X152620000Y-88120000D02*
G75*
G02*
X137380000Y-88120000I-7620000J0D01*
G01*
X153519419Y-88120000D02*
G75*
G02*
X136480581Y-88120000I-8519419J0D01*
G01*
X136480581Y-88120000D02*
G75*
G02*
X153519419Y-88120000I8519419J0D01*
G01*
D15*
%TO.C,J1*%
X164540000Y-53450000D02*
G75*
G02*
X164340000Y-53450000I-100000J0D01*
G01*
X164340000Y-53450000D02*
G75*
G02*
X164540000Y-53450000I100000J0D01*
G01*
D13*
X176150000Y-62640000D02*
X159890000Y-62640000D01*
X176150000Y-57180000D02*
X176150000Y-62640000D01*
X176150000Y-54180000D02*
X176150000Y-46900000D01*
X176150000Y-46900000D02*
X159890000Y-46900000D01*
X159890000Y-62640000D02*
X159890000Y-57180000D01*
X159890000Y-46900000D02*
X159890000Y-54180000D01*
D12*
%TO.C,GND1*%
X150500000Y-56100000D02*
X150500000Y-58950000D01*
X150500000Y-56100000D02*
X153500000Y-56100000D01*
X150500000Y-58950000D02*
X153500000Y-58950000D01*
X153500000Y-56100000D02*
X153500000Y-58950000D01*
%TO.C,PSU1*%
X140640000Y-52970000D02*
X140640000Y-55160000D01*
X140640000Y-55160000D02*
X142590000Y-55160000D01*
X140880000Y-46880000D02*
X140880000Y-54920000D01*
X140880000Y-46880000D02*
X156620000Y-46880000D01*
X140880000Y-50500000D02*
X142120000Y-50500000D01*
X140880000Y-51500000D02*
X142120000Y-51500000D01*
X140880000Y-52800000D02*
X142120000Y-52800000D01*
X140880000Y-54920000D02*
X156620000Y-54920000D01*
X145880000Y-50500000D02*
X147165000Y-50500000D01*
X145880000Y-51500000D02*
X147165000Y-51500000D01*
X145880000Y-52800000D02*
X148331000Y-52800000D01*
X147514000Y-52248000D02*
X147514000Y-52248000D01*
X149670000Y-52800000D02*
X153331000Y-52800000D01*
X150487000Y-49752000D02*
X150487000Y-49752000D01*
X150836000Y-50500000D02*
X152165000Y-50500000D01*
X150836000Y-51500000D02*
X152165000Y-51500000D01*
X152514000Y-52248000D02*
X152514000Y-52248000D01*
X154670000Y-52800000D02*
X156620000Y-52800000D01*
X155487000Y-49752000D02*
X155487000Y-49752000D01*
X155836000Y-50500000D02*
X156620000Y-50500000D01*
X155836000Y-51500000D02*
X156620000Y-51500000D01*
X156620000Y-46880000D02*
X156620000Y-54920000D01*
X142124578Y-51572619D02*
G75*
G02*
X142125000Y-50426000I1875415J572619D01*
G01*
X143427381Y-49124578D02*
G75*
G02*
X144574000Y-49125000I572619J-1875422D01*
G01*
X144033500Y-52960607D02*
G75*
G02*
X143426000Y-52875000I-33500J1960607D01*
G01*
X144573049Y-52874357D02*
G75*
G02*
X144000000Y-52960000I-573049J1874357D01*
G01*
X145875422Y-50427381D02*
G75*
G02*
X145875000Y-51574000I-1875422J-572619D01*
G01*
X147434339Y-52179122D02*
G75*
G02*
X147435000Y-49820000I1565661J1179122D01*
G01*
X147434826Y-49819305D02*
G75*
G02*
X147521000Y-49713000I1564674J-1180295D01*
G01*
X147521125Y-52286294D02*
G75*
G02*
X147434999Y-52180001I1479575J1286894D01*
G01*
X147521202Y-49712988D02*
G75*
G02*
X147639000Y-49589000I1477098J-1285412D01*
G01*
X147638710Y-52410010D02*
G75*
G02*
X147520999Y-52286000I1361390J1410110D01*
G01*
X147638867Y-49589262D02*
G75*
G02*
X147767000Y-49475999I1361233J-1410838D01*
G01*
X147767069Y-52523253D02*
G75*
G02*
X147639000Y-52410000I1232831J1523153D01*
G01*
X147767452Y-49475623D02*
G75*
G02*
X147905000Y-49374000I1232548J-1524377D01*
G01*
X147904517Y-52625664D02*
G75*
G02*
X147767000Y-52524000I1095483J1625664D01*
G01*
X147933630Y-49355683D02*
G75*
G02*
X148080998Y-49268995I1067670J-1646417D01*
G01*
X148080344Y-52730739D02*
G75*
G02*
X147933000Y-52644000I921656J1734139D01*
G01*
X148172694Y-49222741D02*
G75*
G02*
X148363000Y-49146000I827306J-1777259D01*
G01*
X148362283Y-52853815D02*
G75*
G02*
X148172000Y-52777000I637717J1853815D01*
G01*
X148493681Y-49106527D02*
G75*
G02*
X149001000Y-49040001I506319J-1893473D01*
G01*
X149000479Y-52960685D02*
G75*
G02*
X148493001Y-52893997I-479J1960585D01*
G01*
X149000487Y-49039056D02*
G75*
G02*
X149508000Y-49106000I-487J-1960944D01*
G01*
X149507285Y-52893215D02*
G75*
G02*
X149000000Y-52960000I-507285J1893215D01*
G01*
X149638712Y-49146080D02*
G75*
G02*
X149828999Y-49223001I-638612J-1853620D01*
G01*
X149829295Y-52777050D02*
G75*
G02*
X149639000Y-52854001I-829795J1778250D01*
G01*
X149920652Y-49269174D02*
G75*
G02*
X150067997Y-49356004I-918652J-1727326D01*
G01*
X150068362Y-52644143D02*
G75*
G02*
X149921000Y-52731000I-1068362J1644143D01*
G01*
X150096479Y-49374249D02*
G75*
G02*
X150233999Y-49476002I-1097179J-1626651D01*
G01*
X150233457Y-52523294D02*
G75*
G02*
X150096001Y-52625002I-1232457J1521894D01*
G01*
X150233928Y-49476659D02*
G75*
G02*
X150362000Y-49590000I-1234028J-1523441D01*
G01*
X150362130Y-52410651D02*
G75*
G02*
X150234000Y-52524000I-1363630J1412351D01*
G01*
X150362286Y-49589903D02*
G75*
G02*
X150480000Y-49714000I-1362086J-1409897D01*
G01*
X150479707Y-52285928D02*
G75*
G02*
X150361999Y-52409999I-1479907J1286128D01*
G01*
X150479873Y-49713636D02*
G75*
G02*
X150566000Y-49820000I-1479373J-1285964D01*
G01*
X150565937Y-49819916D02*
G75*
G02*
X150566000Y-52180000I-1565937J-1180084D01*
G01*
X150566102Y-52179628D02*
G75*
G02*
X150480000Y-52286000I-1571402J1183928D01*
G01*
X152434339Y-52179122D02*
G75*
G02*
X152435000Y-49820000I1565661J1179122D01*
G01*
X152434826Y-49819305D02*
G75*
G02*
X152521000Y-49713000I1564674J-1180295D01*
G01*
X152521125Y-52286294D02*
G75*
G02*
X152434999Y-52180001I1479575J1286894D01*
G01*
X152521202Y-49712988D02*
G75*
G02*
X152639000Y-49589000I1477098J-1285412D01*
G01*
X152638710Y-52410010D02*
G75*
G02*
X152520999Y-52286000I1361390J1410110D01*
G01*
X152638867Y-49589262D02*
G75*
G02*
X152767000Y-49475999I1361233J-1410838D01*
G01*
X152767069Y-52523253D02*
G75*
G02*
X152639000Y-52410000I1232831J1523153D01*
G01*
X152767452Y-49475623D02*
G75*
G02*
X152905000Y-49374000I1232548J-1524377D01*
G01*
X152904517Y-52625664D02*
G75*
G02*
X152767000Y-52524000I1095483J1625664D01*
G01*
X152933630Y-49355683D02*
G75*
G02*
X153080998Y-49268995I1067670J-1646417D01*
G01*
X153080344Y-52730739D02*
G75*
G02*
X152933000Y-52644000I921656J1734139D01*
G01*
X153172694Y-49222741D02*
G75*
G02*
X153363000Y-49146000I827306J-1777259D01*
G01*
X153362283Y-52853815D02*
G75*
G02*
X153172000Y-52777000I637717J1853815D01*
G01*
X153493681Y-49106527D02*
G75*
G02*
X154001000Y-49040001I506319J-1893473D01*
G01*
X154000479Y-52960685D02*
G75*
G02*
X153493001Y-52893997I-479J1960585D01*
G01*
X154000487Y-49039056D02*
G75*
G02*
X154508000Y-49106000I-487J-1960944D01*
G01*
X154507285Y-52893215D02*
G75*
G02*
X154000000Y-52960000I-507285J1893215D01*
G01*
X154638712Y-49146080D02*
G75*
G02*
X154828999Y-49223001I-638612J-1853620D01*
G01*
X154829295Y-52777050D02*
G75*
G02*
X154639000Y-52854001I-829795J1778250D01*
G01*
X154920652Y-49269174D02*
G75*
G02*
X155067997Y-49356004I-918652J-1727326D01*
G01*
X155068362Y-52644143D02*
G75*
G02*
X154921000Y-52731000I-1068362J1644143D01*
G01*
X155096479Y-49374249D02*
G75*
G02*
X155233999Y-49476002I-1097179J-1626651D01*
G01*
X155233457Y-52523294D02*
G75*
G02*
X155096001Y-52625002I-1232457J1521894D01*
G01*
X155233928Y-49476659D02*
G75*
G02*
X155362000Y-49590000I-1234028J-1523441D01*
G01*
X155362130Y-52410651D02*
G75*
G02*
X155234000Y-52524000I-1363630J1412351D01*
G01*
X155362286Y-49589903D02*
G75*
G02*
X155480000Y-49714000I-1362086J-1409897D01*
G01*
X155479707Y-52285928D02*
G75*
G02*
X155361999Y-52409999I-1479907J1286128D01*
G01*
X155479873Y-49713636D02*
G75*
G02*
X155566000Y-49820000I-1479373J-1285964D01*
G01*
X155565937Y-49819916D02*
G75*
G02*
X155566000Y-52180000I-1565937J-1180084D01*
G01*
X155566102Y-52179628D02*
G75*
G02*
X155480000Y-52286000I-1571402J1183928D01*
G01*
%TO.C,R2*%
X152320000Y-68000000D02*
X153270000Y-68000000D01*
X153270000Y-67080000D02*
X153270000Y-68920000D01*
X153270000Y-68920000D02*
X157110000Y-68920000D01*
X157110000Y-67080000D02*
X153270000Y-67080000D01*
X157110000Y-68920000D02*
X157110000Y-67080000D01*
X158060000Y-68000000D02*
X157110000Y-68000000D01*
%TO.C,Q1*%
X161530000Y-71150000D02*
X157930000Y-71150000D01*
X159730000Y-75600000D02*
G75*
G02*
X157891522Y-71161522I0J2600000D01*
G01*
X161568478Y-71161522D02*
G75*
G02*
X159730000Y-75600001I-1838478J-1838478D01*
G01*
%TD*%
M02*
