M48
; DRILL file {KiCad 8.0.6} date 2025-03-17T22:04:29-0600
; FORMAT={-:-/ absolute / inch / decimal}
; #@! TF.CreationDate,2025-03-17T22:04:29-06:00
; #@! TF.GenerationSoftware,Kicad,Pcbnew,8.0.6
; #@! TF.FileFunction,Plated,1,2,PTH
FMAT,2
INCH
; #@! TA.AperFunction,Plated,PTH,ViaDrill
T1C0.0118
; #@! TA.AperFunction,Plated,PTH,ComponentDrill
T2C0.0276
; #@! TA.AperFunction,Plated,PTH,ComponentDrill
T3C0.0295
; #@! TA.AperFunction,Plated,PTH,ComponentDrill
T4C0.0350
; #@! TA.AperFunction,Plated,PTH,ComponentDrill
T5C0.0390
; #@! TA.AperFunction,Plated,PTH,ComponentDrill
T6C0.0433
; #@! TA.AperFunction,Plated,PTH,ComponentDrill
T7C0.0492
; #@! TA.AperFunction,Plated,PTH,ComponentDrill
T8C0.0500
; #@! TA.AperFunction,Plated,PTH,ComponentDrill
T9C0.0512
; #@! TA.AperFunction,Plated,PTH,ComponentDrill
T10C0.0551
; #@! TA.AperFunction,Plated,PTH,ViaDrill
T11C0.0591
; #@! TA.AperFunction,Plated,PTH,ComponentDrill
T12C0.0618
%
G90
G05
T1
X5.0197Y-2.3228
X5.0197Y-2.7165
X5.1378Y-3.0709
X5.3937Y-2.9353
X5.4528Y-2.8959
X5.5709Y-2.3622
X5.6299Y-3.2283
X6.1417Y-3.1299
X6.2205Y-2.0669
X6.3583Y-2.3819
X6.3583Y-3.2087
X6.4567Y-2.3819
X6.5354Y-2.0079
X6.5551Y-2.6575
X6.5551Y-2.7165
X6.6142Y-2.6181
X6.6142Y-2.7559
X6.6732Y-2.6575
X6.6732Y-2.7165
X6.7323Y-1.9488
X6.8307Y-2.5197
X6.9094Y-2.5197
T2
X5.9598Y-2.6772
X6.2598Y-2.6772
X6.4961Y-2.8224
X6.4961Y-3.1224
T3
X6.2386Y-2.874
X6.2886Y-2.874
X6.3386Y-2.874
T4
X6.474Y-2.1543
X6.5142Y-2.2244
X6.5543Y-2.1543
X6.5945Y-2.2244
X6.6346Y-2.1543
X6.6748Y-2.2244
X6.715Y-2.1543
X6.7551Y-2.2244
T5
X6.2116Y-3.47
X6.3888Y-3.47
T7
X5.5413Y-2.9626
X5.876Y-2.9626
T8
X4.8378Y-1.9134
X4.8378Y-2.0134
X4.8378Y-2.1134
X4.8378Y-2.2134
X4.8378Y-2.3134
X4.8378Y-2.4134
X4.8378Y-2.5134
X4.8378Y-2.6134
X5.4378Y-1.9134
X5.4378Y-2.0134
X5.4378Y-2.1134
X5.4378Y-2.2134
X5.4378Y-2.3134
X5.4378Y-2.4134
X5.4378Y-2.5134
X5.4378Y-2.6134
T9
X5.6693Y-2.0079
X5.8661Y-2.0079
X6.063Y-2.0079
X6.162Y-3.3719
X6.438Y-3.3719
X6.9132Y-2.6969
X6.9132Y-2.8937
X6.9132Y-3.0906
T10
X5.9843Y-2.2638
X6.1417Y-2.2638
T11
X6.4567Y-2.6772
T12
X6.2949Y-2.1894
X6.935Y-2.1894
T6
G00X5.4429Y-3.3346
M15
G01X5.4429Y-3.4173
M16
G05
G00X5.9744Y-3.3346
M15
G01X5.9744Y-3.4173
M16
G05
M30
