%TF.GenerationSoftware,KiCad,Pcbnew,8.0.6*%
%TF.CreationDate,2025-03-17T22:04:28-06:00*%
%TF.ProjectId,Eli-Neopixel,456c692d-4e65-46f7-9069-78656c2e6b69,rev?*%
%TF.SameCoordinates,Original*%
%TF.FileFunction,Soldermask,Bot*%
%TF.FilePolarity,Negative*%
%FSLAX46Y46*%
G04 Gerber Fmt 4.6, Leading zero omitted, Abs format (unit mm)*
G04 Created by KiCad (PCBNEW 8.0.6) date 2025-03-17 22:04:28*
%MOMM*%
%LPD*%
G01*
G04 APERTURE LIST*
G04 Aperture macros list*
%AMRoundRect*
0 Rectangle with rounded corners*
0 $1 Rounding radius*
0 $2 $3 $4 $5 $6 $7 $8 $9 X,Y pos of 4 corners*
0 Add a 4 corners polygon primitive as box body*
4,1,4,$2,$3,$4,$5,$6,$7,$8,$9,$2,$3,0*
0 Add four circle primitives for the rounded corners*
1,1,$1+$1,$2,$3*
1,1,$1+$1,$4,$5*
1,1,$1+$1,$6,$7*
1,1,$1+$1,$8,$9*
0 Add four rect primitives between the rounded corners*
20,1,$1+$1,$2,$3,$4,$5,0*
20,1,$1+$1,$4,$5,$6,$7,0*
20,1,$1+$1,$6,$7,$8,$9,0*
20,1,$1+$1,$8,$9,$2,$3,0*%
G04 Aperture macros list end*
%ADD10C,1.750000*%
%ADD11C,2.100000*%
%ADD12C,2.600000*%
%ADD13C,2.109000*%
%ADD14R,2.800000X2.800000*%
%ADD15C,2.800000*%
%ADD16C,1.400000*%
%ADD17O,1.400000X1.400000*%
%ADD18C,3.200000*%
%ADD19R,2.000000X2.000000*%
%ADD20O,2.720000X4.500000*%
%ADD21C,2.000000*%
%ADD22C,2.559000*%
%ADD23C,1.602000*%
%ADD24RoundRect,0.102000X0.699000X0.699000X-0.699000X0.699000X-0.699000X-0.699000X0.699000X-0.699000X0*%
%ADD25C,3.250000*%
%ADD26R,1.050000X1.500000*%
%ADD27O,1.050000X1.500000*%
G04 APERTURE END LIST*
D10*
%TO.C,SW1*%
X157775000Y-88137500D03*
X162275000Y-88137500D03*
D11*
X156515000Y-85647500D03*
X163525000Y-85647500D03*
%TD*%
D12*
%TO.C,PWR_ON1*%
X156000000Y-57500000D03*
%TD*%
D13*
%TO.C,U1*%
X138120000Y-51140000D03*
X122880000Y-66380000D03*
X122880000Y-63840000D03*
X122880000Y-61300000D03*
X122880000Y-58760000D03*
X122880000Y-56220000D03*
X122880000Y-53680000D03*
X122880000Y-51140000D03*
X138120000Y-48600000D03*
X122880000Y-48600000D03*
X138120000Y-56220000D03*
X138120000Y-53680000D03*
X138120000Y-58760000D03*
X138120000Y-61300000D03*
X138120000Y-63840000D03*
X138120000Y-66380000D03*
%TD*%
D14*
%TO.C,NeopixelInterface1*%
X175595000Y-78500000D03*
D15*
X175595000Y-73500000D03*
X175595000Y-68500000D03*
%TD*%
D16*
%TO.C,R1*%
X165000000Y-71690000D03*
D17*
X165000000Y-79310000D03*
%TD*%
D18*
%TO.C,H1*%
X124500000Y-75000000D03*
%TD*%
%TO.C,H2*%
X146000000Y-60500000D03*
%TD*%
%TO.C,H3*%
X171500000Y-85500000D03*
%TD*%
D19*
%TO.C,RV1*%
X149250000Y-75250000D03*
D20*
X151750000Y-85750000D03*
X138250000Y-85750000D03*
D21*
X140750000Y-75250000D03*
%TD*%
D22*
%TO.C,J1*%
X176150000Y-55610000D03*
X159890000Y-55610000D03*
D23*
X171580000Y-56500000D03*
X170560000Y-54720000D03*
X169540000Y-56500000D03*
X168520000Y-54720000D03*
X167500000Y-56500000D03*
X166480000Y-54720000D03*
X165460000Y-56500000D03*
D24*
X164440000Y-54720000D03*
D25*
X161670000Y-52180000D03*
X174370000Y-52180000D03*
%TD*%
D12*
%TO.C,GND1*%
X152000000Y-57500000D03*
%TD*%
D14*
%TO.C,PSU1*%
X144000000Y-51000000D03*
D15*
X149000000Y-51000000D03*
X154000000Y-51000000D03*
%TD*%
D16*
%TO.C,R2*%
X151380000Y-68000000D03*
D17*
X159000000Y-68000000D03*
%TD*%
D26*
%TO.C,Q1*%
X161000000Y-73000000D03*
D27*
X159730000Y-73000000D03*
X158460000Y-73000000D03*
%TD*%
M02*
