%TF.GenerationSoftware,KiCad,Pcbnew,8.0.6*%
%TF.CreationDate,2025-03-17T22:04:27-06:00*%
%TF.ProjectId,Eli-Neopixel,456c692d-4e65-46f7-9069-78656c2e6b69,rev?*%
%TF.SameCoordinates,Original*%
%TF.FileFunction,Copper,L2,Bot*%
%TF.FilePolarity,Positive*%
%FSLAX46Y46*%
G04 Gerber Fmt 4.6, Leading zero omitted, Abs format (unit mm)*
G04 Created by KiCad (PCBNEW 8.0.6) date 2025-03-17 22:04:27*
%MOMM*%
%LPD*%
G01*
G04 APERTURE LIST*
%TA.AperFunction,Conductor*%
%ADD10C,0.200000*%
%TD*%
%TA.AperFunction,ComponentPad*%
%ADD11C,1.750000*%
%TD*%
%TA.AperFunction,ComponentPad*%
%ADD12C,2.100000*%
%TD*%
%TA.AperFunction,ComponentPad*%
%ADD13C,2.600000*%
%TD*%
%TA.AperFunction,ComponentPad*%
%ADD14C,1.905000*%
%TD*%
%TA.AperFunction,ComponentPad*%
%ADD15R,2.800000X2.800000*%
%TD*%
%TA.AperFunction,ComponentPad*%
%ADD16C,2.800000*%
%TD*%
%TA.AperFunction,ComponentPad*%
%ADD17C,1.400000*%
%TD*%
%TA.AperFunction,ComponentPad*%
%ADD18O,1.400000X1.400000*%
%TD*%
%TA.AperFunction,ComponentPad*%
%ADD19R,2.000000X2.000000*%
%TD*%
%TA.AperFunction,ComponentPad*%
%ADD20O,2.720000X4.500000*%
%TD*%
%TA.AperFunction,ComponentPad*%
%ADD21C,2.000000*%
%TD*%
%TA.AperFunction,ComponentPad*%
%ADD22C,2.355000*%
%TD*%
%TA.AperFunction,ComponentPad*%
%ADD23C,1.398000*%
%TD*%
%TA.AperFunction,ComponentPad*%
%ADD24R,1.398000X1.398000*%
%TD*%
%TA.AperFunction,ComponentPad*%
%ADD25R,1.050000X1.500000*%
%TD*%
%TA.AperFunction,ComponentPad*%
%ADD26O,1.050000X1.500000*%
%TD*%
%TA.AperFunction,ViaPad*%
%ADD27C,0.600000*%
%TD*%
%TA.AperFunction,ViaPad*%
%ADD28C,3.000000*%
%TD*%
%TA.AperFunction,Conductor*%
%ADD29C,0.304800*%
%TD*%
%TA.AperFunction,Conductor*%
%ADD30C,1.500000*%
%TD*%
%TA.AperFunction,Conductor*%
%ADD31C,2.000000*%
%TD*%
G04 APERTURE END LIST*
%TO.N,GND*%
D10*
X173500000Y-66500000D02*
X177000000Y-66500000D01*
X177000000Y-70500000D01*
X173500000Y-70500000D01*
X173500000Y-66500000D01*
%TA.AperFunction,Conductor*%
G36*
X173500000Y-66500000D02*
G01*
X177000000Y-66500000D01*
X177000000Y-70500000D01*
X173500000Y-70500000D01*
X173500000Y-66500000D01*
G37*
%TD.AperFunction*%
%TD*%
D11*
%TO.P,SW1,2,2*%
%TO.N,+3.3V*%
X157775000Y-88137500D03*
%TO.P,SW1,1,1*%
%TO.N,/button Signal*%
X162275000Y-88137500D03*
D12*
%TO.P,SW1,*%
%TO.N,*%
X156515000Y-85647500D03*
X163525000Y-85647500D03*
%TD*%
D13*
%TO.P,PWR_ON1,1,1*%
%TO.N,/powerSW*%
X156000000Y-57500000D03*
%TD*%
D14*
%TO.P,U1,G,GND*%
%TO.N,GND*%
X138120000Y-51140000D03*
%TO.P,U1,21,GPIO21*%
%TO.N,/Extern_input*%
X122880000Y-66380000D03*
%TO.P,U1,20,GPIO20*%
%TO.N,/button Signal*%
X122880000Y-63840000D03*
%TO.P,U1,10,GPIO10*%
%TO.N,unconnected-(U1-GPIO10-Pad10)*%
X122880000Y-61300000D03*
%TO.P,U1,9,GPIO9*%
%TO.N,unconnected-(U1-GPIO9-Pad9)*%
X122880000Y-58760000D03*
%TO.P,U1,8,GPIO8*%
%TO.N,unconnected-(U1-GPIO8-Pad8)*%
X122880000Y-56220000D03*
%TO.P,U1,7,GPIO7*%
%TO.N,unconnected-(U1-GPIO7-Pad7)*%
X122880000Y-53680000D03*
%TO.P,U1,6,GPIO6*%
%TO.N,/Neopixel Signal 3v3*%
X122880000Y-51140000D03*
%TO.P,U1,5V,5V*%
%TO.N,+5V*%
X138120000Y-48600000D03*
%TO.P,U1,5,GPIO5*%
%TO.N,unconnected-(U1-GPIO5-Pad5)*%
X122880000Y-48600000D03*
%TO.P,U1,4,GPIO4*%
%TO.N,/Potentiometer2*%
X138120000Y-56220000D03*
%TO.P,U1,3.3,3V3*%
%TO.N,+3.3V*%
X138120000Y-53680000D03*
%TO.P,U1,3,GPIO3*%
%TO.N,/Potentiometer1*%
X138120000Y-58760000D03*
%TO.P,U1,2,GPIO2*%
%TO.N,unconnected-(U1-GPIO2-Pad2)*%
X138120000Y-61300000D03*
%TO.P,U1,1,GPIO1*%
%TO.N,unconnected-(U1-GPIO1-Pad1)*%
X138120000Y-63840000D03*
%TO.P,U1,0,GPIO0*%
%TO.N,unconnected-(U1-GPIO0-Pad0)*%
X138120000Y-66380000D03*
%TD*%
D15*
%TO.P,NeopixelInterface1,1,Pin_1*%
%TO.N,+5V*%
X175595000Y-78500000D03*
D16*
%TO.P,NeopixelInterface1,2,Pin_2*%
%TO.N,/Neopixel Signal 5v*%
X175595000Y-73500000D03*
%TO.P,NeopixelInterface1,3,Pin_3*%
%TO.N,GND*%
X175595000Y-68500000D03*
%TD*%
D17*
%TO.P,R1,1*%
%TO.N,/Neopixel Signal 5v*%
X165000000Y-71690000D03*
D18*
%TO.P,R1,2*%
%TO.N,+5V*%
X165000000Y-79310000D03*
%TD*%
D19*
%TO.P,RV1,1,1*%
%TO.N,GND*%
X149250000Y-75250000D03*
D20*
%TO.P,RV1,2,2*%
%TO.N,/Potentiometer1*%
X151750000Y-85750000D03*
X138250000Y-85750000D03*
D21*
%TO.P,RV1,3,3*%
%TO.N,+3.3V*%
X140750000Y-75250000D03*
%TD*%
D22*
%TO.P,J1,S2,SHIELD*%
%TO.N,Net-(J1-SHIELD-PadS1)*%
X176150000Y-55610000D03*
%TO.P,J1,S1,SHIELD*%
X159890000Y-55610000D03*
D23*
%TO.P,J1,8,8*%
%TO.N,GND*%
X171580000Y-56500000D03*
%TO.P,J1,7,7*%
X170560000Y-54720000D03*
%TO.P,J1,6,6*%
%TO.N,/Potentiometer2*%
X169540000Y-56500000D03*
%TO.P,J1,5,5*%
%TO.N,+3.3V*%
X168520000Y-54720000D03*
%TO.P,J1,4,4*%
%TO.N,unconnected-(J1-Pad4)*%
X167500000Y-56500000D03*
%TO.P,J1,3,3*%
%TO.N,/powerSW*%
X166480000Y-54720000D03*
%TO.P,J1,2,2*%
%TO.N,/button Signal*%
X165460000Y-56500000D03*
D24*
%TO.P,J1,1,1*%
%TO.N,/Extern_input*%
X164440000Y-54720000D03*
%TD*%
D13*
%TO.P,GND1,1,1*%
%TO.N,GND*%
X152000000Y-57500000D03*
%TD*%
D15*
%TO.P,PSU1,1,Pin_1*%
%TO.N,+5V*%
X144000000Y-51000000D03*
D16*
%TO.P,PSU1,2,Pin_2*%
%TO.N,GND*%
X149000000Y-51000000D03*
%TO.P,PSU1,3,Pin_3*%
%TO.N,/powerSW*%
X154000000Y-51000000D03*
%TD*%
D17*
%TO.P,R2,1*%
%TO.N,/Neopixel Signal 3v3*%
X151380000Y-68000000D03*
D18*
%TO.P,R2,2*%
%TO.N,+3.3V*%
X159000000Y-68000000D03*
%TD*%
D25*
%TO.P,Q1,1,D*%
%TO.N,/Neopixel Signal 5v*%
X161000000Y-73000000D03*
D26*
%TO.P,Q1,2,G*%
%TO.N,+3.3V*%
X159730000Y-73000000D03*
%TO.P,Q1,3,S*%
%TO.N,/Neopixel Signal 3v3*%
X158460000Y-73000000D03*
%TD*%
D27*
%TO.N,GND*%
X143000000Y-82000000D03*
X127500000Y-59000000D03*
%TO.N,/Extern_input*%
X137000000Y-74556400D03*
%TO.N,/button Signal*%
X138500000Y-73556400D03*
X161500000Y-60500000D03*
%TO.N,GND*%
X164000000Y-60500000D03*
X166500000Y-69000000D03*
X130500000Y-78000000D03*
X169500000Y-67500000D03*
X158000000Y-52500000D03*
D28*
X164000000Y-68000000D03*
D27*
X127500000Y-69000000D03*
X175500000Y-64000000D03*
X169500000Y-69000000D03*
X166500000Y-67500000D03*
X168000000Y-66500000D03*
X166000000Y-51000000D03*
X173500000Y-64000000D03*
X156000000Y-79500000D03*
X171000000Y-49500000D03*
X141500000Y-60000000D03*
X168000000Y-70000000D03*
%TO.N,/button Signal*%
X161500000Y-81500000D03*
%TD*%
D29*
%TO.N,/button Signal*%
X160460000Y-61500000D02*
X165460000Y-56500000D01*
X151000000Y-61500000D02*
X160460000Y-61500000D01*
X138943600Y-73556400D02*
X151000000Y-61500000D01*
X138500000Y-73556400D02*
X138943600Y-73556400D01*
%TO.N,/Extern_input*%
X159160000Y-60000000D02*
X164440000Y-54720000D01*
X137000000Y-74556400D02*
X137000000Y-72331821D01*
X149331821Y-60000000D02*
X159160000Y-60000000D01*
X137000000Y-72331821D02*
X149331821Y-60000000D01*
%TO.N,/Potentiometer1*%
X135500000Y-79000000D02*
X138250000Y-81750000D01*
X135500000Y-59500000D02*
X135500000Y-79000000D01*
X136240000Y-58760000D02*
X135500000Y-59500000D01*
X138250000Y-81750000D02*
X138250000Y-85750000D01*
X138120000Y-58760000D02*
X136240000Y-58760000D01*
D30*
%TO.N,GND*%
X139467038Y-51140000D02*
X138120000Y-51140000D01*
D29*
X170560000Y-54720000D02*
X172220000Y-54720000D01*
D30*
X149000000Y-51570000D02*
X146785000Y-53785000D01*
D31*
X175500000Y-70000000D02*
X175500000Y-67000000D01*
X173500000Y-68500000D02*
X175000000Y-68500000D01*
D30*
X138120000Y-51140000D02*
X137398116Y-51140000D01*
X141215000Y-53785000D02*
X140457500Y-53027500D01*
D31*
X175000000Y-68500000D02*
X175500000Y-68000000D01*
D29*
X172220000Y-54720000D02*
X172500000Y-55000000D01*
D30*
X139467038Y-51140000D02*
X139467038Y-50704000D01*
X146785000Y-53785000D02*
X141215000Y-53785000D01*
D29*
X171580000Y-55740000D02*
X171580000Y-56500000D01*
X170560000Y-54720000D02*
X171580000Y-55740000D01*
D30*
X149000000Y-51000000D02*
X149000000Y-51570000D01*
X140457500Y-52130462D02*
X139467038Y-51140000D01*
X139467038Y-50704000D02*
X139500000Y-50704000D01*
X136860000Y-51140000D02*
X136500000Y-51500000D01*
X139467038Y-51140000D02*
X136860000Y-51140000D01*
X137398116Y-51140000D02*
X136379058Y-50120942D01*
D29*
X171580000Y-56500000D02*
X171624000Y-56500000D01*
D30*
X140457500Y-53027500D02*
X140457500Y-52130462D01*
D29*
%TO.N,/powerSW*%
X154000000Y-50500000D02*
X154778600Y-49721400D01*
X163000000Y-49721400D02*
X166480000Y-53201400D01*
X154778600Y-49721400D02*
X163000000Y-49721400D01*
X154000000Y-51000000D02*
X154000000Y-50500000D01*
X154000000Y-51000000D02*
X156000000Y-53000000D01*
X166480000Y-53201400D02*
X166480000Y-54720000D01*
X156000000Y-53000000D02*
X156000000Y-57500000D01*
%TO.N,+3.3V*%
X153093949Y-48812600D02*
X151500000Y-50406549D01*
X147500000Y-82000000D02*
X158149999Y-82000000D01*
X172019777Y-53019777D02*
X174216100Y-55216100D01*
X159730000Y-68730000D02*
X159730000Y-73000000D01*
X174216100Y-55216100D02*
X174216100Y-59783900D01*
X140750000Y-75250000D02*
X147500000Y-82000000D01*
X158649999Y-81500000D02*
X158649999Y-87262501D01*
X159730000Y-74270000D02*
X158649999Y-75350001D01*
X159730000Y-73000000D02*
X159730000Y-74270000D01*
X151500000Y-51812600D02*
X147680100Y-55632500D01*
X168520000Y-51520000D02*
X165812600Y-48812600D01*
X158649999Y-75350001D02*
X158649999Y-81500000D01*
X168520000Y-54720000D02*
X168520000Y-53731465D01*
X140888288Y-55632500D02*
X138935788Y-53680000D01*
X168520000Y-54720000D02*
X168520000Y-51520000D01*
X151500000Y-50406549D02*
X151500000Y-51812600D01*
X169231688Y-53019777D02*
X172019777Y-53019777D01*
X168520000Y-53731465D02*
X169231688Y-53019777D01*
X162500000Y-64500000D02*
X159000000Y-68000000D01*
X165812600Y-48812600D02*
X153093949Y-48812600D01*
X158149999Y-82000000D02*
X158649999Y-81500000D01*
X159000000Y-68000000D02*
X159730000Y-68730000D01*
X138935788Y-53680000D02*
X138120000Y-53680000D01*
X174216100Y-59783900D02*
X169500000Y-64500000D01*
X147680100Y-55632500D02*
X140888288Y-55632500D01*
X169500000Y-64500000D02*
X162500000Y-64500000D01*
X158649999Y-87262501D02*
X157775000Y-88137500D01*
%TO.N,/button Signal*%
X161500000Y-81500000D02*
X161500000Y-87362500D01*
X161500000Y-87362500D02*
X162275000Y-88137500D01*
%TO.N,/Potentiometer1*%
X138880000Y-58000000D02*
X138120000Y-58760000D01*
%TO.N,/Potentiometer2*%
X169540000Y-57084600D02*
X169540000Y-56500000D01*
D30*
%TO.N,+5V*%
X178500000Y-76000000D02*
X176000000Y-78500000D01*
X141600000Y-48600000D02*
X144000000Y-51000000D01*
X178681500Y-56658582D02*
X178500000Y-56840082D01*
X176306200Y-47306200D02*
X178681500Y-49681500D01*
X176000000Y-78500000D02*
X172500000Y-78500000D01*
D29*
X171690000Y-79310000D02*
X172500000Y-78500000D01*
D30*
X178500000Y-56840082D02*
X178500000Y-76000000D01*
D29*
X165000000Y-79310000D02*
X171690000Y-79310000D01*
D30*
X147693800Y-47306200D02*
X176306200Y-47306200D01*
X141600000Y-48600000D02*
X138120000Y-48600000D01*
X178681500Y-49681500D02*
X178681500Y-56658582D01*
X144000000Y-51000000D02*
X147693800Y-47306200D01*
D29*
%TO.N,/Potentiometer1*%
X151750000Y-85750000D02*
X138250000Y-85750000D01*
%TO.N,/Potentiometer2*%
X138441300Y-56541300D02*
X138120000Y-56220000D01*
%TO.N,/Neopixel Signal 5v*%
X163690000Y-73000000D02*
X161011400Y-73000000D01*
X165000000Y-71690000D02*
X170690000Y-71690000D01*
X170690000Y-71690000D02*
X172500000Y-73500000D01*
X172500000Y-73500000D02*
X175595000Y-73500000D01*
X165000000Y-71690000D02*
X163690000Y-73000000D01*
%TO.N,/Neopixel Signal 3v3*%
X153448600Y-68000000D02*
X158448600Y-73000000D01*
X151380000Y-68000000D02*
X153448600Y-68000000D01*
%TD*%
%TA.AperFunction,Conductor*%
%TO.N,GND*%
G36*
X146872623Y-46019685D02*
G01*
X146918378Y-46072489D01*
X146928322Y-46141647D01*
X146899297Y-46205203D01*
X146878470Y-46224317D01*
X146811408Y-46273041D01*
X146811399Y-46273048D01*
X144125266Y-48959181D01*
X144063943Y-48992666D01*
X144037585Y-48995500D01*
X143962415Y-48995500D01*
X143895376Y-48975815D01*
X143874734Y-48959181D01*
X142482396Y-47566844D01*
X142482394Y-47566842D01*
X142384378Y-47495631D01*
X142384376Y-47495628D01*
X142326584Y-47453640D01*
X142309913Y-47441528D01*
X142150886Y-47360500D01*
X142150886Y-47360499D01*
X142150884Y-47360499D01*
X142119953Y-47344738D01*
X142119950Y-47344737D01*
X142119948Y-47344736D01*
X141917179Y-47278852D01*
X141811890Y-47262176D01*
X141790832Y-47258840D01*
X141706605Y-47245500D01*
X141706601Y-47245500D01*
X138924541Y-47245500D01*
X138859753Y-47227228D01*
X138829049Y-47208413D01*
X138829047Y-47208412D01*
X138829037Y-47208407D01*
X138602624Y-47114624D01*
X138364325Y-47057414D01*
X138120000Y-47038185D01*
X137875674Y-47057414D01*
X137637375Y-47114624D01*
X137410957Y-47208409D01*
X137201987Y-47336465D01*
X137015630Y-47495630D01*
X136856465Y-47681987D01*
X136728409Y-47890957D01*
X136634624Y-48117375D01*
X136577414Y-48355674D01*
X136577414Y-48355678D01*
X136558185Y-48600000D01*
X136574110Y-48802347D01*
X136577414Y-48844319D01*
X136577414Y-48844323D01*
X136634624Y-49082624D01*
X136728409Y-49309042D01*
X136728412Y-49309047D01*
X136728413Y-49309049D01*
X136856465Y-49518012D01*
X137015630Y-49704370D01*
X137201988Y-49863535D01*
X137222382Y-49876032D01*
X137269259Y-49927843D01*
X137271180Y-49937627D01*
X137883992Y-50550439D01*
X137819215Y-50577271D01*
X137715211Y-50646764D01*
X137626764Y-50735211D01*
X137557271Y-50839215D01*
X137530438Y-50903992D01*
X136930881Y-50304435D01*
X136838185Y-50446317D01*
X136741491Y-50666759D01*
X136682399Y-50900110D01*
X136662522Y-51139994D01*
X136662522Y-51140005D01*
X136682399Y-51379889D01*
X136741491Y-51613240D01*
X136838185Y-51833682D01*
X136930880Y-51975563D01*
X137530438Y-51376006D01*
X137557271Y-51440785D01*
X137626764Y-51544789D01*
X137715211Y-51633236D01*
X137819215Y-51702729D01*
X137883991Y-51729560D01*
X137269100Y-52344451D01*
X137265863Y-52358687D01*
X137222385Y-52403965D01*
X137201993Y-52416461D01*
X137201990Y-52416462D01*
X137015630Y-52575630D01*
X136856465Y-52761987D01*
X136728409Y-52970957D01*
X136634624Y-53197375D01*
X136577414Y-53435674D01*
X136558185Y-53680000D01*
X136577414Y-53924325D01*
X136634624Y-54162624D01*
X136728409Y-54389042D01*
X136728412Y-54389047D01*
X136728413Y-54389049D01*
X136856465Y-54598012D01*
X137015630Y-54784370D01*
X137079922Y-54839281D01*
X137099158Y-54855710D01*
X137137351Y-54914217D01*
X137137849Y-54984085D01*
X137100495Y-55043131D01*
X137099158Y-55044290D01*
X137015630Y-55115630D01*
X136856465Y-55301987D01*
X136728409Y-55510957D01*
X136634624Y-55737375D01*
X136577414Y-55975674D01*
X136558185Y-56220000D01*
X136577414Y-56464325D01*
X136634624Y-56702624D01*
X136728409Y-56929042D01*
X136728412Y-56929047D01*
X136728413Y-56929049D01*
X136856465Y-57138012D01*
X137015630Y-57324370D01*
X137048207Y-57352193D01*
X137099158Y-57395710D01*
X137137351Y-57454217D01*
X137137849Y-57524085D01*
X137100495Y-57583131D01*
X137099158Y-57584290D01*
X137015630Y-57655630D01*
X136856462Y-57841990D01*
X136856461Y-57841992D01*
X136794019Y-57943890D01*
X136742208Y-57990765D01*
X136688292Y-58003100D01*
X136165450Y-58003100D01*
X136043482Y-58027362D01*
X136028870Y-58030268D01*
X136019218Y-58032188D01*
X136019216Y-58032189D01*
X136005357Y-58037930D01*
X135881478Y-58089242D01*
X135881470Y-58089246D01*
X135834947Y-58120332D01*
X135807159Y-58138899D01*
X135807158Y-58138900D01*
X135807157Y-58138899D01*
X135757504Y-58172078D01*
X135757496Y-58172084D01*
X134912081Y-59017498D01*
X134912078Y-59017501D01*
X134860288Y-59095012D01*
X134829249Y-59141465D01*
X134829242Y-59141478D01*
X134790171Y-59235804D01*
X134775105Y-59272178D01*
X134775103Y-59272184D01*
X134772190Y-59279215D01*
X134772187Y-59279223D01*
X134743100Y-59425449D01*
X134743100Y-79074549D01*
X134759601Y-79157500D01*
X134759601Y-79157502D01*
X134772186Y-79220772D01*
X134772189Y-79220784D01*
X134788899Y-79261125D01*
X134829241Y-79358521D01*
X134859633Y-79404007D01*
X134859636Y-79404010D01*
X134912077Y-79482496D01*
X137456781Y-82027199D01*
X137490266Y-82088522D01*
X137493100Y-82114880D01*
X137493100Y-82964304D01*
X137473415Y-83031343D01*
X137420611Y-83077098D01*
X137416555Y-83078864D01*
X137379263Y-83094311D01*
X137379249Y-83094318D01*
X137156236Y-83223076D01*
X136951937Y-83379840D01*
X136951930Y-83379846D01*
X136769846Y-83561930D01*
X136769840Y-83561937D01*
X136613076Y-83766236D01*
X136484316Y-83989252D01*
X136484311Y-83989263D01*
X136385763Y-84227178D01*
X136364953Y-84304844D01*
X136320778Y-84469711D01*
X136319114Y-84475920D01*
X136319111Y-84475933D01*
X136285501Y-84731229D01*
X136285500Y-84731246D01*
X136285500Y-86768753D01*
X136285501Y-86768770D01*
X136319111Y-87024066D01*
X136319112Y-87024071D01*
X136319113Y-87024077D01*
X136352438Y-87148450D01*
X136385763Y-87272821D01*
X136484311Y-87510736D01*
X136484316Y-87510747D01*
X136547985Y-87621024D01*
X136613073Y-87733759D01*
X136613075Y-87733762D01*
X136613076Y-87733763D01*
X136769840Y-87938062D01*
X136769846Y-87938069D01*
X136951930Y-88120153D01*
X136951937Y-88120159D01*
X136974536Y-88137500D01*
X137156241Y-88276927D01*
X137299576Y-88359681D01*
X137379252Y-88405683D01*
X137379257Y-88405685D01*
X137379260Y-88405687D01*
X137617177Y-88504236D01*
X137865923Y-88570887D01*
X138121240Y-88604500D01*
X138121247Y-88604500D01*
X138378753Y-88604500D01*
X138378760Y-88604500D01*
X138634077Y-88570887D01*
X138882823Y-88504236D01*
X139120740Y-88405687D01*
X139343759Y-88276927D01*
X139548064Y-88120158D01*
X139730158Y-87938064D01*
X139886927Y-87733759D01*
X140015687Y-87510740D01*
X140114236Y-87272823D01*
X140180887Y-87024077D01*
X140214500Y-86768760D01*
X140214500Y-86630900D01*
X140234185Y-86563861D01*
X140286989Y-86518106D01*
X140338500Y-86506900D01*
X149661500Y-86506900D01*
X149728539Y-86526585D01*
X149774294Y-86579389D01*
X149785500Y-86630900D01*
X149785500Y-86768753D01*
X149785501Y-86768770D01*
X149819111Y-87024066D01*
X149819112Y-87024071D01*
X149819113Y-87024077D01*
X149852438Y-87148450D01*
X149885763Y-87272821D01*
X149984311Y-87510736D01*
X149984316Y-87510747D01*
X150047985Y-87621024D01*
X150113073Y-87733759D01*
X150113075Y-87733762D01*
X150113076Y-87733763D01*
X150269840Y-87938062D01*
X150269846Y-87938069D01*
X150451930Y-88120153D01*
X150451937Y-88120159D01*
X150474536Y-88137500D01*
X150656241Y-88276927D01*
X150799576Y-88359681D01*
X150879252Y-88405683D01*
X150879257Y-88405685D01*
X150879260Y-88405687D01*
X151117177Y-88504236D01*
X151365923Y-88570887D01*
X151621240Y-88604500D01*
X151621247Y-88604500D01*
X151878753Y-88604500D01*
X151878760Y-88604500D01*
X152134077Y-88570887D01*
X152382823Y-88504236D01*
X152620740Y-88405687D01*
X152843759Y-88276927D01*
X153048064Y-88120158D01*
X153230158Y-87938064D01*
X153386927Y-87733759D01*
X153515687Y-87510740D01*
X153614236Y-87272823D01*
X153680887Y-87024077D01*
X153714500Y-86768760D01*
X153714500Y-84731240D01*
X153680887Y-84475923D01*
X153614236Y-84227177D01*
X153515687Y-83989260D01*
X153515685Y-83989257D01*
X153515683Y-83989252D01*
X153469681Y-83909576D01*
X153386927Y-83766241D01*
X153230158Y-83561936D01*
X153230153Y-83561930D01*
X153048069Y-83379846D01*
X153048062Y-83379840D01*
X152843763Y-83223076D01*
X152843762Y-83223075D01*
X152843759Y-83223073D01*
X152754842Y-83171737D01*
X152620747Y-83094316D01*
X152620736Y-83094311D01*
X152382091Y-82995461D01*
X152327688Y-82951620D01*
X152305623Y-82885326D01*
X152322902Y-82817626D01*
X152374039Y-82770016D01*
X152429544Y-82756900D01*
X157769099Y-82756900D01*
X157836138Y-82776585D01*
X157881893Y-82829389D01*
X157893099Y-82880900D01*
X157893099Y-84379719D01*
X157873414Y-84446758D01*
X157820610Y-84492513D01*
X157751452Y-84502457D01*
X157688568Y-84474009D01*
X157490501Y-84304844D01*
X157490493Y-84304838D01*
X157268449Y-84168770D01*
X157268450Y-84168770D01*
X157027852Y-84069111D01*
X156774624Y-84008317D01*
X156515000Y-83987884D01*
X156255375Y-84008317D01*
X156002147Y-84069111D01*
X155761549Y-84168770D01*
X155539506Y-84304838D01*
X155539504Y-84304839D01*
X155341474Y-84473974D01*
X155172339Y-84672004D01*
X155172338Y-84672006D01*
X155036270Y-84894049D01*
X154936611Y-85134647D01*
X154875817Y-85387875D01*
X154855384Y-85647500D01*
X154875817Y-85907124D01*
X154936611Y-86160352D01*
X155036270Y-86400950D01*
X155172338Y-86622993D01*
X155172339Y-86622995D01*
X155229652Y-86690100D01*
X155341474Y-86821026D01*
X155427220Y-86894260D01*
X155539504Y-86990160D01*
X155539506Y-86990161D01*
X155761550Y-87126229D01*
X155761549Y-87126229D01*
X156002147Y-87225888D01*
X156002148Y-87225888D01*
X156002150Y-87225889D01*
X156255379Y-87286683D01*
X156349482Y-87294089D01*
X156414767Y-87318972D01*
X156456238Y-87375203D01*
X156460725Y-87444928D01*
X156453306Y-87467515D01*
X156370868Y-87655458D01*
X156370866Y-87655462D01*
X156310676Y-87893151D01*
X156290429Y-88137494D01*
X156290429Y-88137505D01*
X156310676Y-88381848D01*
X156370866Y-88619537D01*
X156469359Y-88844079D01*
X156603463Y-89049339D01*
X156603465Y-89049342D01*
X156769527Y-89229734D01*
X156769530Y-89229736D01*
X156769533Y-89229739D01*
X156963008Y-89380327D01*
X156963014Y-89380331D01*
X156963017Y-89380333D01*
X157178655Y-89497031D01*
X157410559Y-89576644D01*
X157652405Y-89617000D01*
X157897595Y-89617000D01*
X158139441Y-89576644D01*
X158371345Y-89497031D01*
X158586983Y-89380333D01*
X158780473Y-89229734D01*
X158946535Y-89049342D01*
X159080641Y-88844078D01*
X159179133Y-88619539D01*
X159239323Y-88381852D01*
X159259571Y-88137500D01*
X159258134Y-88120159D01*
X159239324Y-87893156D01*
X159239321Y-87893139D01*
X159225272Y-87837663D01*
X159227896Y-87767843D01*
X159242371Y-87738336D01*
X159320754Y-87621028D01*
X159320755Y-87621027D01*
X159320755Y-87621026D01*
X159320757Y-87621024D01*
X159377809Y-87483284D01*
X159377811Y-87483280D01*
X159394883Y-87397455D01*
X159406899Y-87337051D01*
X159406899Y-81500000D01*
X160590518Y-81500000D01*
X160610392Y-81689092D01*
X160610393Y-81689095D01*
X160669145Y-81869917D01*
X160669147Y-81869920D01*
X160726487Y-81969236D01*
X160743100Y-82031234D01*
X160743100Y-87437048D01*
X160743100Y-87437050D01*
X160743099Y-87437050D01*
X160772186Y-87583273D01*
X160772189Y-87583283D01*
X160829026Y-87720501D01*
X160836495Y-87789970D01*
X160834671Y-87798392D01*
X160810676Y-87893149D01*
X160790429Y-88137494D01*
X160790429Y-88137505D01*
X160810676Y-88381848D01*
X160870866Y-88619537D01*
X160969359Y-88844079D01*
X161103463Y-89049339D01*
X161103465Y-89049342D01*
X161269527Y-89229734D01*
X161269530Y-89229736D01*
X161269533Y-89229739D01*
X161463008Y-89380327D01*
X161463014Y-89380331D01*
X161463017Y-89380333D01*
X161678655Y-89497031D01*
X161910559Y-89576644D01*
X162152405Y-89617000D01*
X162397595Y-89617000D01*
X162639441Y-89576644D01*
X162871345Y-89497031D01*
X163086983Y-89380333D01*
X163280473Y-89229734D01*
X163446535Y-89049342D01*
X163580641Y-88844078D01*
X163679133Y-88619539D01*
X163739323Y-88381852D01*
X163759571Y-88137500D01*
X163739323Y-87893148D01*
X163679133Y-87655461D01*
X163596359Y-87466755D01*
X163587456Y-87397455D01*
X163617433Y-87334343D01*
X163676773Y-87297456D01*
X163700174Y-87293329D01*
X163784621Y-87286683D01*
X164037850Y-87225889D01*
X164278450Y-87126229D01*
X164500498Y-86990158D01*
X164698526Y-86821026D01*
X164867658Y-86622998D01*
X165003729Y-86400950D01*
X165103389Y-86160350D01*
X165164183Y-85907121D01*
X165184616Y-85647500D01*
X165164183Y-85387879D01*
X165161982Y-85378711D01*
X169649500Y-85378711D01*
X169649500Y-85621288D01*
X169681161Y-85861785D01*
X169743947Y-86096104D01*
X169836773Y-86320205D01*
X169836776Y-86320212D01*
X169958064Y-86530289D01*
X169958066Y-86530292D01*
X169958067Y-86530293D01*
X170105733Y-86722736D01*
X170105739Y-86722743D01*
X170277256Y-86894260D01*
X170277262Y-86894265D01*
X170469711Y-87041936D01*
X170679788Y-87163224D01*
X170903900Y-87256054D01*
X171138211Y-87318838D01*
X171318586Y-87342584D01*
X171378711Y-87350500D01*
X171378712Y-87350500D01*
X171621289Y-87350500D01*
X171669388Y-87344167D01*
X171861789Y-87318838D01*
X172096100Y-87256054D01*
X172320212Y-87163224D01*
X172530289Y-87041936D01*
X172722738Y-86894265D01*
X172894265Y-86722738D01*
X173041936Y-86530289D01*
X173163224Y-86320212D01*
X173256054Y-86096100D01*
X173318838Y-85861789D01*
X173350500Y-85621288D01*
X173350500Y-85378712D01*
X173318838Y-85138211D01*
X173256054Y-84903900D01*
X173163224Y-84679788D01*
X173041936Y-84469711D01*
X172972883Y-84379719D01*
X172894266Y-84277263D01*
X172894260Y-84277256D01*
X172722743Y-84105739D01*
X172722736Y-84105733D01*
X172530293Y-83958067D01*
X172530292Y-83958066D01*
X172530289Y-83958064D01*
X172320212Y-83836776D01*
X172320205Y-83836773D01*
X172096104Y-83743947D01*
X171861785Y-83681161D01*
X171621289Y-83649500D01*
X171621288Y-83649500D01*
X171378712Y-83649500D01*
X171378711Y-83649500D01*
X171138214Y-83681161D01*
X170903895Y-83743947D01*
X170679794Y-83836773D01*
X170679785Y-83836777D01*
X170469706Y-83958067D01*
X170277263Y-84105733D01*
X170277256Y-84105739D01*
X170105739Y-84277256D01*
X170105733Y-84277263D01*
X169958067Y-84469706D01*
X169836777Y-84679785D01*
X169836773Y-84679794D01*
X169743947Y-84903895D01*
X169681161Y-85138214D01*
X169649500Y-85378711D01*
X165161982Y-85378711D01*
X165103389Y-85134650D01*
X165044757Y-84993100D01*
X165003729Y-84894049D01*
X164867661Y-84672006D01*
X164867660Y-84672004D01*
X164793099Y-84584705D01*
X164698526Y-84473974D01*
X164555788Y-84352064D01*
X164500495Y-84304839D01*
X164500493Y-84304838D01*
X164278449Y-84168770D01*
X164278450Y-84168770D01*
X164037852Y-84069111D01*
X163784624Y-84008317D01*
X163525000Y-83987884D01*
X163265375Y-84008317D01*
X163012147Y-84069111D01*
X162771549Y-84168770D01*
X162549506Y-84304838D01*
X162549498Y-84304844D01*
X162461431Y-84380061D01*
X162397670Y-84408632D01*
X162328584Y-84398195D01*
X162276108Y-84352064D01*
X162256900Y-84285771D01*
X162256900Y-82031234D01*
X162273512Y-81969236D01*
X162330853Y-81869920D01*
X162389608Y-81689092D01*
X162409482Y-81500000D01*
X162389608Y-81310908D01*
X162330853Y-81130080D01*
X162235786Y-80965420D01*
X162108562Y-80824123D01*
X161954741Y-80712365D01*
X161781045Y-80635031D01*
X161781043Y-80635030D01*
X161595067Y-80595500D01*
X161404933Y-80595500D01*
X161218957Y-80635030D01*
X161045257Y-80712366D01*
X160891436Y-80824124D01*
X160764213Y-80965421D01*
X160669147Y-81130079D01*
X160669144Y-81130086D01*
X160610393Y-81310904D01*
X160610392Y-81310908D01*
X160590518Y-81500000D01*
X159406899Y-81500000D01*
X159406899Y-75714881D01*
X159426584Y-75647842D01*
X159443218Y-75627200D01*
X160317919Y-74752499D01*
X160317922Y-74752496D01*
X160355583Y-74696132D01*
X160378338Y-74662078D01*
X160378338Y-74662077D01*
X160387063Y-74649019D01*
X160400756Y-74628526D01*
X160445990Y-74519320D01*
X160457812Y-74490780D01*
X160465067Y-74454306D01*
X160497451Y-74392398D01*
X160558166Y-74357823D01*
X160586684Y-74354499D01*
X161564619Y-74354499D01*
X161578367Y-74352688D01*
X161682806Y-74338940D01*
X161829858Y-74278030D01*
X161956134Y-74181134D01*
X162053030Y-74054858D01*
X162113940Y-73907806D01*
X162119613Y-73864714D01*
X162147880Y-73800818D01*
X162206204Y-73762347D01*
X162242552Y-73756900D01*
X163764549Y-73756900D01*
X163784967Y-73752838D01*
X163886512Y-73732638D01*
X163886515Y-73732638D01*
X163910775Y-73727813D01*
X163910775Y-73727812D01*
X163910780Y-73727812D01*
X163951123Y-73711100D01*
X163951125Y-73711100D01*
X164024306Y-73680788D01*
X164048526Y-73670756D01*
X164094988Y-73639710D01*
X164172496Y-73587923D01*
X164739283Y-73021134D01*
X164800604Y-72987651D01*
X164837766Y-72985289D01*
X164978488Y-72997600D01*
X164999999Y-72999483D01*
X165000000Y-72999483D01*
X165000002Y-72999483D01*
X165056847Y-72994509D01*
X165227389Y-72979589D01*
X165447870Y-72920512D01*
X165654742Y-72824046D01*
X165841719Y-72693122D01*
X166003122Y-72531719D01*
X166025490Y-72499774D01*
X166080066Y-72456151D01*
X166127063Y-72446900D01*
X170325119Y-72446900D01*
X170392158Y-72466585D01*
X170412800Y-72483219D01*
X172017502Y-74087921D01*
X172017505Y-74087923D01*
X172079489Y-74129339D01*
X172141474Y-74170756D01*
X172198530Y-74194389D01*
X172279220Y-74227813D01*
X172358950Y-74243671D01*
X172425452Y-74256900D01*
X173651825Y-74256900D01*
X173718864Y-74276585D01*
X173764619Y-74329389D01*
X173765766Y-74332156D01*
X173766987Y-74334831D01*
X173904396Y-74586477D01*
X173904397Y-74586478D01*
X173904400Y-74586483D01*
X174076231Y-74816021D01*
X174076235Y-74816025D01*
X174076240Y-74816031D01*
X174278968Y-75018759D01*
X174278974Y-75018764D01*
X174278979Y-75018769D01*
X174508517Y-75190600D01*
X174508521Y-75190602D01*
X174508522Y-75190603D01*
X174760168Y-75328012D01*
X174760172Y-75328014D01*
X174760174Y-75328015D01*
X175028825Y-75428216D01*
X175150220Y-75454624D01*
X175308995Y-75489164D01*
X175308997Y-75489164D01*
X175309001Y-75489165D01*
X175563156Y-75507342D01*
X175594999Y-75509620D01*
X175595000Y-75509620D01*
X175595001Y-75509620D01*
X175623653Y-75507570D01*
X175880999Y-75489165D01*
X176161175Y-75428216D01*
X176429826Y-75328015D01*
X176681483Y-75190600D01*
X176911021Y-75018769D01*
X176920447Y-75009343D01*
X176933819Y-74995972D01*
X176995142Y-74962487D01*
X177064834Y-74967471D01*
X177120767Y-75009343D01*
X177145184Y-75074807D01*
X177145500Y-75083653D01*
X177145500Y-75387585D01*
X177125815Y-75454624D01*
X177109181Y-75475266D01*
X176125266Y-76459181D01*
X176063943Y-76492666D01*
X176037585Y-76495500D01*
X174155381Y-76495500D01*
X174037193Y-76511060D01*
X174037187Y-76511062D01*
X173890144Y-76571968D01*
X173763866Y-76668866D01*
X173666968Y-76795144D01*
X173606061Y-76942190D01*
X173606060Y-76942194D01*
X173593488Y-77037686D01*
X173565221Y-77101582D01*
X173506897Y-77140053D01*
X173470549Y-77145500D01*
X172393399Y-77145500D01*
X172323206Y-77156617D01*
X172182819Y-77178853D01*
X172182816Y-77178853D01*
X171980055Y-77244734D01*
X171980052Y-77244736D01*
X171790086Y-77341528D01*
X171617601Y-77466847D01*
X171466847Y-77617601D01*
X171341528Y-77790086D01*
X171244736Y-77980052D01*
X171244734Y-77980055D01*
X171178853Y-78182816D01*
X171178853Y-78182819D01*
X171145500Y-78393399D01*
X171145500Y-78429100D01*
X171125815Y-78496139D01*
X171073011Y-78541894D01*
X171021500Y-78553100D01*
X166127063Y-78553100D01*
X166060024Y-78533415D01*
X166025489Y-78500225D01*
X166022628Y-78496139D01*
X166003122Y-78468281D01*
X165841719Y-78306878D01*
X165841717Y-78306876D01*
X165841712Y-78306872D01*
X165654745Y-78175955D01*
X165654741Y-78175953D01*
X165551306Y-78127721D01*
X165447870Y-78079488D01*
X165447866Y-78079487D01*
X165447862Y-78079485D01*
X165227394Y-78020412D01*
X165227390Y-78020411D01*
X165227389Y-78020411D01*
X165227388Y-78020410D01*
X165227383Y-78020410D01*
X165000002Y-78000517D01*
X164999998Y-78000517D01*
X164772616Y-78020410D01*
X164772605Y-78020412D01*
X164552137Y-78079485D01*
X164552128Y-78079489D01*
X164345259Y-78175953D01*
X164345255Y-78175955D01*
X164158280Y-78306878D01*
X163996878Y-78468280D01*
X163865955Y-78655255D01*
X163865953Y-78655259D01*
X163769489Y-78862128D01*
X163769485Y-78862137D01*
X163710412Y-79082605D01*
X163710410Y-79082616D01*
X163690517Y-79309998D01*
X163690517Y-79310001D01*
X163710410Y-79537383D01*
X163710412Y-79537394D01*
X163769485Y-79757862D01*
X163769487Y-79757866D01*
X163769488Y-79757870D01*
X163814547Y-79854500D01*
X163865953Y-79964741D01*
X163865955Y-79964745D01*
X163996872Y-80151712D01*
X163996881Y-80151722D01*
X164158277Y-80313118D01*
X164158287Y-80313127D01*
X164345254Y-80444044D01*
X164345258Y-80444046D01*
X164552130Y-80540512D01*
X164772611Y-80599589D01*
X164935031Y-80613799D01*
X164999998Y-80619483D01*
X165000000Y-80619483D01*
X165000002Y-80619483D01*
X165056847Y-80614509D01*
X165227389Y-80599589D01*
X165447870Y-80540512D01*
X165654742Y-80444046D01*
X165815996Y-80331134D01*
X165841712Y-80313127D01*
X165841712Y-80313126D01*
X165841719Y-80313122D01*
X166003122Y-80151719D01*
X166025490Y-80119774D01*
X166080066Y-80076151D01*
X166127063Y-80066900D01*
X171764549Y-80066900D01*
X171784967Y-80062838D01*
X171886512Y-80042638D01*
X171886515Y-80042638D01*
X171910775Y-80037813D01*
X171910775Y-80037812D01*
X171910780Y-80037812D01*
X171951123Y-80021100D01*
X171951125Y-80021100D01*
X172012547Y-79995658D01*
X172048526Y-79980756D01*
X172094988Y-79949710D01*
X172110081Y-79939626D01*
X172128994Y-79926989D01*
X172172496Y-79897923D01*
X172195510Y-79874908D01*
X172256832Y-79841423D01*
X172302587Y-79840116D01*
X172393399Y-79854500D01*
X173470550Y-79854500D01*
X173537589Y-79874185D01*
X173583344Y-79926989D01*
X173593488Y-79962314D01*
X173593809Y-79964745D01*
X173606060Y-80057806D01*
X173606062Y-80057812D01*
X173666968Y-80204855D01*
X173666969Y-80204857D01*
X173666970Y-80204858D01*
X173763866Y-80331134D01*
X173890142Y-80428030D01*
X174037194Y-80488940D01*
X174155381Y-80504500D01*
X177034618Y-80504499D01*
X177152806Y-80488940D01*
X177299858Y-80428030D01*
X177426134Y-80331134D01*
X177523030Y-80204858D01*
X177583940Y-80057806D01*
X177599500Y-79939619D01*
X177599499Y-78867412D01*
X177619183Y-78800374D01*
X177635813Y-78779737D01*
X179533154Y-76882398D01*
X179596549Y-76795142D01*
X179658472Y-76709913D01*
X179744060Y-76541936D01*
X179755264Y-76519948D01*
X179758069Y-76511312D01*
X179797506Y-76453639D01*
X179861865Y-76426440D01*
X179930711Y-76438354D01*
X179982187Y-76485598D01*
X180000000Y-76549632D01*
X180000000Y-90376000D01*
X179980315Y-90443039D01*
X179927511Y-90488794D01*
X179876000Y-90500000D01*
X120624000Y-90500000D01*
X120556961Y-90480315D01*
X120511206Y-90427511D01*
X120500000Y-90376000D01*
X120500000Y-74878711D01*
X122649500Y-74878711D01*
X122649500Y-75121288D01*
X122678824Y-75344035D01*
X122681162Y-75361789D01*
X122700057Y-75432306D01*
X122743947Y-75596104D01*
X122814549Y-75766552D01*
X122836776Y-75820212D01*
X122958064Y-76030289D01*
X122958066Y-76030292D01*
X122958067Y-76030293D01*
X123105733Y-76222736D01*
X123105739Y-76222743D01*
X123277256Y-76394260D01*
X123277262Y-76394265D01*
X123469711Y-76541936D01*
X123679788Y-76663224D01*
X123903900Y-76756054D01*
X124138211Y-76818838D01*
X124318586Y-76842584D01*
X124378711Y-76850500D01*
X124378712Y-76850500D01*
X124621289Y-76850500D01*
X124669388Y-76844167D01*
X124861789Y-76818838D01*
X125096100Y-76756054D01*
X125320212Y-76663224D01*
X125530289Y-76541936D01*
X125722738Y-76394265D01*
X125894265Y-76222738D01*
X126041936Y-76030289D01*
X126163224Y-75820212D01*
X126256054Y-75596100D01*
X126318838Y-75361789D01*
X126350500Y-75121288D01*
X126350500Y-74878712D01*
X126318838Y-74638211D01*
X126256054Y-74403900D01*
X126163224Y-74179788D01*
X126041936Y-73969711D01*
X125923957Y-73815957D01*
X125894266Y-73777263D01*
X125894260Y-73777256D01*
X125722743Y-73605739D01*
X125722736Y-73605733D01*
X125530293Y-73458067D01*
X125530292Y-73458066D01*
X125530289Y-73458064D01*
X125320212Y-73336776D01*
X125264970Y-73313894D01*
X125096104Y-73243947D01*
X124861785Y-73181161D01*
X124621289Y-73149500D01*
X124621288Y-73149500D01*
X124378712Y-73149500D01*
X124378711Y-73149500D01*
X124138214Y-73181161D01*
X123903895Y-73243947D01*
X123679794Y-73336773D01*
X123679785Y-73336777D01*
X123469706Y-73458067D01*
X123277263Y-73605733D01*
X123277256Y-73605739D01*
X123105739Y-73777256D01*
X123105733Y-73777263D01*
X122958067Y-73969706D01*
X122836777Y-74179785D01*
X122836773Y-74179794D01*
X122743947Y-74403895D01*
X122681161Y-74638214D01*
X122649500Y-74878711D01*
X120500000Y-74878711D01*
X120500000Y-48600000D01*
X121318185Y-48600000D01*
X121334110Y-48802347D01*
X121337414Y-48844319D01*
X121337414Y-48844323D01*
X121394624Y-49082624D01*
X121488409Y-49309042D01*
X121488412Y-49309047D01*
X121488413Y-49309049D01*
X121616465Y-49518012D01*
X121775630Y-49704370D01*
X121842737Y-49761685D01*
X121859158Y-49775710D01*
X121897351Y-49834217D01*
X121897849Y-49904085D01*
X121860495Y-49963131D01*
X121859158Y-49964290D01*
X121775630Y-50035630D01*
X121616465Y-50221987D01*
X121488409Y-50430957D01*
X121394624Y-50657375D01*
X121337414Y-50895674D01*
X121318185Y-51140000D01*
X121337414Y-51384325D01*
X121394624Y-51622624D01*
X121488409Y-51849042D01*
X121488412Y-51849047D01*
X121488413Y-51849049D01*
X121616465Y-52058012D01*
X121775630Y-52244370D01*
X121835026Y-52295099D01*
X121859158Y-52315710D01*
X121897351Y-52374217D01*
X121897849Y-52444085D01*
X121860495Y-52503131D01*
X121859158Y-52504290D01*
X121775630Y-52575630D01*
X121616465Y-52761987D01*
X121488409Y-52970957D01*
X121394624Y-53197375D01*
X121337414Y-53435674D01*
X121318185Y-53680000D01*
X121337414Y-53924325D01*
X121394624Y-54162624D01*
X121488409Y-54389042D01*
X121488412Y-54389047D01*
X121488413Y-54389049D01*
X121616465Y-54598012D01*
X121775630Y-54784370D01*
X121839922Y-54839281D01*
X121859158Y-54855710D01*
X121897351Y-54914217D01*
X121897849Y-54984085D01*
X121860495Y-55043131D01*
X121859158Y-55044290D01*
X121775630Y-55115630D01*
X121616465Y-55301987D01*
X121488409Y-55510957D01*
X121394624Y-55737375D01*
X121337414Y-55975674D01*
X121318185Y-56220000D01*
X121337414Y-56464325D01*
X121394624Y-56702624D01*
X121488409Y-56929042D01*
X121488412Y-56929047D01*
X121488413Y-56929049D01*
X121616465Y-57138012D01*
X121775630Y-57324370D01*
X121808207Y-57352193D01*
X121859158Y-57395710D01*
X121897351Y-57454217D01*
X121897849Y-57524085D01*
X121860495Y-57583131D01*
X121859158Y-57584290D01*
X121775630Y-57655630D01*
X121616465Y-57841987D01*
X121488409Y-58050957D01*
X121394624Y-58277375D01*
X121337414Y-58515674D01*
X121318185Y-58760000D01*
X121337414Y-59004325D01*
X121394624Y-59242624D01*
X121488409Y-59469042D01*
X121488412Y-59469047D01*
X121488413Y-59469049D01*
X121616465Y-59678012D01*
X121775630Y-59864370D01*
X121821908Y-59903895D01*
X121859158Y-59935710D01*
X121897351Y-59994217D01*
X121897849Y-60064085D01*
X121860495Y-60123131D01*
X121859158Y-60124290D01*
X121775630Y-60195630D01*
X121616465Y-60381987D01*
X121488409Y-60590957D01*
X121394624Y-60817375D01*
X121337414Y-61055674D01*
X121318185Y-61300000D01*
X121337414Y-61544325D01*
X121394624Y-61782624D01*
X121488409Y-62009042D01*
X121488412Y-62009047D01*
X121488413Y-62009049D01*
X121616465Y-62218012D01*
X121775630Y-62404370D01*
X121842737Y-62461685D01*
X121859158Y-62475710D01*
X121897351Y-62534217D01*
X121897849Y-62604085D01*
X121860495Y-62663131D01*
X121859158Y-62664290D01*
X121775630Y-62735630D01*
X121616465Y-62921987D01*
X121488409Y-63130957D01*
X121394624Y-63357375D01*
X121337414Y-63595674D01*
X121318185Y-63840000D01*
X121337414Y-64084325D01*
X121394624Y-64322624D01*
X121488409Y-64549042D01*
X121488412Y-64549047D01*
X121488413Y-64549049D01*
X121616465Y-64758012D01*
X121775630Y-64944370D01*
X121842737Y-65001685D01*
X121859158Y-65015710D01*
X121897351Y-65074217D01*
X121897849Y-65144085D01*
X121860495Y-65203131D01*
X121859158Y-65204290D01*
X121775630Y-65275630D01*
X121616465Y-65461987D01*
X121488409Y-65670957D01*
X121394624Y-65897375D01*
X121337414Y-66135674D01*
X121318185Y-66380000D01*
X121337414Y-66624325D01*
X121394624Y-66862624D01*
X121488409Y-67089042D01*
X121488412Y-67089047D01*
X121488413Y-67089049D01*
X121616465Y-67298012D01*
X121775630Y-67484370D01*
X121961988Y-67643535D01*
X122170951Y-67771587D01*
X122170954Y-67771588D01*
X122170957Y-67771590D01*
X122397375Y-67865375D01*
X122618772Y-67918527D01*
X122635678Y-67922586D01*
X122880000Y-67941815D01*
X123124322Y-67922586D01*
X123243474Y-67893980D01*
X123362624Y-67865375D01*
X123362625Y-67865374D01*
X123362627Y-67865374D01*
X123586577Y-67772611D01*
X123589042Y-67771590D01*
X123589042Y-67771589D01*
X123589049Y-67771587D01*
X123798012Y-67643535D01*
X123984370Y-67484370D01*
X124143535Y-67298012D01*
X124271587Y-67089049D01*
X124365374Y-66862627D01*
X124387735Y-66769489D01*
X124422585Y-66624325D01*
X124422586Y-66624322D01*
X124441815Y-66380000D01*
X124422586Y-66135678D01*
X124418527Y-66118772D01*
X124365375Y-65897375D01*
X124271590Y-65670957D01*
X124271588Y-65670954D01*
X124271587Y-65670951D01*
X124143535Y-65461988D01*
X123984370Y-65275630D01*
X123900840Y-65204288D01*
X123862648Y-65145783D01*
X123862149Y-65075916D01*
X123899503Y-65016869D01*
X123900790Y-65015753D01*
X123984370Y-64944370D01*
X124143535Y-64758012D01*
X124271587Y-64549049D01*
X124365374Y-64322627D01*
X124422586Y-64084322D01*
X124441815Y-63840000D01*
X124422586Y-63595678D01*
X124418527Y-63578772D01*
X124365375Y-63357375D01*
X124271590Y-63130957D01*
X124271588Y-63130954D01*
X124271587Y-63130951D01*
X124143535Y-62921988D01*
X123984370Y-62735630D01*
X123900840Y-62664288D01*
X123862648Y-62605783D01*
X123862149Y-62535916D01*
X123899503Y-62476869D01*
X123900790Y-62475753D01*
X123984370Y-62404370D01*
X124143535Y-62218012D01*
X124271587Y-62009049D01*
X124365374Y-61782627D01*
X124422586Y-61544322D01*
X124441815Y-61300000D01*
X124422586Y-61055678D01*
X124384862Y-60898547D01*
X124365375Y-60817375D01*
X124271590Y-60590957D01*
X124271588Y-60590954D01*
X124271587Y-60590951D01*
X124143535Y-60381988D01*
X123984370Y-60195630D01*
X123900840Y-60124288D01*
X123862648Y-60065783D01*
X123862149Y-59995916D01*
X123899503Y-59936869D01*
X123900790Y-59935753D01*
X123984370Y-59864370D01*
X124143535Y-59678012D01*
X124271587Y-59469049D01*
X124365374Y-59242627D01*
X124366769Y-59236819D01*
X124419422Y-59017501D01*
X124422586Y-59004322D01*
X124441815Y-58760000D01*
X124422586Y-58515678D01*
X124369169Y-58293179D01*
X124365375Y-58277375D01*
X124271590Y-58050957D01*
X124271588Y-58050954D01*
X124271587Y-58050951D01*
X124143535Y-57841988D01*
X123984370Y-57655630D01*
X123900840Y-57584288D01*
X123862648Y-57525783D01*
X123862149Y-57455916D01*
X123899503Y-57396869D01*
X123900790Y-57395753D01*
X123984370Y-57324370D01*
X124143535Y-57138012D01*
X124271587Y-56929049D01*
X124365374Y-56702627D01*
X124422586Y-56464322D01*
X124441815Y-56220000D01*
X124422586Y-55975678D01*
X124402915Y-55893741D01*
X124365375Y-55737375D01*
X124271590Y-55510957D01*
X124271588Y-55510954D01*
X124271587Y-55510951D01*
X124143535Y-55301988D01*
X123984370Y-55115630D01*
X123900840Y-55044288D01*
X123862648Y-54985783D01*
X123862149Y-54915916D01*
X123899503Y-54856869D01*
X123900790Y-54855753D01*
X123984370Y-54784370D01*
X124143535Y-54598012D01*
X124271587Y-54389049D01*
X124282000Y-54363911D01*
X124344563Y-54212869D01*
X124365374Y-54162627D01*
X124388630Y-54065761D01*
X124414075Y-53959774D01*
X124422586Y-53924322D01*
X124441815Y-53680000D01*
X124422586Y-53435678D01*
X124391215Y-53305007D01*
X124365375Y-53197375D01*
X124271590Y-52970957D01*
X124271588Y-52970954D01*
X124271587Y-52970951D01*
X124143535Y-52761988D01*
X123984370Y-52575630D01*
X123900840Y-52504288D01*
X123862648Y-52445783D01*
X123862149Y-52375916D01*
X123899503Y-52316869D01*
X123900790Y-52315753D01*
X123984370Y-52244370D01*
X124143535Y-52058012D01*
X124271587Y-51849049D01*
X124277954Y-51833679D01*
X124331705Y-51703911D01*
X124365374Y-51622627D01*
X124376607Y-51575841D01*
X124414329Y-51418714D01*
X124422586Y-51384322D01*
X124441815Y-51140000D01*
X124422586Y-50895678D01*
X124417557Y-50874732D01*
X124365375Y-50657375D01*
X124271590Y-50430957D01*
X124271588Y-50430954D01*
X124271587Y-50430951D01*
X124143535Y-50221988D01*
X123984370Y-50035630D01*
X123900840Y-49964288D01*
X123862648Y-49905783D01*
X123862149Y-49835916D01*
X123899503Y-49776869D01*
X123900790Y-49775753D01*
X123984370Y-49704370D01*
X124143535Y-49518012D01*
X124271587Y-49309049D01*
X124365374Y-49082627D01*
X124422586Y-48844322D01*
X124441815Y-48600000D01*
X124422586Y-48355678D01*
X124418527Y-48338772D01*
X124365375Y-48117375D01*
X124271590Y-47890957D01*
X124271588Y-47890954D01*
X124271587Y-47890951D01*
X124143535Y-47681988D01*
X123984370Y-47495630D01*
X123798012Y-47336465D01*
X123589049Y-47208413D01*
X123589047Y-47208412D01*
X123589042Y-47208409D01*
X123362624Y-47114624D01*
X123124325Y-47057414D01*
X122880000Y-47038185D01*
X122635674Y-47057414D01*
X122397375Y-47114624D01*
X122170957Y-47208409D01*
X121961987Y-47336465D01*
X121775630Y-47495630D01*
X121616465Y-47681987D01*
X121488409Y-47890957D01*
X121394624Y-48117375D01*
X121337414Y-48355674D01*
X121337414Y-48355678D01*
X121318185Y-48600000D01*
X120500000Y-48600000D01*
X120500000Y-46124000D01*
X120519685Y-46056961D01*
X120572489Y-46011206D01*
X120624000Y-46000000D01*
X146805584Y-46000000D01*
X146872623Y-46019685D01*
G37*
%TD.AperFunction*%
%TA.AperFunction,Conductor*%
G36*
X139339955Y-74289919D02*
G01*
X139375620Y-74350001D01*
X139373142Y-74419826D01*
X139361207Y-74445482D01*
X139315959Y-74519321D01*
X139219313Y-74752644D01*
X139160353Y-74998229D01*
X139140539Y-75250000D01*
X139160353Y-75501770D01*
X139160353Y-75501773D01*
X139160354Y-75501775D01*
X139170983Y-75546048D01*
X139219313Y-75747355D01*
X139315957Y-75980676D01*
X139315959Y-75980679D01*
X139447917Y-76196014D01*
X139447920Y-76196019D01*
X139470745Y-76222743D01*
X139611939Y-76388061D01*
X139726141Y-76485598D01*
X139803980Y-76552079D01*
X139803982Y-76552080D01*
X139803983Y-76552081D01*
X139985355Y-76663226D01*
X140019320Y-76684040D01*
X140019323Y-76684042D01*
X140193172Y-76756052D01*
X140252649Y-76780688D01*
X140498225Y-76839646D01*
X140750000Y-76859461D01*
X141001775Y-76839646D01*
X141149924Y-76804078D01*
X141219706Y-76807569D01*
X141266552Y-76836971D01*
X147017502Y-82587921D01*
X147017505Y-82587923D01*
X147079489Y-82629339D01*
X147141474Y-82670756D01*
X147198530Y-82694389D01*
X147279220Y-82727813D01*
X147358950Y-82743671D01*
X147425452Y-82756900D01*
X151070456Y-82756900D01*
X151137495Y-82776585D01*
X151183250Y-82829389D01*
X151193194Y-82898547D01*
X151164169Y-82962103D01*
X151117909Y-82995461D01*
X150879263Y-83094311D01*
X150879252Y-83094316D01*
X150656236Y-83223076D01*
X150451937Y-83379840D01*
X150451930Y-83379846D01*
X150269846Y-83561930D01*
X150269840Y-83561937D01*
X150113076Y-83766236D01*
X149984316Y-83989252D01*
X149984311Y-83989263D01*
X149885763Y-84227178D01*
X149864953Y-84304844D01*
X149820778Y-84469711D01*
X149819114Y-84475920D01*
X149819111Y-84475933D01*
X149785501Y-84731229D01*
X149785500Y-84731246D01*
X149785500Y-84869100D01*
X149765815Y-84936139D01*
X149713011Y-84981894D01*
X149661500Y-84993100D01*
X140338500Y-84993100D01*
X140271461Y-84973415D01*
X140225706Y-84920611D01*
X140214500Y-84869100D01*
X140214500Y-84731246D01*
X140214500Y-84731240D01*
X140180887Y-84475923D01*
X140114236Y-84227177D01*
X140015687Y-83989260D01*
X140015685Y-83989257D01*
X140015683Y-83989252D01*
X139969681Y-83909576D01*
X139886927Y-83766241D01*
X139730158Y-83561936D01*
X139730153Y-83561930D01*
X139548069Y-83379846D01*
X139548062Y-83379840D01*
X139343763Y-83223076D01*
X139343762Y-83223075D01*
X139343759Y-83223073D01*
X139238570Y-83162342D01*
X139120750Y-83094318D01*
X139120736Y-83094311D01*
X139083445Y-83078864D01*
X139029042Y-83035022D01*
X139006979Y-82968727D01*
X139006900Y-82964304D01*
X139006900Y-81675449D01*
X138977813Y-81529225D01*
X138977811Y-81529219D01*
X138965719Y-81500025D01*
X138965707Y-81499998D01*
X138929290Y-81412078D01*
X138920756Y-81391474D01*
X138866923Y-81310908D01*
X138837922Y-81267504D01*
X138837920Y-81267502D01*
X138837918Y-81267499D01*
X136293219Y-78722800D01*
X136259734Y-78661477D01*
X136256900Y-78635119D01*
X136256900Y-75377893D01*
X136276585Y-75310854D01*
X136329389Y-75265099D01*
X136398547Y-75255155D01*
X136453783Y-75277574D01*
X136545259Y-75344035D01*
X136718955Y-75421369D01*
X136904933Y-75460900D01*
X137095067Y-75460900D01*
X137281045Y-75421369D01*
X137454741Y-75344035D01*
X137608562Y-75232277D01*
X137735786Y-75090980D01*
X137830853Y-74926320D01*
X137889608Y-74745492D01*
X137909482Y-74556400D01*
X137901849Y-74483783D01*
X137914418Y-74415058D01*
X137962150Y-74364033D01*
X138029890Y-74346915D01*
X138075601Y-74357544D01*
X138218955Y-74421369D01*
X138404933Y-74460900D01*
X138595067Y-74460900D01*
X138781045Y-74421369D01*
X138954741Y-74344035D01*
X138967077Y-74335072D01*
X139015769Y-74313773D01*
X139018147Y-74313300D01*
X139018148Y-74313300D01*
X139140112Y-74289038D01*
X139140115Y-74289038D01*
X139164375Y-74284213D01*
X139164375Y-74284212D01*
X139164380Y-74284212D01*
X139204724Y-74267500D01*
X139208003Y-74266141D01*
X139277469Y-74258658D01*
X139339955Y-74289919D01*
G37*
%TD.AperFunction*%
%TA.AperFunction,Conductor*%
G36*
X171721935Y-53796362D02*
G01*
X171742577Y-53812996D01*
X173422881Y-55493300D01*
X173456366Y-55554623D01*
X173459200Y-55580981D01*
X173459200Y-59419019D01*
X173439515Y-59486058D01*
X173422881Y-59506700D01*
X169222800Y-63706781D01*
X169161477Y-63740266D01*
X169135119Y-63743100D01*
X162425450Y-63743100D01*
X162303482Y-63767362D01*
X162285243Y-63770989D01*
X162279219Y-63772188D01*
X162279218Y-63772188D01*
X162222164Y-63795820D01*
X162222164Y-63795821D01*
X162181819Y-63812532D01*
X162141473Y-63829244D01*
X162131320Y-63836029D01*
X162131308Y-63836035D01*
X162017508Y-63912074D01*
X162017500Y-63912080D01*
X159260717Y-66668862D01*
X159199394Y-66702347D01*
X159162229Y-66704709D01*
X159000002Y-66690517D01*
X158999998Y-66690517D01*
X158772616Y-66710410D01*
X158772605Y-66710412D01*
X158552137Y-66769485D01*
X158552128Y-66769489D01*
X158345259Y-66865953D01*
X158345255Y-66865955D01*
X158158280Y-66996878D01*
X157996878Y-67158280D01*
X157865955Y-67345255D01*
X157865953Y-67345259D01*
X157769489Y-67552128D01*
X157769485Y-67552137D01*
X157710412Y-67772605D01*
X157710410Y-67772616D01*
X157690517Y-67999998D01*
X157690517Y-68000001D01*
X157710410Y-68227383D01*
X157710412Y-68227394D01*
X157769485Y-68447862D01*
X157769487Y-68447866D01*
X157769488Y-68447870D01*
X157798099Y-68509226D01*
X157865953Y-68654741D01*
X157865955Y-68654745D01*
X157996872Y-68841712D01*
X157996881Y-68841722D01*
X158158277Y-69003118D01*
X158158287Y-69003127D01*
X158345254Y-69134044D01*
X158345258Y-69134046D01*
X158552130Y-69230512D01*
X158772611Y-69289589D01*
X158859907Y-69297226D01*
X158924976Y-69322678D01*
X158965955Y-69379269D01*
X158973100Y-69420754D01*
X158973100Y-71583417D01*
X158953415Y-71650456D01*
X158900611Y-71696211D01*
X158831453Y-71706155D01*
X158810783Y-71701348D01*
X158724495Y-71673312D01*
X158580185Y-71650456D01*
X158548894Y-71645500D01*
X158371106Y-71645500D01*
X158255167Y-71663862D01*
X158185874Y-71654907D01*
X158148089Y-71629070D01*
X153931101Y-67412081D01*
X153931100Y-67412080D01*
X153853588Y-67360289D01*
X153853587Y-67360288D01*
X153807131Y-67329247D01*
X153807119Y-67329240D01*
X153709726Y-67288899D01*
X153709726Y-67288900D01*
X153709724Y-67288899D01*
X153669380Y-67272188D01*
X153669376Y-67272187D01*
X153669373Y-67272186D01*
X153645115Y-67267361D01*
X153645114Y-67267361D01*
X153523150Y-67243100D01*
X153523148Y-67243100D01*
X152507063Y-67243100D01*
X152440024Y-67223415D01*
X152405489Y-67190225D01*
X152383122Y-67158281D01*
X152221719Y-66996878D01*
X152221717Y-66996876D01*
X152221712Y-66996872D01*
X152034745Y-66865955D01*
X152034741Y-66865953D01*
X151931306Y-66817721D01*
X151827870Y-66769488D01*
X151827866Y-66769487D01*
X151827862Y-66769485D01*
X151607394Y-66710412D01*
X151607390Y-66710411D01*
X151607389Y-66710411D01*
X151607388Y-66710410D01*
X151607383Y-66710410D01*
X151380002Y-66690517D01*
X151379998Y-66690517D01*
X151152616Y-66710410D01*
X151152605Y-66710412D01*
X150932137Y-66769485D01*
X150932128Y-66769489D01*
X150725259Y-66865953D01*
X150725255Y-66865955D01*
X150538280Y-66996878D01*
X150376878Y-67158280D01*
X150245955Y-67345255D01*
X150245953Y-67345259D01*
X150149489Y-67552128D01*
X150149485Y-67552137D01*
X150090412Y-67772605D01*
X150090410Y-67772616D01*
X150070517Y-67999998D01*
X150070517Y-68000001D01*
X150090410Y-68227383D01*
X150090412Y-68227394D01*
X150149485Y-68447862D01*
X150149487Y-68447866D01*
X150149488Y-68447870D01*
X150178099Y-68509226D01*
X150245953Y-68654741D01*
X150245955Y-68654745D01*
X150376872Y-68841712D01*
X150376881Y-68841722D01*
X150538277Y-69003118D01*
X150538287Y-69003127D01*
X150725254Y-69134044D01*
X150725258Y-69134046D01*
X150932130Y-69230512D01*
X151152611Y-69289589D01*
X151315031Y-69303799D01*
X151379998Y-69309483D01*
X151380000Y-69309483D01*
X151380002Y-69309483D01*
X151436847Y-69304509D01*
X151607389Y-69289589D01*
X151827870Y-69230512D01*
X152034742Y-69134046D01*
X152221719Y-69003122D01*
X152383122Y-68841719D01*
X152405490Y-68809774D01*
X152460066Y-68766151D01*
X152507063Y-68756900D01*
X153083719Y-68756900D01*
X153150758Y-68776585D01*
X153171400Y-68793219D01*
X157294181Y-72916000D01*
X157327666Y-72977323D01*
X157330500Y-73003681D01*
X157330500Y-73313893D01*
X157358312Y-73489493D01*
X157413249Y-73658575D01*
X157440012Y-73711100D01*
X157493441Y-73815959D01*
X157493967Y-73816990D01*
X157598459Y-73960814D01*
X157724185Y-74086540D01*
X157852533Y-74179788D01*
X157868013Y-74191035D01*
X158000730Y-74258658D01*
X158026424Y-74271750D01*
X158195507Y-74326688D01*
X158212561Y-74329389D01*
X158306824Y-74344318D01*
X158369958Y-74374247D01*
X158406890Y-74433558D01*
X158405892Y-74503420D01*
X158375107Y-74554472D01*
X158062077Y-74867502D01*
X158010287Y-74945013D01*
X157979248Y-74991466D01*
X157979239Y-74991482D01*
X157922188Y-75129217D01*
X157922185Y-75129227D01*
X157893099Y-75275450D01*
X157893099Y-81119100D01*
X157873414Y-81186139D01*
X157820610Y-81231894D01*
X157769099Y-81243100D01*
X147864880Y-81243100D01*
X147797841Y-81223415D01*
X147777199Y-81206781D01*
X142336971Y-75766552D01*
X142303486Y-75705229D01*
X142304078Y-75649924D01*
X142317000Y-75596100D01*
X142339646Y-75501775D01*
X142359461Y-75250000D01*
X142339646Y-74998225D01*
X142280688Y-74752649D01*
X142277725Y-74745495D01*
X142184041Y-74519321D01*
X142184040Y-74519320D01*
X142076798Y-74344318D01*
X142052081Y-74303983D01*
X142052080Y-74303982D01*
X142052079Y-74303980D01*
X141986465Y-74227156D01*
X141965112Y-74202155D01*
X147750000Y-74202155D01*
X147750000Y-75000000D01*
X148677058Y-75000000D01*
X148649019Y-75067694D01*
X148625000Y-75188443D01*
X148625000Y-75311557D01*
X148649019Y-75432306D01*
X148677058Y-75500000D01*
X147750000Y-75500000D01*
X147750000Y-76297844D01*
X147756401Y-76357372D01*
X147756403Y-76357379D01*
X147806645Y-76492086D01*
X147806649Y-76492093D01*
X147892809Y-76607187D01*
X147892812Y-76607190D01*
X148007906Y-76693350D01*
X148007913Y-76693354D01*
X148142620Y-76743596D01*
X148142627Y-76743598D01*
X148202155Y-76749999D01*
X148202172Y-76750000D01*
X149000000Y-76750000D01*
X149000000Y-75822941D01*
X149067694Y-75850981D01*
X149188443Y-75875000D01*
X149311557Y-75875000D01*
X149432306Y-75850981D01*
X149500000Y-75822941D01*
X149500000Y-76750000D01*
X150297828Y-76750000D01*
X150297844Y-76749999D01*
X150357372Y-76743598D01*
X150357379Y-76743596D01*
X150492086Y-76693354D01*
X150492093Y-76693350D01*
X150607187Y-76607190D01*
X150607190Y-76607187D01*
X150693350Y-76492093D01*
X150693354Y-76492086D01*
X150743596Y-76357379D01*
X150743598Y-76357372D01*
X150749999Y-76297844D01*
X150750000Y-76297827D01*
X150750000Y-75500000D01*
X149822942Y-75500000D01*
X149850981Y-75432306D01*
X149875000Y-75311557D01*
X149875000Y-75188443D01*
X149850981Y-75067694D01*
X149822942Y-75000000D01*
X150750000Y-75000000D01*
X150750000Y-74202172D01*
X150749999Y-74202155D01*
X150743598Y-74142627D01*
X150743596Y-74142620D01*
X150693354Y-74007913D01*
X150693350Y-74007906D01*
X150607190Y-73892812D01*
X150607187Y-73892809D01*
X150492093Y-73806649D01*
X150492086Y-73806645D01*
X150357379Y-73756403D01*
X150357372Y-73756401D01*
X150297844Y-73750000D01*
X149500000Y-73750000D01*
X149500000Y-74677058D01*
X149432306Y-74649019D01*
X149311557Y-74625000D01*
X149188443Y-74625000D01*
X149067694Y-74649019D01*
X149000000Y-74677058D01*
X149000000Y-73750000D01*
X148202155Y-73750000D01*
X148142627Y-73756401D01*
X148142620Y-73756403D01*
X148007913Y-73806645D01*
X148007906Y-73806649D01*
X147892812Y-73892809D01*
X147892809Y-73892812D01*
X147806649Y-74007906D01*
X147806645Y-74007913D01*
X147756403Y-74142620D01*
X147756401Y-74142627D01*
X147750000Y-74202155D01*
X141965112Y-74202155D01*
X141888061Y-74111939D01*
X141783070Y-74022269D01*
X141696019Y-73947920D01*
X141696014Y-73947917D01*
X141480679Y-73815959D01*
X141480676Y-73815957D01*
X141247355Y-73719313D01*
X141045106Y-73670757D01*
X141001775Y-73660354D01*
X141001773Y-73660353D01*
X141001770Y-73660353D01*
X140750000Y-73640539D01*
X140498229Y-73660353D01*
X140252644Y-73719313D01*
X140143109Y-73764684D01*
X140073640Y-73772153D01*
X140011161Y-73740877D01*
X139975509Y-73680788D01*
X139978003Y-73610963D01*
X140007974Y-73562444D01*
X151277199Y-62293218D01*
X151338522Y-62259734D01*
X151364880Y-62256900D01*
X160534549Y-62256900D01*
X160554967Y-62252838D01*
X160656512Y-62232638D01*
X160656515Y-62232638D01*
X160680775Y-62227813D01*
X160680775Y-62227812D01*
X160680780Y-62227812D01*
X160721123Y-62211100D01*
X160721125Y-62211100D01*
X160782547Y-62185658D01*
X160818526Y-62170756D01*
X160864988Y-62139710D01*
X160942496Y-62087923D01*
X161608275Y-61422142D01*
X161669596Y-61388659D01*
X161670027Y-61388566D01*
X161781045Y-61364969D01*
X161954741Y-61287635D01*
X162108562Y-61175877D01*
X162235786Y-61034580D01*
X162330853Y-60869920D01*
X162389608Y-60689092D01*
X162390688Y-60678812D01*
X162417268Y-60614200D01*
X162426319Y-60604098D01*
X165200207Y-57830210D01*
X165261528Y-57796727D01*
X165298689Y-57794365D01*
X165460000Y-57808479D01*
X165687215Y-57788600D01*
X165907526Y-57729568D01*
X166114240Y-57633176D01*
X166301074Y-57502353D01*
X166392319Y-57411108D01*
X166453642Y-57377623D01*
X166523334Y-57382607D01*
X166567681Y-57411108D01*
X166658926Y-57502353D01*
X166845760Y-57633176D01*
X167052474Y-57729568D01*
X167052480Y-57729569D01*
X167052481Y-57729570D01*
X167105505Y-57743777D01*
X167272785Y-57788600D01*
X167454557Y-57804503D01*
X167499999Y-57808479D01*
X167500000Y-57808479D01*
X167500001Y-57808479D01*
X167537869Y-57805165D01*
X167727215Y-57788600D01*
X167947526Y-57729568D01*
X168154240Y-57633176D01*
X168341074Y-57502353D01*
X168432319Y-57411108D01*
X168493642Y-57377623D01*
X168563334Y-57382607D01*
X168607681Y-57411108D01*
X168698926Y-57502353D01*
X168885760Y-57633176D01*
X169092474Y-57729568D01*
X169092479Y-57729569D01*
X169092483Y-57729571D01*
X169136841Y-57741456D01*
X169160416Y-57747772D01*
X169175527Y-57753793D01*
X169175846Y-57753025D01*
X169309726Y-57808479D01*
X169319221Y-57812412D01*
X169319225Y-57812412D01*
X169319226Y-57812413D01*
X169465449Y-57841500D01*
X169465452Y-57841500D01*
X169614550Y-57841500D01*
X169712923Y-57821931D01*
X169760779Y-57812412D01*
X169840915Y-57779219D01*
X169904157Y-57753024D01*
X169904493Y-57753835D01*
X169919586Y-57747771D01*
X169944143Y-57741191D01*
X169987513Y-57729572D01*
X169987516Y-57729570D01*
X169987526Y-57729568D01*
X170194240Y-57633176D01*
X170381074Y-57502353D01*
X170542353Y-57341074D01*
X170673176Y-57154240D01*
X170752160Y-56984855D01*
X170776855Y-56949590D01*
X171141944Y-56584501D01*
X171165326Y-56671764D01*
X171223911Y-56773236D01*
X171306764Y-56856089D01*
X171408236Y-56914674D01*
X171495497Y-56938055D01*
X170927397Y-57506153D01*
X171043268Y-57577898D01*
X171043270Y-57577899D01*
X171250473Y-57658169D01*
X171468899Y-57699000D01*
X171691101Y-57699000D01*
X171909525Y-57658169D01*
X171909535Y-57658166D01*
X172116729Y-57577899D01*
X172116731Y-57577898D01*
X172232601Y-57506153D01*
X171664503Y-56938055D01*
X171751764Y-56914674D01*
X171853236Y-56856089D01*
X171936089Y-56773236D01*
X171994674Y-56671764D01*
X172018055Y-56584502D01*
X172588147Y-57154594D01*
X172603776Y-57133898D01*
X172603783Y-57133886D01*
X172702817Y-56934999D01*
X172702825Y-56934979D01*
X172763633Y-56721261D01*
X172763634Y-56721259D01*
X172784137Y-56500000D01*
X172784137Y-56499999D01*
X172763634Y-56278740D01*
X172763633Y-56278738D01*
X172702825Y-56065020D01*
X172702819Y-56065005D01*
X172603781Y-55866110D01*
X172603776Y-55866103D01*
X172588146Y-55845404D01*
X172018055Y-56415496D01*
X171994674Y-56328236D01*
X171936089Y-56226764D01*
X171853236Y-56143911D01*
X171751764Y-56085326D01*
X171664502Y-56061944D01*
X172232601Y-55493845D01*
X172232600Y-55493844D01*
X172116733Y-55422102D01*
X172116727Y-55422099D01*
X171909525Y-55341830D01*
X171777420Y-55317135D01*
X171715139Y-55285467D01*
X171679866Y-55225154D01*
X171682567Y-55160871D01*
X171681255Y-55160498D01*
X171743633Y-54941261D01*
X171743634Y-54941259D01*
X171764137Y-54720000D01*
X171764137Y-54719999D01*
X171743634Y-54498740D01*
X171743633Y-54498738D01*
X171682825Y-54285020D01*
X171682819Y-54285005D01*
X171583777Y-54086103D01*
X171500181Y-53975404D01*
X171475489Y-53910043D01*
X171490054Y-53841708D01*
X171539251Y-53792095D01*
X171599135Y-53776677D01*
X171654896Y-53776677D01*
X171721935Y-53796362D01*
G37*
%TD.AperFunction*%
%TA.AperFunction,Conductor*%
G36*
X175166849Y-57096460D02*
G01*
X175256502Y-57157585D01*
X175497137Y-57273469D01*
X175752356Y-57352193D01*
X175752357Y-57352193D01*
X175752360Y-57352194D01*
X176016450Y-57391999D01*
X176016455Y-57391999D01*
X176016458Y-57392000D01*
X176016459Y-57392000D01*
X176283541Y-57392000D01*
X176283542Y-57392000D01*
X176283549Y-57391999D01*
X176547639Y-57352194D01*
X176547640Y-57352193D01*
X176547644Y-57352193D01*
X176802863Y-57273469D01*
X176967700Y-57194087D01*
X177036640Y-57182736D01*
X177100774Y-57210458D01*
X177139740Y-57268453D01*
X177145500Y-57305808D01*
X177145500Y-67251689D01*
X177125815Y-67318728D01*
X177109181Y-67339370D01*
X176196041Y-68252510D01*
X176171022Y-68192110D01*
X176099888Y-68085649D01*
X176009351Y-67995112D01*
X175902890Y-67923978D01*
X175842488Y-67898958D01*
X176750124Y-66991322D01*
X176750123Y-66991321D01*
X176624843Y-66897537D01*
X176624835Y-66897532D01*
X176386310Y-66767287D01*
X176386306Y-66767285D01*
X176131654Y-66672305D01*
X175866097Y-66614537D01*
X175866090Y-66614536D01*
X175595001Y-66595147D01*
X175594999Y-66595147D01*
X175323909Y-66614536D01*
X175323902Y-66614537D01*
X175058345Y-66672305D01*
X174803693Y-66767285D01*
X174803689Y-66767287D01*
X174565164Y-66897532D01*
X174565156Y-66897537D01*
X174439875Y-66991321D01*
X174439874Y-66991322D01*
X175347511Y-67898958D01*
X175287110Y-67923978D01*
X175180649Y-67995112D01*
X175090112Y-68085649D01*
X175018978Y-68192110D01*
X174993958Y-68252510D01*
X174086322Y-67344874D01*
X174086321Y-67344875D01*
X173992537Y-67470156D01*
X173992532Y-67470164D01*
X173862287Y-67708689D01*
X173862285Y-67708693D01*
X173767305Y-67963345D01*
X173709537Y-68228902D01*
X173709536Y-68228909D01*
X173690147Y-68499998D01*
X173690147Y-68500001D01*
X173709536Y-68771090D01*
X173709537Y-68771097D01*
X173767305Y-69036654D01*
X173862285Y-69291306D01*
X173862287Y-69291310D01*
X173992532Y-69529835D01*
X173992537Y-69529843D01*
X174086321Y-69655123D01*
X174086322Y-69655124D01*
X174993958Y-68747488D01*
X175018978Y-68807890D01*
X175090112Y-68914351D01*
X175180649Y-69004888D01*
X175287110Y-69076022D01*
X175347511Y-69101041D01*
X174439874Y-70008676D01*
X174565163Y-70102466D01*
X174565164Y-70102467D01*
X174803689Y-70232712D01*
X174803693Y-70232714D01*
X175058345Y-70327694D01*
X175323902Y-70385462D01*
X175323909Y-70385463D01*
X175594999Y-70404853D01*
X175595001Y-70404853D01*
X175866090Y-70385463D01*
X175866097Y-70385462D01*
X176131654Y-70327694D01*
X176386306Y-70232714D01*
X176386310Y-70232712D01*
X176624844Y-70102462D01*
X176750123Y-70008677D01*
X176750124Y-70008676D01*
X175842488Y-69101041D01*
X175902890Y-69076022D01*
X176009351Y-69004888D01*
X176099888Y-68914351D01*
X176171022Y-68807890D01*
X176196041Y-68747489D01*
X177109181Y-69660629D01*
X177142666Y-69721952D01*
X177145500Y-69748310D01*
X177145500Y-71916347D01*
X177125815Y-71983386D01*
X177073011Y-72029141D01*
X177003853Y-72039085D01*
X176940297Y-72010060D01*
X176933819Y-72004028D01*
X176911031Y-71981240D01*
X176911025Y-71981235D01*
X176911021Y-71981231D01*
X176681483Y-71809400D01*
X176681478Y-71809397D01*
X176681477Y-71809396D01*
X176429831Y-71671987D01*
X176429827Y-71671985D01*
X176314766Y-71629070D01*
X176161175Y-71571784D01*
X176161171Y-71571783D01*
X176161168Y-71571782D01*
X175881004Y-71510835D01*
X175595001Y-71490380D01*
X175594999Y-71490380D01*
X175308995Y-71510835D01*
X175028831Y-71571782D01*
X175028826Y-71571783D01*
X175028825Y-71571784D01*
X174997636Y-71583417D01*
X174760172Y-71671985D01*
X174760168Y-71671987D01*
X174508522Y-71809396D01*
X174508521Y-71809397D01*
X174278980Y-71981230D01*
X174278968Y-71981240D01*
X174076240Y-72183968D01*
X174076230Y-72183980D01*
X173904397Y-72413521D01*
X173904396Y-72413522D01*
X173766987Y-72665168D01*
X173765148Y-72669197D01*
X173763512Y-72668450D01*
X173726106Y-72718389D01*
X173660635Y-72742787D01*
X173651825Y-72743100D01*
X172864880Y-72743100D01*
X172797841Y-72723415D01*
X172777199Y-72706781D01*
X171172501Y-71102081D01*
X171172500Y-71102080D01*
X171094988Y-71050289D01*
X171094987Y-71050288D01*
X171048531Y-71019247D01*
X171048519Y-71019240D01*
X170951126Y-70978899D01*
X170951126Y-70978900D01*
X170951124Y-70978899D01*
X170910780Y-70962188D01*
X170910776Y-70962187D01*
X170910773Y-70962186D01*
X170886515Y-70957361D01*
X170886514Y-70957361D01*
X170764550Y-70933100D01*
X170764548Y-70933100D01*
X166127063Y-70933100D01*
X166060024Y-70913415D01*
X166025489Y-70880225D01*
X166003122Y-70848281D01*
X165841719Y-70686878D01*
X165841717Y-70686876D01*
X165841712Y-70686872D01*
X165654745Y-70555955D01*
X165654741Y-70555953D01*
X165551306Y-70507721D01*
X165447870Y-70459488D01*
X165447866Y-70459487D01*
X165447862Y-70459485D01*
X165227394Y-70400412D01*
X165227390Y-70400411D01*
X165227389Y-70400411D01*
X165227388Y-70400410D01*
X165227383Y-70400410D01*
X165000002Y-70380517D01*
X164999998Y-70380517D01*
X164772616Y-70400410D01*
X164772605Y-70400412D01*
X164552137Y-70459485D01*
X164552128Y-70459489D01*
X164345259Y-70555953D01*
X164345255Y-70555955D01*
X164158280Y-70686878D01*
X163996878Y-70848280D01*
X163865955Y-71035255D01*
X163865953Y-71035259D01*
X163769489Y-71242128D01*
X163769485Y-71242137D01*
X163710412Y-71462605D01*
X163710410Y-71462616D01*
X163690517Y-71689998D01*
X163690517Y-71690002D01*
X163704709Y-71852229D01*
X163690942Y-71920729D01*
X163668862Y-71950717D01*
X163412798Y-72206782D01*
X163351478Y-72240266D01*
X163325119Y-72243100D01*
X162242552Y-72243100D01*
X162175513Y-72223415D01*
X162129758Y-72170611D01*
X162119613Y-72135286D01*
X162116421Y-72111042D01*
X162113940Y-72092194D01*
X162053030Y-71945142D01*
X161956134Y-71818866D01*
X161829858Y-71721970D01*
X161829857Y-71721969D01*
X161829855Y-71721968D01*
X161682809Y-71661061D01*
X161682807Y-71661060D01*
X161682806Y-71661060D01*
X161656542Y-71657602D01*
X161564626Y-71645500D01*
X161564619Y-71645500D01*
X160610900Y-71645500D01*
X160543861Y-71625815D01*
X160498106Y-71573011D01*
X160486900Y-71521500D01*
X160486900Y-68655449D01*
X160457813Y-68509226D01*
X160457812Y-68509225D01*
X160457812Y-68509221D01*
X160432397Y-68447862D01*
X160400758Y-68371478D01*
X160400757Y-68371476D01*
X160369710Y-68325011D01*
X160369709Y-68325009D01*
X160315538Y-68243934D01*
X160294661Y-68177257D01*
X160295112Y-68164254D01*
X160309483Y-68000000D01*
X160295289Y-67837768D01*
X160309055Y-67769270D01*
X160331133Y-67739284D01*
X162777199Y-65293219D01*
X162838522Y-65259734D01*
X162864880Y-65256900D01*
X169574549Y-65256900D01*
X169594967Y-65252838D01*
X169696512Y-65232638D01*
X169696515Y-65232638D01*
X169720775Y-65227813D01*
X169720775Y-65227812D01*
X169720780Y-65227812D01*
X169761123Y-65211100D01*
X169761125Y-65211100D01*
X169822547Y-65185658D01*
X169858526Y-65170756D01*
X169904988Y-65139710D01*
X169982496Y-65087923D01*
X174804023Y-60266395D01*
X174851306Y-60195630D01*
X174886856Y-60142426D01*
X174914972Y-60074548D01*
X174943913Y-60004680D01*
X174957401Y-59936869D01*
X174963466Y-59906379D01*
X174963466Y-59906376D01*
X174973000Y-59858448D01*
X174973000Y-57198915D01*
X174992685Y-57131876D01*
X175045489Y-57086121D01*
X175114647Y-57076177D01*
X175166849Y-57096460D01*
G37*
%TD.AperFunction*%
%TA.AperFunction,Conductor*%
G36*
X152354634Y-52150884D02*
G01*
X152371041Y-52168825D01*
X152481224Y-52316013D01*
X152481240Y-52316031D01*
X152683968Y-52518759D01*
X152683974Y-52518764D01*
X152683979Y-52518769D01*
X152913517Y-52690600D01*
X152913521Y-52690602D01*
X152913522Y-52690603D01*
X153165168Y-52828012D01*
X153165172Y-52828014D01*
X153165174Y-52828015D01*
X153433825Y-52928216D01*
X153573913Y-52958690D01*
X153713995Y-52989164D01*
X153713997Y-52989164D01*
X153714001Y-52989165D01*
X153968156Y-53007342D01*
X153999999Y-53009620D01*
X154000000Y-53009620D01*
X154000001Y-53009620D01*
X154028653Y-53007570D01*
X154285999Y-52989165D01*
X154287034Y-52988940D01*
X154566166Y-52928218D01*
X154566166Y-52928217D01*
X154566175Y-52928216D01*
X154703913Y-52876841D01*
X154773602Y-52871858D01*
X154834922Y-52905340D01*
X154834925Y-52905343D01*
X155206781Y-53277199D01*
X155240266Y-53338522D01*
X155243100Y-53364880D01*
X155243100Y-55669798D01*
X155223415Y-55736837D01*
X155178527Y-55778630D01*
X154967724Y-55893736D01*
X154967716Y-55893741D01*
X154749639Y-56056991D01*
X154749621Y-56057007D01*
X154557007Y-56249621D01*
X154556991Y-56249639D01*
X154393741Y-56467716D01*
X154393736Y-56467724D01*
X154263183Y-56706815D01*
X154263181Y-56706819D01*
X154255574Y-56727215D01*
X154178083Y-56934979D01*
X154167976Y-56962076D01*
X154110071Y-57228260D01*
X154110070Y-57228267D01*
X154090635Y-57499998D01*
X154090635Y-57500001D01*
X154110070Y-57771732D01*
X154110071Y-57771739D01*
X154166729Y-58032189D01*
X154167978Y-58037930D01*
X154227088Y-58196410D01*
X154263181Y-58293180D01*
X154263183Y-58293184D01*
X154393736Y-58532275D01*
X154393741Y-58532283D01*
X154556991Y-58750360D01*
X154557007Y-58750378D01*
X154749621Y-58942992D01*
X154749639Y-58943008D01*
X154852266Y-59019833D01*
X154894138Y-59075766D01*
X154899122Y-59145458D01*
X154865637Y-59206781D01*
X154804314Y-59240266D01*
X154777956Y-59243100D01*
X153040681Y-59243100D01*
X152973642Y-59223415D01*
X152927887Y-59170611D01*
X152917943Y-59101453D01*
X152946968Y-59037897D01*
X152970829Y-59016647D01*
X153085150Y-58938702D01*
X152285757Y-58139309D01*
X152331574Y-58120332D01*
X152446224Y-58043726D01*
X152543726Y-57946224D01*
X152620332Y-57831574D01*
X152639309Y-57785757D01*
X153437703Y-58584151D01*
X153437704Y-58584150D01*
X153491393Y-58516828D01*
X153491400Y-58516817D01*
X153626290Y-58283181D01*
X153724851Y-58032052D01*
X153724857Y-58032033D01*
X153784886Y-57769028D01*
X153784886Y-57769026D01*
X153805047Y-57500004D01*
X153805047Y-57499995D01*
X153784886Y-57230973D01*
X153784886Y-57230971D01*
X153724857Y-56967966D01*
X153724851Y-56967947D01*
X153626290Y-56716818D01*
X153626291Y-56716818D01*
X153491397Y-56483177D01*
X153437704Y-56415847D01*
X152639309Y-57214242D01*
X152620332Y-57168426D01*
X152543726Y-57053776D01*
X152446224Y-56956274D01*
X152331574Y-56879668D01*
X152285757Y-56860690D01*
X153085150Y-56061296D01*
X152902517Y-55936779D01*
X152902516Y-55936778D01*
X152659460Y-55819730D01*
X152659462Y-55819730D01*
X152401662Y-55740209D01*
X152401656Y-55740207D01*
X152134898Y-55700000D01*
X151865101Y-55700000D01*
X151598343Y-55740207D01*
X151598337Y-55740209D01*
X151340538Y-55819730D01*
X151097485Y-55936778D01*
X151097476Y-55936783D01*
X150914848Y-56061296D01*
X151714242Y-56860690D01*
X151668426Y-56879668D01*
X151553776Y-56956274D01*
X151456274Y-57053776D01*
X151379668Y-57168426D01*
X151360690Y-57214243D01*
X150562295Y-56415848D01*
X150508600Y-56483180D01*
X150373709Y-56716818D01*
X150275148Y-56967947D01*
X150275142Y-56967966D01*
X150215113Y-57230971D01*
X150215113Y-57230973D01*
X150194953Y-57499995D01*
X150194953Y-57500004D01*
X150215113Y-57769026D01*
X150215113Y-57769028D01*
X150275142Y-58032033D01*
X150275148Y-58032052D01*
X150373709Y-58283181D01*
X150373708Y-58283181D01*
X150508602Y-58516822D01*
X150562294Y-58584151D01*
X150562295Y-58584151D01*
X151360690Y-57785756D01*
X151379668Y-57831574D01*
X151456274Y-57946224D01*
X151553776Y-58043726D01*
X151668426Y-58120332D01*
X151714242Y-58139309D01*
X150914848Y-58938702D01*
X151029171Y-59016646D01*
X151073473Y-59070675D01*
X151081532Y-59140079D01*
X151050789Y-59202821D01*
X150991005Y-59238983D01*
X150959319Y-59243100D01*
X149257272Y-59243100D01*
X149224022Y-59249714D01*
X149190771Y-59256328D01*
X149126899Y-59269032D01*
X149111040Y-59272187D01*
X149030351Y-59305610D01*
X149030350Y-59305609D01*
X148973298Y-59329242D01*
X148911310Y-59370661D01*
X148849323Y-59412078D01*
X148032044Y-60229357D01*
X147970721Y-60262842D01*
X147901029Y-60257858D01*
X147845096Y-60215986D01*
X147821425Y-60157862D01*
X147818838Y-60138211D01*
X147756054Y-59903900D01*
X147663224Y-59679788D01*
X147541936Y-59469711D01*
X147416017Y-59305610D01*
X147394266Y-59277263D01*
X147394260Y-59277256D01*
X147222743Y-59105739D01*
X147222736Y-59105733D01*
X147030293Y-58958067D01*
X147030292Y-58958066D01*
X147030289Y-58958064D01*
X146820212Y-58836776D01*
X146820205Y-58836773D01*
X146596104Y-58743947D01*
X146361785Y-58681161D01*
X146121289Y-58649500D01*
X146121288Y-58649500D01*
X145878712Y-58649500D01*
X145878711Y-58649500D01*
X145638214Y-58681161D01*
X145403895Y-58743947D01*
X145179794Y-58836773D01*
X145179785Y-58836777D01*
X144969706Y-58958067D01*
X144777263Y-59105733D01*
X144777256Y-59105739D01*
X144605739Y-59277256D01*
X144605733Y-59277263D01*
X144458067Y-59469706D01*
X144336777Y-59679785D01*
X144336773Y-59679794D01*
X144243947Y-59903895D01*
X144181161Y-60138214D01*
X144149500Y-60378711D01*
X144149500Y-60621288D01*
X144181161Y-60861785D01*
X144243947Y-61096104D01*
X144323281Y-61287633D01*
X144336776Y-61320212D01*
X144458064Y-61530289D01*
X144458066Y-61530292D01*
X144458067Y-61530293D01*
X144605733Y-61722736D01*
X144605739Y-61722743D01*
X144777256Y-61894260D01*
X144777262Y-61894265D01*
X144969711Y-62041936D01*
X145179788Y-62163224D01*
X145403900Y-62256054D01*
X145638211Y-62318838D01*
X145657861Y-62321424D01*
X145721755Y-62349687D01*
X145760228Y-62408010D01*
X145761063Y-62477875D01*
X145729358Y-62532044D01*
X136468581Y-71792821D01*
X136407258Y-71826306D01*
X136337566Y-71821322D01*
X136281633Y-71779450D01*
X136257216Y-71713986D01*
X136256900Y-71705140D01*
X136256900Y-59864880D01*
X136276585Y-59797841D01*
X136293219Y-59777199D01*
X136517199Y-59553219D01*
X136578522Y-59519734D01*
X136604880Y-59516900D01*
X136688292Y-59516900D01*
X136755331Y-59536585D01*
X136794019Y-59576110D01*
X136856461Y-59678007D01*
X136856462Y-59678009D01*
X136857987Y-59679794D01*
X137015630Y-59864370D01*
X137061908Y-59903895D01*
X137099158Y-59935710D01*
X137137351Y-59994217D01*
X137137849Y-60064085D01*
X137100495Y-60123131D01*
X137099158Y-60124290D01*
X137015630Y-60195630D01*
X136856465Y-60381987D01*
X136728409Y-60590957D01*
X136634624Y-60817375D01*
X136577414Y-61055674D01*
X136558185Y-61300000D01*
X136577414Y-61544325D01*
X136634624Y-61782624D01*
X136728409Y-62009042D01*
X136728412Y-62009047D01*
X136728413Y-62009049D01*
X136856465Y-62218012D01*
X137015630Y-62404370D01*
X137082737Y-62461685D01*
X137099158Y-62475710D01*
X137137351Y-62534217D01*
X137137849Y-62604085D01*
X137100495Y-62663131D01*
X137099158Y-62664290D01*
X137015630Y-62735630D01*
X136856465Y-62921987D01*
X136728409Y-63130957D01*
X136634624Y-63357375D01*
X136577414Y-63595674D01*
X136558185Y-63840000D01*
X136577414Y-64084325D01*
X136634624Y-64322624D01*
X136728409Y-64549042D01*
X136728412Y-64549047D01*
X136728413Y-64549049D01*
X136856465Y-64758012D01*
X137015630Y-64944370D01*
X137082737Y-65001685D01*
X137099158Y-65015710D01*
X137137351Y-65074217D01*
X137137849Y-65144085D01*
X137100495Y-65203131D01*
X137099158Y-65204290D01*
X137015630Y-65275630D01*
X136856465Y-65461987D01*
X136728409Y-65670957D01*
X136634624Y-65897375D01*
X136577414Y-66135674D01*
X136558185Y-66380000D01*
X136577414Y-66624325D01*
X136634624Y-66862624D01*
X136728409Y-67089042D01*
X136728412Y-67089047D01*
X136728413Y-67089049D01*
X136856465Y-67298012D01*
X137015630Y-67484370D01*
X137201988Y-67643535D01*
X137410951Y-67771587D01*
X137410954Y-67771588D01*
X137410957Y-67771590D01*
X137637375Y-67865375D01*
X137858772Y-67918527D01*
X137875678Y-67922586D01*
X138120000Y-67941815D01*
X138364322Y-67922586D01*
X138483474Y-67893980D01*
X138602624Y-67865375D01*
X138602625Y-67865374D01*
X138602627Y-67865374D01*
X138826577Y-67772611D01*
X138829042Y-67771590D01*
X138829042Y-67771589D01*
X138829049Y-67771587D01*
X139038012Y-67643535D01*
X139224370Y-67484370D01*
X139383535Y-67298012D01*
X139511587Y-67089049D01*
X139605374Y-66862627D01*
X139627735Y-66769489D01*
X139662585Y-66624325D01*
X139662586Y-66624322D01*
X139681815Y-66380000D01*
X139662586Y-66135678D01*
X139658527Y-66118772D01*
X139605375Y-65897375D01*
X139511590Y-65670957D01*
X139511588Y-65670954D01*
X139511587Y-65670951D01*
X139383535Y-65461988D01*
X139224370Y-65275630D01*
X139140840Y-65204288D01*
X139102648Y-65145783D01*
X139102149Y-65075916D01*
X139139503Y-65016869D01*
X139140790Y-65015753D01*
X139224370Y-64944370D01*
X139383535Y-64758012D01*
X139511587Y-64549049D01*
X139605374Y-64322627D01*
X139662586Y-64084322D01*
X139681815Y-63840000D01*
X139662586Y-63595678D01*
X139658527Y-63578772D01*
X139605375Y-63357375D01*
X139511590Y-63130957D01*
X139511588Y-63130954D01*
X139511587Y-63130951D01*
X139383535Y-62921988D01*
X139224370Y-62735630D01*
X139140840Y-62664288D01*
X139102648Y-62605783D01*
X139102149Y-62535916D01*
X139139503Y-62476869D01*
X139140790Y-62475753D01*
X139224370Y-62404370D01*
X139383535Y-62218012D01*
X139511587Y-62009049D01*
X139605374Y-61782627D01*
X139662586Y-61544322D01*
X139681815Y-61300000D01*
X139662586Y-61055678D01*
X139624862Y-60898547D01*
X139605375Y-60817375D01*
X139511590Y-60590957D01*
X139511588Y-60590954D01*
X139511587Y-60590951D01*
X139383535Y-60381988D01*
X139224370Y-60195630D01*
X139140840Y-60124288D01*
X139102648Y-60065783D01*
X139102149Y-59995916D01*
X139139503Y-59936869D01*
X139140790Y-59935753D01*
X139224370Y-59864370D01*
X139383535Y-59678012D01*
X139511587Y-59469049D01*
X139605374Y-59242627D01*
X139606769Y-59236819D01*
X139659422Y-59017501D01*
X139662586Y-59004322D01*
X139681815Y-58760000D01*
X139662586Y-58515678D01*
X139606724Y-58282996D01*
X139608379Y-58227104D01*
X139606624Y-58226755D01*
X139636898Y-58074552D01*
X139636899Y-58074549D01*
X139636899Y-57925451D01*
X139636898Y-57925447D01*
X139607812Y-57779220D01*
X139574583Y-57699000D01*
X139550756Y-57641475D01*
X139508275Y-57577898D01*
X139467922Y-57517504D01*
X139467920Y-57517502D01*
X139467918Y-57517499D01*
X139362501Y-57412082D01*
X139362496Y-57412078D01*
X139361044Y-57411108D01*
X139342887Y-57398975D01*
X139298082Y-57345366D01*
X139289373Y-57276041D01*
X139317486Y-57215343D01*
X139383535Y-57138012D01*
X139511587Y-56929049D01*
X139605374Y-56702627D01*
X139662586Y-56464322D01*
X139681815Y-56220000D01*
X139662586Y-55975678D01*
X139607748Y-55747261D01*
X139611239Y-55677480D01*
X139651903Y-55620662D01*
X139716829Y-55594849D01*
X139785404Y-55608235D01*
X139816003Y-55630634D01*
X140405794Y-56220425D01*
X140415282Y-56226764D01*
X140483299Y-56272210D01*
X140529762Y-56303256D01*
X140614263Y-56338257D01*
X140667508Y-56360312D01*
X140691761Y-56365135D01*
X140691769Y-56365139D01*
X140691770Y-56365137D01*
X140813738Y-56389400D01*
X140813740Y-56389400D01*
X147754649Y-56389400D01*
X147775067Y-56385338D01*
X147876612Y-56365138D01*
X147876615Y-56365138D01*
X147891228Y-56362231D01*
X147900880Y-56360312D01*
X147954125Y-56338257D01*
X148038626Y-56303256D01*
X148085088Y-56272210D01*
X148085093Y-56272207D01*
X148124408Y-56245938D01*
X148162596Y-56220423D01*
X152087922Y-52295096D01*
X152168670Y-52174246D01*
X152222281Y-52129441D01*
X152291605Y-52120731D01*
X152354634Y-52150884D01*
G37*
%TD.AperFunction*%
%TA.AperFunction,Conductor*%
G36*
X160508600Y-50497985D02*
G01*
X160554355Y-50550789D01*
X160564299Y-50619947D01*
X160535274Y-50683503D01*
X160517047Y-50700676D01*
X160430745Y-50766897D01*
X160430738Y-50766903D01*
X160256903Y-50940738D01*
X160256897Y-50940745D01*
X160107236Y-51135787D01*
X159984307Y-51348705D01*
X159984303Y-51348714D01*
X159890225Y-51575837D01*
X159890224Y-51575841D01*
X159890222Y-51575847D01*
X159832491Y-51791306D01*
X159826592Y-51813320D01*
X159826590Y-51813331D01*
X159794500Y-52057065D01*
X159794500Y-52302928D01*
X159800981Y-52352153D01*
X159826591Y-52546677D01*
X159890222Y-52784152D01*
X159890225Y-52784162D01*
X159975140Y-52989164D01*
X159984306Y-53011292D01*
X160107233Y-53224208D01*
X160107235Y-53224211D01*
X160107236Y-53224212D01*
X160256897Y-53419254D01*
X160256903Y-53419261D01*
X160430738Y-53593096D01*
X160430745Y-53593102D01*
X160577669Y-53705841D01*
X160618872Y-53762269D01*
X160623027Y-53832015D01*
X160588815Y-53892935D01*
X160527097Y-53925688D01*
X160465634Y-53922708D01*
X160287649Y-53867808D01*
X160287639Y-53867805D01*
X160023549Y-53828000D01*
X160023542Y-53828000D01*
X159756458Y-53828000D01*
X159756450Y-53828000D01*
X159492360Y-53867805D01*
X159492350Y-53867808D01*
X159237150Y-53946526D01*
X159237137Y-53946531D01*
X158996505Y-54062413D01*
X158996501Y-54062415D01*
X158775828Y-54212867D01*
X158580042Y-54394528D01*
X158413514Y-54603349D01*
X158279971Y-54834650D01*
X158182396Y-55083267D01*
X158182391Y-55083284D01*
X158122961Y-55343664D01*
X158103003Y-55609995D01*
X158103003Y-55610004D01*
X158122961Y-55876335D01*
X158156550Y-56023499D01*
X158182394Y-56136727D01*
X158215242Y-56220423D01*
X158279971Y-56385349D01*
X158279970Y-56385349D01*
X158346165Y-56500000D01*
X158413514Y-56616651D01*
X158496936Y-56721259D01*
X158580042Y-56825471D01*
X158676181Y-56914674D01*
X158775826Y-57007131D01*
X158996502Y-57157585D01*
X159237137Y-57273469D01*
X159492356Y-57352193D01*
X159492357Y-57352193D01*
X159492360Y-57352194D01*
X159756450Y-57391999D01*
X159756455Y-57391999D01*
X159756458Y-57392000D01*
X159756459Y-57392000D01*
X160023541Y-57392000D01*
X160023542Y-57392000D01*
X160023549Y-57391999D01*
X160287639Y-57352194D01*
X160287640Y-57352193D01*
X160287644Y-57352193D01*
X160460216Y-57298961D01*
X160530078Y-57298012D01*
X160589365Y-57334983D01*
X160619251Y-57398138D01*
X160610250Y-57467426D01*
X160584446Y-57505134D01*
X158882800Y-59206781D01*
X158821477Y-59240266D01*
X158795119Y-59243100D01*
X157222044Y-59243100D01*
X157155005Y-59223415D01*
X157109250Y-59170611D01*
X157099306Y-59101453D01*
X157128331Y-59037897D01*
X157147734Y-59019833D01*
X157250360Y-58943008D01*
X157250360Y-58943007D01*
X157250368Y-58943002D01*
X157443002Y-58750368D01*
X157606260Y-58532281D01*
X157736819Y-58293179D01*
X157832022Y-58037930D01*
X157889930Y-57771731D01*
X157909365Y-57500000D01*
X157889930Y-57228269D01*
X157832022Y-56962070D01*
X157736819Y-56706821D01*
X157734527Y-56702624D01*
X157606263Y-56467724D01*
X157606258Y-56467716D01*
X157443008Y-56249639D01*
X157442992Y-56249621D01*
X157250378Y-56057007D01*
X157250360Y-56056991D01*
X157032283Y-55893741D01*
X157032275Y-55893736D01*
X156821473Y-55778630D01*
X156772068Y-55729225D01*
X156756900Y-55669798D01*
X156756900Y-52925449D01*
X156727812Y-52779221D01*
X156727810Y-52779216D01*
X156670758Y-52641478D01*
X156670757Y-52641476D01*
X156622664Y-52569500D01*
X156622664Y-52569499D01*
X156587923Y-52517505D01*
X156587917Y-52517498D01*
X155905343Y-51834925D01*
X155871858Y-51773602D01*
X155876841Y-51703913D01*
X155928216Y-51566175D01*
X155989165Y-51285999D01*
X156009620Y-51000000D01*
X155989165Y-50714001D01*
X155974538Y-50646764D01*
X155970600Y-50628659D01*
X155975584Y-50558967D01*
X156017455Y-50503033D01*
X156082919Y-50478616D01*
X156091766Y-50478300D01*
X160441561Y-50478300D01*
X160508600Y-50497985D01*
G37*
%TD.AperFunction*%
%TA.AperFunction,Conductor*%
G36*
X151943108Y-48680385D02*
G01*
X151988863Y-48733189D01*
X151998807Y-48802347D01*
X151969782Y-48865903D01*
X151963750Y-48872381D01*
X150912077Y-49924052D01*
X150889840Y-49957334D01*
X150862215Y-49998679D01*
X150862213Y-49998682D01*
X150841625Y-50029492D01*
X150788011Y-50074295D01*
X150718686Y-50083001D01*
X150655660Y-50052844D01*
X150629692Y-50020024D01*
X150602465Y-49970161D01*
X150508676Y-49844874D01*
X149601041Y-50752510D01*
X149576022Y-50692110D01*
X149504888Y-50585649D01*
X149414351Y-50495112D01*
X149307890Y-50423978D01*
X149247488Y-50398958D01*
X150155124Y-49491322D01*
X150155123Y-49491321D01*
X150029843Y-49397537D01*
X150029835Y-49397532D01*
X149791310Y-49267287D01*
X149791306Y-49267285D01*
X149536654Y-49172305D01*
X149271097Y-49114537D01*
X149271090Y-49114536D01*
X149000001Y-49095147D01*
X148999999Y-49095147D01*
X148728909Y-49114536D01*
X148728902Y-49114537D01*
X148463345Y-49172305D01*
X148208693Y-49267285D01*
X148208689Y-49267287D01*
X147970164Y-49397532D01*
X147970156Y-49397537D01*
X147844875Y-49491321D01*
X147844874Y-49491322D01*
X148752511Y-50398958D01*
X148692110Y-50423978D01*
X148585649Y-50495112D01*
X148495112Y-50585649D01*
X148423978Y-50692110D01*
X148398958Y-50752510D01*
X147491322Y-49844874D01*
X147491321Y-49844875D01*
X147397537Y-49970156D01*
X147397532Y-49970164D01*
X147267287Y-50208689D01*
X147267285Y-50208693D01*
X147172305Y-50463345D01*
X147114537Y-50728902D01*
X147114536Y-50728909D01*
X147095147Y-50999998D01*
X147095147Y-51000001D01*
X147114536Y-51271090D01*
X147114537Y-51271097D01*
X147172305Y-51536654D01*
X147267285Y-51791306D01*
X147267287Y-51791310D01*
X147397532Y-52029835D01*
X147397537Y-52029843D01*
X147491321Y-52155123D01*
X147491322Y-52155124D01*
X148398958Y-51247488D01*
X148423978Y-51307890D01*
X148495112Y-51414351D01*
X148585649Y-51504888D01*
X148692110Y-51576022D01*
X148752511Y-51601041D01*
X147844874Y-52508676D01*
X147970163Y-52602466D01*
X147970164Y-52602467D01*
X148208689Y-52732712D01*
X148208693Y-52732714D01*
X148463345Y-52827694D01*
X148728902Y-52885462D01*
X148728909Y-52885463D01*
X148999997Y-52904852D01*
X149031699Y-52902585D01*
X149099973Y-52917436D01*
X149149379Y-52966840D01*
X149164232Y-53035113D01*
X149139817Y-53100577D01*
X149128229Y-53113950D01*
X147402900Y-54839281D01*
X147341577Y-54872766D01*
X147315219Y-54875600D01*
X141253169Y-54875600D01*
X141186130Y-54855915D01*
X141165488Y-54839281D01*
X139655943Y-53329736D01*
X139623050Y-53271001D01*
X139605374Y-53197374D01*
X139511589Y-52970955D01*
X139509067Y-52966840D01*
X139383535Y-52761988D01*
X139224370Y-52575630D01*
X139038012Y-52416465D01*
X139017612Y-52403963D01*
X138970738Y-52352153D01*
X138968817Y-52342370D01*
X138356008Y-51729560D01*
X138420785Y-51702729D01*
X138524789Y-51633236D01*
X138613236Y-51544789D01*
X138682729Y-51440785D01*
X138709560Y-51376007D01*
X139309117Y-51975564D01*
X139401815Y-51833679D01*
X139498508Y-51613240D01*
X139557600Y-51379889D01*
X139577478Y-51140005D01*
X139577478Y-51139994D01*
X139557600Y-50900110D01*
X139498508Y-50666759D01*
X139401815Y-50446320D01*
X139309117Y-50304434D01*
X138709560Y-50903991D01*
X138682729Y-50839215D01*
X138613236Y-50735211D01*
X138524789Y-50646764D01*
X138420785Y-50577271D01*
X138356006Y-50550438D01*
X138915627Y-49990819D01*
X138976950Y-49957334D01*
X139003308Y-49954500D01*
X140987586Y-49954500D01*
X141054625Y-49974185D01*
X141075266Y-49990818D01*
X141959182Y-50874735D01*
X141992666Y-50936056D01*
X141995500Y-50962414D01*
X141995500Y-52439618D01*
X142011060Y-52557806D01*
X142011062Y-52557812D01*
X142071968Y-52704855D01*
X142071969Y-52704857D01*
X142071970Y-52704858D01*
X142168866Y-52831134D01*
X142295142Y-52928030D01*
X142295143Y-52928030D01*
X142295144Y-52928031D01*
X142344159Y-52948333D01*
X142442194Y-52988940D01*
X142560381Y-53004500D01*
X145439618Y-53004499D01*
X145557806Y-52988940D01*
X145704858Y-52928030D01*
X145831134Y-52831134D01*
X145928030Y-52704858D01*
X145988940Y-52557806D01*
X146004500Y-52439619D01*
X146004499Y-50962412D01*
X146024184Y-50895374D01*
X146040813Y-50874737D01*
X148218533Y-48697019D01*
X148279856Y-48663534D01*
X148306214Y-48660700D01*
X151876069Y-48660700D01*
X151943108Y-48680385D01*
G37*
%TD.AperFunction*%
%TA.AperFunction,Conductor*%
G36*
X175760825Y-48680385D02*
G01*
X175781467Y-48697019D01*
X177290681Y-50206233D01*
X177324166Y-50267556D01*
X177327000Y-50293914D01*
X177327000Y-54021083D01*
X177307315Y-54088122D01*
X177254511Y-54133877D01*
X177185353Y-54143821D01*
X177133149Y-54123537D01*
X177043499Y-54062415D01*
X177043491Y-54062410D01*
X176802868Y-53946533D01*
X176802849Y-53946526D01*
X176547649Y-53867808D01*
X176547639Y-53867805D01*
X176283549Y-53828000D01*
X176283542Y-53828000D01*
X176016458Y-53828000D01*
X176016450Y-53828000D01*
X175752360Y-53867805D01*
X175752350Y-53867808D01*
X175574365Y-53922708D01*
X175504502Y-53923658D01*
X175445215Y-53886686D01*
X175415329Y-53823531D01*
X175424332Y-53754243D01*
X175462328Y-53705842D01*
X175609256Y-53593101D01*
X175783101Y-53419256D01*
X175932767Y-53224208D01*
X176055694Y-53011292D01*
X176149778Y-52784153D01*
X176213409Y-52546677D01*
X176242677Y-52324366D01*
X176245500Y-52302928D01*
X176245500Y-52057079D01*
X176245499Y-52057065D01*
X176234769Y-51975564D01*
X176213409Y-51813323D01*
X176149778Y-51575847D01*
X176148136Y-51571884D01*
X176120386Y-51504888D01*
X176055694Y-51348708D01*
X175932767Y-51135792D01*
X175783101Y-50940744D01*
X175783096Y-50940738D01*
X175609261Y-50766903D01*
X175609254Y-50766897D01*
X175414212Y-50617236D01*
X175414211Y-50617235D01*
X175414208Y-50617233D01*
X175201292Y-50494306D01*
X175163413Y-50478616D01*
X174974162Y-50400225D01*
X174974155Y-50400223D01*
X174974153Y-50400222D01*
X174736677Y-50336591D01*
X174695939Y-50331227D01*
X174492934Y-50304500D01*
X174492927Y-50304500D01*
X174247073Y-50304500D01*
X174247065Y-50304500D01*
X174015059Y-50335045D01*
X174003323Y-50336591D01*
X173953280Y-50350000D01*
X173765847Y-50400222D01*
X173765837Y-50400225D01*
X173538714Y-50494303D01*
X173538705Y-50494307D01*
X173325787Y-50617236D01*
X173130745Y-50766897D01*
X173130738Y-50766903D01*
X172956903Y-50940738D01*
X172956897Y-50940745D01*
X172807236Y-51135787D01*
X172684307Y-51348705D01*
X172684303Y-51348714D01*
X172590225Y-51575837D01*
X172590224Y-51575841D01*
X172590222Y-51575847D01*
X172532491Y-51791306D01*
X172526592Y-51813320D01*
X172526590Y-51813331D01*
X172494500Y-52057065D01*
X172494500Y-52211572D01*
X172474815Y-52278611D01*
X172422011Y-52324366D01*
X172352853Y-52334310D01*
X172323049Y-52326134D01*
X172267023Y-52302928D01*
X172240555Y-52291964D01*
X172240550Y-52291963D01*
X172216292Y-52287138D01*
X172216291Y-52287138D01*
X172094327Y-52262877D01*
X172094325Y-52262877D01*
X169400900Y-52262877D01*
X169333861Y-52243192D01*
X169288106Y-52190388D01*
X169276900Y-52138877D01*
X169276900Y-51445449D01*
X169247814Y-51299229D01*
X169247811Y-51299219D01*
X169245554Y-51293771D01*
X169245553Y-51293763D01*
X169245552Y-51293764D01*
X169222268Y-51237551D01*
X169190758Y-51161478D01*
X169190757Y-51161476D01*
X169176410Y-51140005D01*
X169159710Y-51115011D01*
X169134619Y-51077458D01*
X169107927Y-51037509D01*
X169107923Y-51037504D01*
X166942800Y-48872381D01*
X166909315Y-48811058D01*
X166914299Y-48741366D01*
X166956171Y-48685433D01*
X167021635Y-48661016D01*
X167030481Y-48660700D01*
X175693786Y-48660700D01*
X175760825Y-48680385D01*
G37*
%TD.AperFunction*%
%TA.AperFunction,Conductor*%
G36*
X165514758Y-49589185D02*
G01*
X165535400Y-49605819D01*
X167726781Y-51797200D01*
X167760266Y-51858523D01*
X167763100Y-51884881D01*
X167763100Y-53594157D01*
X167743415Y-53661196D01*
X167710224Y-53695731D01*
X167678933Y-53717641D01*
X167678922Y-53717650D01*
X167587681Y-53808892D01*
X167526358Y-53842377D01*
X167456666Y-53837393D01*
X167412319Y-53808892D01*
X167321077Y-53717650D01*
X167321074Y-53717647D01*
X167321069Y-53717643D01*
X167321066Y-53717641D01*
X167289776Y-53695731D01*
X167246151Y-53641154D01*
X167236900Y-53594157D01*
X167236900Y-53126849D01*
X167207813Y-52980626D01*
X167207812Y-52980625D01*
X167207812Y-52980621D01*
X167186106Y-52928217D01*
X167150758Y-52842878D01*
X167150757Y-52842876D01*
X167142911Y-52831134D01*
X167108224Y-52779221D01*
X167067922Y-52718904D01*
X167067920Y-52718901D01*
X164130200Y-49781181D01*
X164096715Y-49719858D01*
X164101699Y-49650166D01*
X164143571Y-49594233D01*
X164209035Y-49569816D01*
X164217881Y-49569500D01*
X165447719Y-49569500D01*
X165514758Y-49589185D01*
G37*
%TD.AperFunction*%
%TD*%
M02*
