%TF.GenerationSoftware,KiCad,Pcbnew,8.0.6*%
%TF.CreationDate,2025-03-17T22:04:28-06:00*%
%TF.ProjectId,Eli-Neopixel,456c692d-4e65-46f7-9069-78656c2e6b69,rev?*%
%TF.SameCoordinates,Original*%
%TF.FileFunction,Legend,Bot*%
%TF.FilePolarity,Positive*%
%FSLAX46Y46*%
G04 Gerber Fmt 4.6, Leading zero omitted, Abs format (unit mm)*
G04 Created by KiCad (PCBNEW 8.0.6) date 2025-03-17 22:04:28*
%MOMM*%
%LPD*%
G01*
G04 APERTURE LIST*
%ADD10C,0.300000*%
G04 APERTURE END LIST*
D10*
X134659774Y-86800828D02*
X134159774Y-88300828D01*
X134159774Y-88300828D02*
X133659774Y-86800828D01*
X132588346Y-88229400D02*
X132731203Y-88300828D01*
X132731203Y-88300828D02*
X133016918Y-88300828D01*
X133016918Y-88300828D02*
X133159775Y-88229400D01*
X133159775Y-88229400D02*
X133231203Y-88086542D01*
X133231203Y-88086542D02*
X133231203Y-87515114D01*
X133231203Y-87515114D02*
X133159775Y-87372257D01*
X133159775Y-87372257D02*
X133016918Y-87300828D01*
X133016918Y-87300828D02*
X132731203Y-87300828D01*
X132731203Y-87300828D02*
X132588346Y-87372257D01*
X132588346Y-87372257D02*
X132516918Y-87515114D01*
X132516918Y-87515114D02*
X132516918Y-87657971D01*
X132516918Y-87657971D02*
X133231203Y-87800828D01*
X131874061Y-88300828D02*
X131874061Y-87300828D01*
X131874061Y-87586542D02*
X131802632Y-87443685D01*
X131802632Y-87443685D02*
X131731204Y-87372257D01*
X131731204Y-87372257D02*
X131588346Y-87300828D01*
X131588346Y-87300828D02*
X131445489Y-87300828D01*
X131016918Y-88229400D02*
X130874061Y-88300828D01*
X130874061Y-88300828D02*
X130588347Y-88300828D01*
X130588347Y-88300828D02*
X130445490Y-88229400D01*
X130445490Y-88229400D02*
X130374061Y-88086542D01*
X130374061Y-88086542D02*
X130374061Y-88015114D01*
X130374061Y-88015114D02*
X130445490Y-87872257D01*
X130445490Y-87872257D02*
X130588347Y-87800828D01*
X130588347Y-87800828D02*
X130802633Y-87800828D01*
X130802633Y-87800828D02*
X130945490Y-87729400D01*
X130945490Y-87729400D02*
X131016918Y-87586542D01*
X131016918Y-87586542D02*
X131016918Y-87515114D01*
X131016918Y-87515114D02*
X130945490Y-87372257D01*
X130945490Y-87372257D02*
X130802633Y-87300828D01*
X130802633Y-87300828D02*
X130588347Y-87300828D01*
X130588347Y-87300828D02*
X130445490Y-87372257D01*
X129731204Y-88300828D02*
X129731204Y-87300828D01*
X129731204Y-86800828D02*
X129802632Y-86872257D01*
X129802632Y-86872257D02*
X129731204Y-86943685D01*
X129731204Y-86943685D02*
X129659775Y-86872257D01*
X129659775Y-86872257D02*
X129731204Y-86800828D01*
X129731204Y-86800828D02*
X129731204Y-86943685D01*
X128802632Y-88300828D02*
X128945489Y-88229400D01*
X128945489Y-88229400D02*
X129016918Y-88157971D01*
X129016918Y-88157971D02*
X129088346Y-88015114D01*
X129088346Y-88015114D02*
X129088346Y-87586542D01*
X129088346Y-87586542D02*
X129016918Y-87443685D01*
X129016918Y-87443685D02*
X128945489Y-87372257D01*
X128945489Y-87372257D02*
X128802632Y-87300828D01*
X128802632Y-87300828D02*
X128588346Y-87300828D01*
X128588346Y-87300828D02*
X128445489Y-87372257D01*
X128445489Y-87372257D02*
X128374061Y-87443685D01*
X128374061Y-87443685D02*
X128302632Y-87586542D01*
X128302632Y-87586542D02*
X128302632Y-88015114D01*
X128302632Y-88015114D02*
X128374061Y-88157971D01*
X128374061Y-88157971D02*
X128445489Y-88229400D01*
X128445489Y-88229400D02*
X128588346Y-88300828D01*
X128588346Y-88300828D02*
X128802632Y-88300828D01*
X127659775Y-87300828D02*
X127659775Y-88300828D01*
X127659775Y-87443685D02*
X127588346Y-87372257D01*
X127588346Y-87372257D02*
X127445489Y-87300828D01*
X127445489Y-87300828D02*
X127231203Y-87300828D01*
X127231203Y-87300828D02*
X127088346Y-87372257D01*
X127088346Y-87372257D02*
X127016918Y-87515114D01*
X127016918Y-87515114D02*
X127016918Y-88300828D01*
X124374060Y-88300828D02*
X125231203Y-88300828D01*
X124802632Y-88300828D02*
X124802632Y-86800828D01*
X124802632Y-86800828D02*
X124945489Y-87015114D01*
X124945489Y-87015114D02*
X125088346Y-87157971D01*
X125088346Y-87157971D02*
X125231203Y-87229400D01*
X123731204Y-88157971D02*
X123659775Y-88229400D01*
X123659775Y-88229400D02*
X123731204Y-88300828D01*
X123731204Y-88300828D02*
X123802632Y-88229400D01*
X123802632Y-88229400D02*
X123731204Y-88157971D01*
X123731204Y-88157971D02*
X123731204Y-88300828D01*
X123159775Y-86800828D02*
X122231203Y-86800828D01*
X122231203Y-86800828D02*
X122731203Y-87372257D01*
X122731203Y-87372257D02*
X122516918Y-87372257D01*
X122516918Y-87372257D02*
X122374061Y-87443685D01*
X122374061Y-87443685D02*
X122302632Y-87515114D01*
X122302632Y-87515114D02*
X122231203Y-87657971D01*
X122231203Y-87657971D02*
X122231203Y-88015114D01*
X122231203Y-88015114D02*
X122302632Y-88157971D01*
X122302632Y-88157971D02*
X122374061Y-88229400D01*
X122374061Y-88229400D02*
X122516918Y-88300828D01*
X122516918Y-88300828D02*
X122945489Y-88300828D01*
X122945489Y-88300828D02*
X123088346Y-88229400D01*
X123088346Y-88229400D02*
X123159775Y-88157971D01*
M02*
