<?xml version="1.0" standalone="no"?>
 <!DOCTYPE svg PUBLIC "-//W3C//DTD SVG 1.1//EN" 
 "http://www.w3.org/Graphics/SVG/1.1/DTD/svg11.dtd"> 
<svg
  xmlns:svg="http://www.w3.org/2000/svg"
  xmlns="http://www.w3.org/2000/svg"
  xmlns:xlink="http://www.w3.org/1999/xlink"
  version="1.1"
  width="62.0014mm" height="52.6796mm" viewBox="0.0000 0.0000 62.0014 52.6796">
<title>SVG Image created as Eli-Neopixel-brd.svg date 2025/03/10 16:42:18 </title>
  <desc>Image generated by PCBNEW </desc>
<g style="fill:#000000; fill-opacity:1.0000;stroke:#000000; stroke-opacity:1.0000;
stroke-linecap:round; stroke-linejoin:round;"
 transform="translate(0 0) scale(1 1)">
</g>
<g style="fill:#000000; fill-opacity:1.0000; stroke:none;">
<circle cx="44.6488" cy="24.0008" r="1.5750" /> 
<circle cx="23.1488" cy="25.0008" r="1.5750" /> 
<circle cx="22.1488" cy="15.0008" r="1.5750" /> 
<circle cx="44.1738" cy="41.6482" r="1.0500" /> 
</g>
<g style="fill:#000000; fill-opacity:1.0000; stroke:none;">
<circle cx="37.1638" cy="41.6482" r="1.0500" /> 
</g>
<g style="fill:#000000; fill-opacity:1.0000; stroke:none;">
<circle cx="42.9238" cy="44.1382" r="0.8750" /> 
</g>
<g style="fill:#000000; fill-opacity:1.0000; stroke:none;">
<circle cx="38.4238" cy="44.1382" r="0.8750" /> 
</g>
<g style="fill:#000000; fill-opacity:1.0000; stroke:none;">
<circle cx="34.6488" cy="13.5008" r="1.3000" /> 
</g>
<g style="fill:#000000; fill-opacity:1.0000; stroke:none;">
<circle cx="18.7688" cy="22.3807" r="1.0545" /> 
</g>
<g style="fill:#000000; fill-opacity:1.0000; stroke:none;">
<circle cx="18.7688" cy="19.8407" r="1.0545" /> 
</g>
<g style="fill:#000000; fill-opacity:1.0000; stroke:none;">
<circle cx="18.7688" cy="17.3008" r="1.0545" /> 
</g>
<g style="fill:#000000; fill-opacity:1.0000; stroke:none;">
<circle cx="18.7688" cy="14.7607" r="1.0545" /> 
</g>
<g style="fill:#000000; fill-opacity:1.0000; stroke:none;">
<circle cx="18.7688" cy="9.6807" r="1.0545" /> 
</g>
<g style="fill:#000000; fill-opacity:1.0000; stroke:none;">
<circle cx="18.7688" cy="12.2207" r="1.0545" /> 
</g>
<g style="fill:#000000; fill-opacity:1.0000; stroke:none;">
<circle cx="3.5288" cy="4.6007" r="1.0545" /> 
</g>
<g style="fill:#000000; fill-opacity:1.0000; stroke:none;">
<circle cx="18.7688" cy="4.6007" r="1.0545" /> 
</g>
<g style="fill:#000000; fill-opacity:1.0000; stroke:none;">
<circle cx="3.5288" cy="7.1407" r="1.0545" /> 
</g>
<g style="fill:#000000; fill-opacity:1.0000; stroke:none;">
<circle cx="3.5288" cy="9.6807" r="1.0545" /> 
</g>
<g style="fill:#000000; fill-opacity:1.0000; stroke:none;">
<circle cx="3.5288" cy="12.2207" r="1.0545" /> 
</g>
<g style="fill:#000000; fill-opacity:1.0000; stroke:none;">
<circle cx="3.5288" cy="14.7607" r="1.0545" /> 
</g>
<g style="fill:#000000; fill-opacity:1.0000; stroke:none;">
<circle cx="3.5288" cy="17.3008" r="1.0545" /> 
</g>
<g style="fill:#000000; fill-opacity:1.0000; stroke:none;">
<circle cx="3.5288" cy="19.8407" r="1.0545" /> 
</g>
<g style="fill:#000000; fill-opacity:1.0000; stroke:none;">
<circle cx="3.5288" cy="22.3807" r="1.0545" /> 
</g>
<g style="fill:#000000; fill-opacity:1.0000; stroke:none;">
<circle cx="18.7688" cy="7.1407" r="1.0545" /> 
<path style="fill:#000000; fill-opacity:1.0000; stroke:none;fill-rule:evenodd;"
d="M 57.6438,35.9007
54.8438,35.9007
54.8438,33.1007
57.6438,33.1007
Z" /> 
</g>
<g style="fill:#000000; fill-opacity:1.0000; stroke:none;">
<circle cx="56.2438" cy="29.5008" r="1.4000" /> 
</g>
<g style="fill:#000000; fill-opacity:1.0000; stroke:none;">
<circle cx="56.2438" cy="24.5008" r="1.4000" /> 
</g>
<g style="fill:#000000; fill-opacity:1.0000; stroke:none;">
<circle cx="45.6488" cy="27.6907" r="0.7000" /> 
</g>
<g style="fill:#000000; fill-opacity:1.0000; stroke:none;">
<circle cx="45.6488" cy="35.3107" r="0.7000" /> 
<circle cx="5.1488" cy="31.0008" r="1.6000" /> 
</g>
<g style="fill:#000000; fill-opacity:1.0000; stroke:none;">
<circle cx="26.6488" cy="16.5008" r="1.6000" /> 
</g>
<g style="fill:#000000; fill-opacity:1.0000; stroke:none;">
<circle cx="52.1488" cy="41.5007" r="1.6000" /> 
<path style="fill:#000000; fill-opacity:1.0000; stroke:none;fill-rule:evenodd;"
d="M 28.8988,32.2507
28.8988,30.2508
30.8988,30.2508
30.8988,32.2507
Z" /> 
</g>
<g style="fill:none; 
stroke:#000000; stroke-width:2.7200; stroke-opacity:1; 
stroke-linecap:round; stroke-linejoin:round;">
<path d="M32.3988 40.8607
L32.3988 42.6407
" />
<path d="M18.8988 40.8607
L18.8988 42.6407
" />
</g>
<g style="fill:#000000; fill-opacity:1.0000; stroke:none;">
<circle cx="21.3988" cy="31.2508" r="1.0000" /> 
</g>
<g style="fill:#000000; fill-opacity:1.0000; stroke:none;">
<circle cx="55.0188" cy="8.1807" r="1.6250" /> 
</g>
<g style="fill:#000000; fill-opacity:1.0000; stroke:none;">
<circle cx="42.3188" cy="8.1807" r="1.6250" /> 
<path style="fill:#000000; fill-opacity:1.0000; stroke:none;fill-rule:evenodd;"
d="M 45.8898,11.4197
45.8820,11.4588
45.8599,11.4919
45.8268,11.5140
45.7878,11.5217
44.3898,11.5217
44.3508,11.5140
44.3177,11.4919
44.2956,11.4588
44.2878,11.4197
44.2878,10.0217
44.2956,9.9827
44.3177,9.9496
44.3508,9.9275
44.3898,9.9197
45.7878,9.9197
45.8268,9.9275
45.8599,9.9496
45.8820,9.9827
45.8898,10.0217
Z" /> 
</g>
<g style="fill:#000000; fill-opacity:1.0000; stroke:none;">
<circle cx="46.1088" cy="12.5008" r="0.8010" /> 
</g>
<g style="fill:#000000; fill-opacity:1.0000; stroke:none;">
<circle cx="47.1288" cy="10.7207" r="0.8010" /> 
</g>
<g style="fill:#000000; fill-opacity:1.0000; stroke:none;">
<circle cx="48.1488" cy="12.5008" r="0.8010" /> 
</g>
<g style="fill:#000000; fill-opacity:1.0000; stroke:none;">
<circle cx="49.1688" cy="10.7207" r="0.8010" /> 
</g>
<g style="fill:#000000; fill-opacity:1.0000; stroke:none;">
<circle cx="50.1888" cy="12.5008" r="0.8010" /> 
</g>
<g style="fill:#000000; fill-opacity:1.0000; stroke:none;">
<circle cx="51.2088" cy="10.7207" r="0.8010" /> 
</g>
<g style="fill:#000000; fill-opacity:1.0000; stroke:none;">
<circle cx="52.2288" cy="12.5008" r="0.8010" /> 
</g>
<g style="fill:#000000; fill-opacity:1.0000; stroke:none;">
<circle cx="40.5388" cy="11.6107" r="1.2795" /> 
</g>
<g style="fill:#000000; fill-opacity:1.0000; stroke:none;">
<circle cx="56.7988" cy="11.6107" r="1.2795" /> 
</g>
<g style="fill:#000000; fill-opacity:1.0000; stroke:none;">
<circle cx="27.6488" cy="23.5008" r="1.3000" /> 
<path style="fill:#000000; fill-opacity:1.0000; stroke:none;fill-rule:evenodd;"
d="M 23.2488,8.4008
23.2488,5.6007
26.0488,5.6007
26.0488,8.4008
Z" /> 
</g>
<g style="fill:#000000; fill-opacity:1.0000; stroke:none;">
<circle cx="29.6488" cy="7.0008" r="1.4000" /> 
</g>
<g style="fill:#000000; fill-opacity:1.0000; stroke:none;">
<circle cx="34.6488" cy="7.0008" r="1.4000" /> 
</g>
<g style="fill:#000000; fill-opacity:1.0000; stroke:none;">
<circle cx="32.0288" cy="24.0008" r="0.7000" /> 
</g>
<g style="fill:#000000; fill-opacity:1.0000; stroke:none;">
<circle cx="39.6488" cy="24.0008" r="0.7000" /> 
<path style="fill:#000000; fill-opacity:1.0000; stroke:none;fill-rule:evenodd;"
d="M 42.1738,28.2508
42.1738,29.7508
41.1238,29.7508
41.1238,28.2508
Z" /> 
</g>
<g style="fill:none; 
stroke:#000000; stroke-width:1.0500; stroke-opacity:1; 
stroke-linecap:round; stroke-linejoin:round;">
<path d="M40.3788 29.2257
L40.3788 28.7757
" />
<path d="M39.1088 29.2257
L39.1088 28.7757
" />
</g>
<g style="fill:none; 
stroke:#000000; stroke-width:0.3000; stroke-opacity:1; 
stroke-linecap:round; stroke-linejoin:round;">
<text x="2.1878" y="44.2657"
textLength="13.4571" font-size="2.0000" lengthAdjust="spacingAndGlyphs"
text-anchor="start" opacity="0" stroke-opacity="0">Version 1.0</text>
<g class="stroked-text"><desc>Version 1.0</desc>
<path d="M2.5280 42.5666
L3.0280 44.0666
" />
<path d="M3.0280 44.0666
L3.5280 42.5666
" />
<path d="M4.5995 43.9951
L4.4566 44.0666
" />
<path d="M4.4566 44.0666
L4.1709 44.0666
" />
<path d="M4.1709 44.0666
L4.0280 43.9951
" />
<path d="M4.0280 43.9951
L3.9566 43.8523
" />
<path d="M3.9566 43.8523
L3.9566 43.2809
" />
<path d="M3.9566 43.2809
L4.0280 43.1380
" />
<path d="M4.0280 43.1380
L4.1709 43.0666
" />
<path d="M4.1709 43.0666
L4.4566 43.0666
" />
<path d="M4.4566 43.0666
L4.5995 43.1380
" />
<path d="M4.5995 43.1380
L4.6709 43.2809
" />
<path d="M4.6709 43.2809
L4.6709 43.4237
" />
<path d="M4.6709 43.4237
L3.9566 43.5666
" />
<path d="M5.3137 44.0666
L5.3137 43.0666
" />
<path d="M5.3137 43.3523
L5.3852 43.2094
" />
<path d="M5.3852 43.2094
L5.4566 43.1380
" />
<path d="M5.4566 43.1380
L5.5995 43.0666
" />
<path d="M5.5995 43.0666
L5.7423 43.0666
" />
<path d="M6.1709 43.9951
L6.3137 44.0666
" />
<path d="M6.3137 44.0666
L6.5995 44.0666
" />
<path d="M6.5995 44.0666
L6.7423 43.9951
" />
<path d="M6.7423 43.9951
L6.8137 43.8523
" />
<path d="M6.8137 43.8523
L6.8137 43.7809
" />
<path d="M6.8137 43.7809
L6.7423 43.6380
" />
<path d="M6.7423 43.6380
L6.5995 43.5666
" />
<path d="M6.5995 43.5666
L6.3852 43.5666
" />
<path d="M6.3852 43.5666
L6.2423 43.4951
" />
<path d="M6.2423 43.4951
L6.1709 43.3523
" />
<path d="M6.1709 43.3523
L6.1709 43.2809
" />
<path d="M6.1709 43.2809
L6.2423 43.1380
" />
<path d="M6.2423 43.1380
L6.3852 43.0666
" />
<path d="M6.3852 43.0666
L6.5995 43.0666
" />
<path d="M6.5995 43.0666
L6.7423 43.1380
" />
<path d="M7.4566 44.0666
L7.4566 43.0666
" />
<path d="M7.4566 42.5666
L7.3852 42.6380
" />
<path d="M7.3852 42.6380
L7.4566 42.7094
" />
<path d="M7.4566 42.7094
L7.5280 42.6380
" />
<path d="M7.5280 42.6380
L7.4566 42.5666
" />
<path d="M7.4566 42.5666
L7.4566 42.7094
" />
<path d="M8.3852 44.0666
L8.2423 43.9951
" />
<path d="M8.2423 43.9951
L8.1709 43.9237
" />
<path d="M8.1709 43.9237
L8.0995 43.7809
" />
<path d="M8.0995 43.7809
L8.0995 43.3523
" />
<path d="M8.0995 43.3523
L8.1709 43.2094
" />
<path d="M8.1709 43.2094
L8.2423 43.1380
" />
<path d="M8.2423 43.1380
L8.3852 43.0666
" />
<path d="M8.3852 43.0666
L8.5995 43.0666
" />
<path d="M8.5995 43.0666
L8.7423 43.1380
" />
<path d="M8.7423 43.1380
L8.8137 43.2094
" />
<path d="M8.8137 43.2094
L8.8852 43.3523
" />
<path d="M8.8852 43.3523
L8.8852 43.7809
" />
<path d="M8.8852 43.7809
L8.8137 43.9237
" />
<path d="M8.8137 43.9237
L8.7423 43.9951
" />
<path d="M8.7423 43.9951
L8.5995 44.0666
" />
<path d="M8.5995 44.0666
L8.3852 44.0666
" />
<path d="M9.5280 43.0666
L9.5280 44.0666
" />
<path d="M9.5280 43.2094
L9.5995 43.1380
" />
<path d="M9.5995 43.1380
L9.7423 43.0666
" />
<path d="M9.7423 43.0666
L9.9566 43.0666
" />
<path d="M9.9566 43.0666
L10.0995 43.1380
" />
<path d="M10.0995 43.1380
L10.1709 43.2809
" />
<path d="M10.1709 43.2809
L10.1709 44.0666
" />
<path d="M12.8137 44.0666
L11.9566 44.0666
" />
<path d="M12.3852 44.0666
L12.3852 42.5666
" />
<path d="M12.3852 42.5666
L12.2423 42.7809
" />
<path d="M12.2423 42.7809
L12.0995 42.9237
" />
<path d="M12.0995 42.9237
L11.9566 42.9951
" />
<path d="M13.4566 43.9237
L13.5280 43.9951
" />
<path d="M13.5280 43.9951
L13.4566 44.0666
" />
<path d="M13.4566 44.0666
L13.3852 43.9951
" />
<path d="M13.3852 43.9951
L13.4566 43.9237
" />
<path d="M13.4566 43.9237
L13.4566 44.0666
" />
<path d="M14.4566 42.5666
L14.5995 42.5666
" />
<path d="M14.5995 42.5666
L14.7423 42.6380
" />
<path d="M14.7423 42.6380
L14.8137 42.7094
" />
<path d="M14.8137 42.7094
L14.8852 42.8523
" />
<path d="M14.8852 42.8523
L14.9566 43.1380
" />
<path d="M14.9566 43.1380
L14.9566 43.4951
" />
<path d="M14.9566 43.4951
L14.8852 43.7809
" />
<path d="M14.8852 43.7809
L14.8137 43.9237
" />
<path d="M14.8137 43.9237
L14.7423 43.9951
" />
<path d="M14.7423 43.9951
L14.5995 44.0666
" />
<path d="M14.5995 44.0666
L14.4566 44.0666
" />
<path d="M14.4566 44.0666
L14.3137 43.9951
" />
<path d="M14.3137 43.9951
L14.2423 43.9237
" />
<path d="M14.2423 43.9237
L14.1709 43.7809
" />
<path d="M14.1709 43.7809
L14.0995 43.4951
" />
<path d="M14.0995 43.4951
L14.0995 43.1380
" />
<path d="M14.0995 43.1380
L14.1709 42.8523
" />
<path d="M14.1709 42.8523
L14.2423 42.7094
" />
<path d="M14.2423 42.7094
L14.3137 42.6380
" />
<path d="M14.3137 42.6380
L14.4566 42.5666
" />
</g><path style="fill:none; 
stroke:#000000; stroke-width:0.1500; stroke-opacity:1; 
stroke-linecap:round; stroke-linejoin:round;fill:none"
d="M 1.1488,2.0008
60.6488,2.0008
60.6488,46.5007
1.1488,46.5007
Z" /> 
</g> 
</svg>
